<svg width="648" height="414" viewBox="0 0 648 414" fill="none" xmlns="http://www.w3.org/2000/svg">
<path d="M498.362 261.092C447.394 349.096 325.386 373.993 325.386 373.993C325.386 373.993 286.015 256.179 336.953 168.164C387.908 80.1362 509.901 55.2764 509.901 55.2764C509.901 55.2764 549.3 173.078 498.362 261.092Z" fill="#F4EEE2"/>
<path d="M313.493 168.151C364.42 256.166 325.046 373.993 325.046 373.993C325.046 373.993 203.038 349.096 152.086 261.079C101.146 173.078 140.544 55.2764 140.544 55.2764C140.544 55.2764 262.525 80.1362 313.493 168.151Z" fill="#F4EEE2"/>
<path fill-rule="evenodd" clip-rule="evenodd" d="M309.617 170.393C358.936 255.586 321.184 371.424 320.796 372.572L325.945 369.626C324.714 369.367 205.299 344.068 155.941 258.874C106.62 173.65 155.615 75.5239 155.981 74.3582C157.186 74.6032 260.26 85.1855 309.617 170.393ZM136.28 53.8599C134.661 58.7601 96.8301 174.595 148.212 263.32C199.578 352.074 319.073 377.321 324.142 378.354L328.02 379.145L329.279 375.394C330.912 370.503 368.743 254.669 317.372 165.916C265.99 77.1899 146.512 51.933 141.43 50.9099L137.551 50.1084L136.28 53.8599Z" fill="url(#paint0_radial_235_17579)"/>
<path fill-rule="evenodd" clip-rule="evenodd" d="M332.616 170.393C280.321 255.586 320.351 371.424 320.763 372.572L315.303 369.626C316.608 369.367 443.231 344.068 495.567 258.874C547.864 173.65 495.913 75.5239 495.524 74.3582C494.247 74.6032 384.952 85.1855 332.616 170.393ZM516.414 53.8599C518.131 58.7601 558.245 174.595 503.762 263.32C449.297 352.074 322.59 377.321 317.215 378.354L313.103 379.145L311.768 375.394C310.036 370.503 269.923 254.669 324.393 165.916C378.876 77.1899 505.565 51.933 510.954 50.9099L515.067 50.1084L516.414 53.8599Z" fill="url(#paint1_radial_235_17579)"/>
<path d="M418.404 189.969C418.404 291.589 325.209 373.979 325.209 373.979C325.209 373.979 232.031 291.589 232.031 189.969C232.031 88.3494 325.209 5.96094 325.209 5.96094C325.209 5.96094 418.404 88.3494 418.404 189.969Z" fill="#FBF6EC"/>
<path d="M336.958 168.162C286.615 255.144 324.472 371.161 325.352 373.85C328.337 371.171 418.403 289.92 418.403 189.969C418.403 159.044 409.751 129.903 397.73 104.335C374.53 120.49 352.456 141.39 336.958 168.162Z" fill="#EDE6D8"/>
<path d="M313.487 168.15C297.989 141.377 275.906 120.49 252.692 104.335C240.68 129.89 232.031 159.031 232.031 189.969C232.031 289.884 322.032 371.134 325.093 373.85C325.99 371.107 363.817 255.131 313.487 168.15Z" fill="#EDE6D8"/>
<path d="M325.206 373.401C327.491 366.378 356.317 273.361 325.206 192.796C294.122 273.361 322.926 366.302 325.206 373.401Z" fill="#D7D1C6"/>
<path fill-rule="evenodd" clip-rule="evenodd" d="M413.935 189.972C413.935 288.45 323.181 369.829 322.262 370.631H328.214C327.278 369.829 236.524 288.347 236.524 189.972C236.524 91.4955 323.57 41.7231 324.489 40.8953C325.398 41.7231 413.935 91.5846 413.935 189.972ZM322.262 2.62611C318.397 6.05283 227.564 87.5112 227.564 189.972C227.564 292.42 318.397 373.891 322.262 377.319L325.216 379.944L328.201 377.319C332.052 373.891 422.882 292.42 422.882 189.972C422.882 87.5112 332.038 6.05283 328.201 2.62611L325.216 0L322.262 2.62611Z" fill="url(#paint2_radial_235_17579)"/>
<path fill-rule="evenodd" clip-rule="evenodd" d="M157.935 296.871C246.172 347.689 326.292 374.074 326.292 374.074C326.292 374.074 200.692 426.247 112.466 375.445C24.2276 324.628 6.72161 190.076 6.72161 190.076C6.72161 190.076 69.6849 246.052 157.935 296.871Z" fill="url(#paint3_linear_235_17579)"/>
<path fill-rule="evenodd" clip-rule="evenodd" d="M154.95 301.36C222.204 340.099 285.423 364.914 311.538 374.478C279.029 383.863 188.572 404.097 119.479 364.321C50.406 324.554 21.7782 235.785 13.3091 202.782C34.7613 220.623 87.8222 262.713 154.95 301.36ZM1.53209 191.268C2.28495 196.841 20.3491 328.611 109.469 379.905C198.603 431.24 322.049 380.991 327.26 378.819L338.349 374.227L326.939 370.479C326.145 370.207 246.208 343.6 159.424 293.649C72.5878 243.622 9.58495 187.916 8.9516 187.361L0 179.407L1.53209 191.268Z" fill="url(#paint4_radial_235_17579)"/>
<path fill-rule="evenodd" clip-rule="evenodd" d="M493.008 296.871C404.771 347.689 324.65 374.074 324.65 374.074C324.65 374.074 450.25 426.247 538.477 375.445C626.715 324.628 644.221 190.076 644.221 190.076C644.221 190.076 581.258 246.052 493.008 296.871Z" fill="url(#paint5_linear_235_17579)"/>
<path fill-rule="evenodd" clip-rule="evenodd" d="M492.777 301.36C425.523 340.099 362.304 364.914 336.189 374.478C368.697 383.863 459.155 404.097 528.247 364.321C597.321 324.554 625.948 235.785 634.418 202.782C612.965 220.623 559.904 262.713 492.777 301.36ZM646.194 191.268C645.442 196.841 627.377 328.611 538.258 379.905C449.124 431.24 325.678 380.991 320.466 378.819L309.377 374.227L320.787 370.479C321.581 370.207 401.519 343.6 488.302 293.649C575.139 243.622 638.142 187.916 638.775 187.361L647.727 179.407L646.194 191.268Z" fill="url(#paint6_radial_235_17579)"/>
<path d="M235.56 149.153C233.12 166.567 239.482 185.148 254.715 197.181C275.229 213.41 304.424 226.592 316.328 251.059C320.32 259.278 322.533 268.438 327.901 275.839C333.043 282.943 340.66 287.802 348.189 292.295C357.723 297.989 367.641 303.474 378.534 305.686C400.059 310.074 418.256 299.051 435.598 288.098C443.755 282.943 446.945 271.973 444.836 262.552C442.727 253.131 436.226 245.208 428.644 239.217C424.391 235.857 419.703 232.931 416.217 228.787C412.731 224.642 410.587 218.826 412.487 213.758C413.41 211.303 415.188 209.266 417.088 207.455C431.049 193.976 452.714 190.964 467.738 177.329C474.832 170.886 483.407 164.495 479.189 154.499C476.087 147.133 465.629 143.093 458.379 145.967C454.84 147.377 451.285 150.059 447.625 148.979C444.522 148.056 442.779 144.521 442.953 141.3C443.128 138.078 444.836 135.135 446.736 132.523C455.764 120.107 468.191 116.92 480.741 109.746C490.641 104.086 500.645 94.9441 507.39 85.8018C514.467 76.2242 518.685 64.3655 518.127 52.4718C517.569 40.5782 511.974 28.7891 502.423 21.6842C487.66 10.6787 465.176 15.0496 449.507 22.0325C432.008 29.8339 417.21 44.0958 409.82 61.8753C407.084 68.4751 405.271 75.4929 401.698 81.6922C398.839 86.6377 394.9 90.9563 390.229 94.2475C385.82 97.3472 380.26 99.5762 375.1 98.0263C370.272 96.581 366.787 91.9141 366.089 86.9511C364.782 77.6696 372.974 71.6967 371.981 62.2061C371.179 54.4744 366.734 47.091 360.373 42.6504C350.908 36.068 338.08 35.4934 327.239 39.4289C313.47 44.4266 302.507 56.4944 298.829 70.6518C297.086 77.4084 296.842 84.7222 293.461 90.8344C287.012 102.467 272.075 105.584 260.536 112.184C245.913 120.542 237.564 134.421 235.508 149.153H235.56Z" fill="url(#paint7_linear_235_17579)"/>
<path d="M332.747 302.481C325.269 300.705 317.548 300.026 309.879 300.496C301.74 301.001 293.164 303.074 287.534 308.994C286.123 310.492 284.903 312.198 283.229 313.4C278.576 316.726 272.144 315.019 266.497 315.96C261.146 316.848 256.527 320.104 251.473 322.055C244.885 324.58 237.738 324.841 230.871 326.199C224.562 327.435 218.793 330.361 213.006 333.043C202.914 337.727 191.916 344.484 186.844 354.827C183.08 362.489 184.23 370.848 188.5 378.057C195.176 389.359 210.444 392.128 223.516 390.856C236.78 389.568 250.462 384.466 263.308 389.307C275.316 393.834 290.166 397.456 303.012 398.606C313.156 399.511 323.422 398.606 333.496 397.439C351.78 395.332 369.924 390.351 388.19 390.264C408.757 390.177 437.254 390.978 452.923 375.306C462.422 365.815 463.241 353.469 454.649 343.125C450.64 338.302 445.463 334.471 439.99 331.475C437.236 329.978 434.361 328.602 431.398 327.592C428.156 326.495 425.193 324.754 421.898 323.761C418.395 322.699 414.718 322.194 411.057 322.281C404.068 322.455 396.957 324.771 390.194 322.977C387.127 322.159 384.32 320.557 381.253 319.739C376.756 318.537 371.928 319.112 367.431 317.945C363.004 316.796 359.205 314.027 355.283 311.659C348.311 307.444 340.677 304.345 332.764 302.464L332.747 302.481Z" fill="#989AA7"/>
<path d="M300.851 235.491C299.561 224.729 299.944 212.087 295.622 201.743C288.319 203.815 280.458 202.701 273.138 205.052C264.458 207.838 256.702 213.706 252.065 221.612C248.004 228.543 246.244 236.71 241.608 243.258C238.732 247.315 234.88 250.554 231.499 254.194C222.488 263.893 216.788 276.623 215.551 289.805C215.237 293.166 215.237 296.701 216.823 299.678C221.39 308.263 233.73 303.074 239.185 298.494C245.303 293.375 249.887 285.921 255.238 279.983C256.824 278.225 258.427 276.431 260.414 275.108C262.14 273.958 264.109 273.209 265.922 272.199C272.353 268.63 276.606 262.065 279.43 255.273C279.778 254.437 280.127 253.567 280.754 252.922C282.358 251.251 285.286 251.651 287.046 253.149C291.142 256.597 292.101 265.077 296.354 267.498C297.574 268.194 299.055 268.177 300.467 268.159C301.391 268.159 302.332 268.125 303.256 268.107C303.36 257.224 302.14 246.305 300.851 235.491Z" fill="#A5CDB9"/>
<path d="M343.396 204.39C342.28 203.798 341.13 202.979 339.858 201.83C336.337 198.609 334.089 194.394 332.816 189.849C331.788 186.227 331.422 182.431 331.683 178.687C332.049 173.48 333.618 168.361 336.354 163.903C337.243 162.458 338.254 161.064 339.039 159.549C340.59 156.589 340.694 153.646 341.426 150.494C343.135 143.041 342.925 134.665 342.158 127.108C342.054 125.993 341.897 124.844 341.287 123.903C339.544 121.239 334.193 120.421 331.561 118.401C327.814 115.51 323.526 118.523 319.274 119.567C314.358 120.751 309.321 121.518 304.267 121.814C303.395 121.866 302.489 121.901 301.687 122.266C299.491 123.242 298.898 126.063 298.689 128.448C297.94 136.807 297.382 145.967 300.014 154.029C300.851 156.589 302.036 158.975 303.151 161.413C304.981 165.418 307.474 168.535 308.432 172.975C311.029 184.939 305.4 199.828 292.432 202.562C298.044 212.087 300.746 222.953 302.716 233.732C303.308 236.971 307.055 267.985 305.696 268.037C314.463 267.707 323.317 266.627 330.376 261.629C334.001 259.052 336.738 255.343 340.381 252.835C341.67 251.947 343.03 251.303 344.424 250.798C342.664 235.404 342.193 219.923 343.413 204.407L343.396 204.39Z" fill="#EED8AD"/>
<path d="M417.123 276.709C414.909 270.527 412.678 264.276 409.157 258.738C405.48 252.939 400.495 248.081 396.643 242.421C392.111 235.769 389.201 228.072 384.268 221.699C377.139 212.47 365.409 206.27 353.679 205.974C350.455 205.905 348.067 205.957 345.784 205.33C344.651 220.254 345.122 235.177 346.795 250.014C348.782 249.457 350.838 249.021 352.93 248.464C353.836 248.22 354.812 247.976 355.701 248.273C356.381 248.499 356.921 249.004 357.409 249.509C359.884 252.016 361.924 254.959 363.44 258.146C364.991 261.403 366.002 264.955 368.076 267.915C370.917 271.938 375.414 274.393 379.301 277.423C388.486 284.598 402.099 315.037 417.314 308.054C429.777 302.342 420.086 285.138 417.105 276.744L417.123 276.709Z" fill="#A5CDB9"/>
<path d="M281.748 292.661C282.306 294.872 282.863 297.101 283.282 299.348C284.014 303.353 285.112 310.771 281.295 313.505C291.665 316.378 303.36 316.901 314.062 317.162C322.184 317.371 330.306 317.057 338.376 316.239C341.845 315.891 345.348 315.769 348.817 315.333C351.675 314.968 354.655 315.368 357.218 313.888C357.636 313.644 358.037 313.366 358.229 312.93C358.385 312.547 358.333 312.112 358.281 311.711C357.374 305.077 356.346 298.338 357.374 291.72C358.229 286.252 360.442 281.115 362.098 275.856C363.841 270.301 364.974 264.537 365.462 258.739C365.653 256.353 365.741 253.88 364.887 251.651C364.102 249.579 362.586 247.872 361.087 246.236C357.671 242.492 352.163 237.685 350.821 232.601C349.374 227.15 350.525 220.167 352.424 214.995C353.54 211.983 354.725 208.866 357.061 206.671C356.852 206.863 355.422 206.306 353.836 205.627C351.135 205.331 348.451 204.982 345.801 204.338C344.634 204.059 343.326 203.711 342.089 203.223C336.023 209.423 325.775 211.965 317.478 211.512C309.182 211.06 301.06 207.263 295.622 201.029C292.432 202.248 289.121 203.154 285.757 203.589C287.988 205.296 289.382 207.908 290.079 210.624C292.415 219.767 291.857 229.658 288.127 238.347C286.349 242.474 283.63 247.542 280.005 250.345C278.332 251.634 276.798 251.791 275.77 253.863C274.654 256.109 274.706 258.948 275.229 261.333C276.048 264.938 277.879 268.229 278.802 271.799C279.935 276.17 279.656 280.767 280.214 285.26C280.528 287.767 281.12 290.223 281.73 292.661H281.748Z" fill="#A5CDB9"/>
<path d="M315.404 266.696C310.646 272.53 303.36 275.403 296.546 274.149C289.731 272.896 283.561 267.532 280.58 260.271" stroke="#6E707F" stroke-width="0.5" stroke-miterlimit="10"/>
<path d="M327.431 266.696C332.189 272.53 339.474 275.403 346.289 274.149C353.104 272.896 359.274 267.532 362.255 260.271" stroke="#6E707F" stroke-width="0.5" stroke-miterlimit="10"/>
<path d="M223.603 311.607C229.163 316.047 236.431 319.077 241.224 319.373C251.961 320.035 262.07 314.55 272.685 312.826C277.966 311.972 283.386 312.059 288.615 310.945C292.99 310.022 297.121 308.263 301.217 306.487C304.633 305.024 308.572 304.45 311.779 302.569C312.807 301.959 313.731 301.193 314.637 300.427C318.123 297.519 318.455 291.198 318.96 286.896C319.901 278.921 322.428 270.545 321.696 262.517C321.54 260.706 320.563 258.338 318.786 258.721C317.6 258.982 317.112 260.393 316.816 261.577L313.173 276.796C312.424 279.948 311.64 283.17 309.862 285.886C305.173 293.061 294.245 291.528 286.907 291.32C277.513 291.058 268.136 289.996 258.915 288.15C251.647 286.687 244.362 284.72 236.954 284.929C230.767 285.103 220.518 287.628 217.154 293.601C213.494 300.113 217.52 306.678 223.621 311.572L223.603 311.607Z" fill="#EED8AD"/>
<path d="M416.007 312.111C412.277 314.567 407.815 315.925 403.423 317.022C399.101 318.102 394.639 319.025 390.229 318.363C385.593 317.684 381.392 315.316 376.878 314.097C369.331 312.059 361.226 313.261 353.61 311.45C346.551 309.778 340.172 305.564 332.956 304.798C328.616 304.345 323.736 305.007 320.372 302.22C315.335 298.041 318.263 291.842 318.42 286.531C318.681 277.684 317.391 267.88 320.197 259.348C323.718 262.621 324.868 267.706 325.287 272.495C325.705 277.284 325.601 282.229 327.343 286.722C330.028 293.635 345.296 291.511 350.891 291.372C360.547 291.11 370.185 290.066 379.667 288.202C387.127 286.74 394.586 284.772 402.186 284.981C415.293 285.346 433.158 296.892 418.535 310.161C417.733 310.875 416.896 311.537 416.007 312.111Z" fill="#EED8AD"/>
<path d="M326.176 125.837C331.631 123.416 337.679 122.528 342.925 125.958C344.093 126.725 345.174 127.682 346.481 128.153C349.88 129.372 353.645 126.777 355.143 123.503C357.061 119.341 356.346 114.64 356.799 110.216C357.218 106.02 358.786 101.927 359.065 97.7481C359.501 91.305 357.357 82.7549 351.135 79.603C346.69 77.3566 341.252 78.7497 336.738 80.8916C330.672 83.7649 325.287 87.8745 320.825 92.8897C313.679 100.917 294.837 110.216 296.615 123.225C296.981 125.906 298.567 128.257 300.153 130.451C301.286 132.019 302.489 133.603 304.18 134.544C308.223 136.772 313.26 134.422 316.903 131.566C319.518 129.511 322.707 127.386 326.141 125.854L326.176 125.837Z" fill="url(#paint8_linear_235_17579)"/>
<path d="M345.261 141.996C343.64 140.655 341.391 140.968 339.858 142.327C338.55 143.493 338.115 144.904 338.533 146.262C338.167 146.802 337.958 147.411 338.115 148.073C338.15 148.213 338.184 148.369 338.219 148.509C338.446 149.449 339.265 150.215 340.171 150.459C344.86 151.713 349.444 145.444 345.261 141.996Z" fill="#EED8AD"/>
<path d="M303.029 147.151C303.151 145.984 302.907 145.061 302.663 143.912C302.611 143.633 302.489 143.407 302.367 143.215C302.245 142.727 302.019 142.275 301.443 142.014C297.208 139.994 291.892 143.424 294.071 148.335C294.942 150.285 296.912 151.417 299.038 151.208C300.868 151.016 302.507 149.763 302.646 148.004C302.82 147.76 302.977 147.481 303.012 147.151H303.029Z" fill="#EED8AD"/>
<path d="M333.461 168.03C329.139 171.443 324.363 171.948 319.082 171.722C318.298 171.687 317.705 171.618 317.252 171.583C316.642 174.978 315.927 178.357 315.073 181.683C316.607 182.101 318.089 182.78 319.535 183.476C323.317 185.34 327.1 187.185 330.882 189.049C331.492 185.531 331.126 181.926 331.126 178.357C331.126 174.787 331.527 171.06 333.461 168.048V168.03Z" fill="url(#paint9_linear_235_17579)"/>
<path d="M313.94 370.013C299.875 368.01 285.53 368.742 271.395 367.54C263.848 366.896 256.562 364.771 249.242 362.891C243.473 361.411 234.984 360.209 229.111 361.115C227.159 361.411 225.224 362.003 223.237 361.985C221.25 361.968 219.124 361.184 218.182 359.443C217.224 357.684 217.799 355.403 219.071 353.853C220.344 352.303 222.191 351.363 224.039 350.579C235.821 345.616 249.556 345.686 260.484 339.034C261.599 338.355 262.68 337.606 263.935 337.275C268.658 336.039 274.915 341.559 277.966 344.728C279.97 346.818 283.072 347.34 285.948 347.688C294.192 348.664 302.506 348.925 310.785 348.507C315.474 348.263 313.748 357.44 313.801 360.644C313.801 361.236 313.714 369.978 313.94 370.013Z" fill="#EED8AD"/>
<path d="M436.383 338.441C427.023 338.546 418.134 341.158 409.158 338.023C400.025 334.854 390.613 330.239 380.835 333.53C372.852 336.212 365.514 343.213 356.677 342.62C353.157 342.377 349.88 340.862 346.533 339.747C339.3 337.361 335.204 340.583 328.564 342.882C324.712 344.222 320.685 345.058 316.624 345.389C311.326 345.825 307.631 343.926 306.463 350.282C304.929 358.606 303.779 367.191 302.158 375.602C301.827 377.309 301.496 378.998 301.164 380.704C300.833 382.968 300.485 385.215 300.066 387.461C303.674 388.158 307.282 388.819 310.89 389.446C333.583 393.434 356.451 397.213 379.545 397.683C399.833 398.083 424.722 397.474 443.354 388.767C450.222 385.563 456.548 380.67 460.139 374C462.161 370.221 463.241 366.547 463.485 363.064C464.514 348.976 452.174 338.267 436.4 338.424L436.383 338.441Z" fill="#989AA7"/>
<path d="M350.769 409.141C365.758 407.748 380.887 409.246 395.911 408.689C411.197 408.114 427.215 401.392 442.291 406.39C444.017 406.965 445.777 407.661 447.572 407.383C449.368 407.104 451.076 405.363 450.553 403.639C450.361 403.029 449.943 402.524 449.542 402.037C445.254 396.969 441.123 394.618 435.25 391.675C429.132 389.516 422.387 389.795 416.53 386.747C410.343 383.508 403.929 378.737 397.114 380.322C394.726 380.879 392.6 382.185 390.351 383.177C382.299 386.765 376.146 384.187 368.181 383.804C367.083 383.752 352.407 383.404 352.372 383.7L350.751 409.124L350.769 409.141Z" fill="#EED8AD"/>
<path d="M366.229 404.544C367.414 397.073 370.516 388.21 370.098 380.687C367.24 380.443 364.381 380.199 361.523 379.938C359.815 379.799 358.072 379.625 356.503 378.911C354.551 378.005 353.087 376.316 351.57 374.784C339.945 363.081 323.631 357.317 307.456 359.599C303.535 360.156 299.596 361.027 295.657 360.591C290.079 359.982 284.153 356.934 279.029 354.758C272.597 352.024 266.114 349.429 259.473 347.235C253.408 345.232 247.203 343.491 240.823 343.247C236.222 343.056 231.621 343.648 227.019 344.031C221.512 344.484 215.986 344.605 210.479 344.414C205.877 344.257 201.049 343.247 196.657 345.11C193.624 346.399 191.254 348.889 189.337 351.571C184.857 357.927 182.609 365.937 183.707 373.617C184.805 381.296 189.389 388.54 196.169 392.354C200.248 394.653 204.919 395.68 209.538 396.516C232.109 400.643 255.395 401.932 278.175 405.084C306.358 409.002 335.1 412.676 363.51 413.825C363.928 413.825 364.399 413.825 364.66 413.512C364.817 413.338 364.852 413.076 364.887 412.85C365.322 410.081 365.776 407.295 366.211 404.526L366.229 404.544Z" fill="#989AA7"/>
<path d="M317.949 155.283C319.012 156.223 320.442 156.745 321.853 156.728C323.265 156.728 324.677 156.171 325.74 155.213" stroke="#2F3035" stroke-width="0.75" stroke-miterlimit="10"/>
<path d="M304.737 142.64C307.421 144.469 311.221 144.451 313.888 142.605" stroke="#2F3035" stroke-width="0.75" stroke-miterlimit="10"/>
<path d="M326.577 142.17C327.117 142.936 328.006 143.371 328.912 143.598C330.951 144.103 333.217 143.633 334.856 142.327" stroke="#2F3035" stroke-width="0.75" stroke-miterlimit="10"/>
<path d="M286.523 358.032C288.998 360.47 292.85 360.644 296.301 360.505C305.522 360.157 314.794 358.764 323.927 360.122C333.81 361.585 343.169 366.391 350.141 373.548C351.431 374.889 352.686 376.317 354.307 377.24C355.562 377.954 356.973 378.302 358.385 378.58C361.819 379.26 367.414 380.165 370.917 379.974C369.697 385.128 368.669 389.656 368.059 394.915C367.588 398.955 367.257 403.169 365.287 406.739" stroke="#6E707F" stroke-width="0.5" stroke-miterlimit="10"/>
<path d="M380.19 393.086C381.166 392.407 382.648 392.598 383.414 393.487C384.199 394.392 384.164 395.872 383.345 396.743" stroke="#6E707F" stroke-width="0.5" stroke-miterlimit="10"/>
<path d="M404.504 337.292C397.829 335.933 391.536 332.033 384.756 332.659C375.205 333.53 367.815 343.108 358.229 342.881C352.268 342.742 346.795 338.719 340.852 339.137C337.296 339.381 334.071 341.175 330.777 342.551C323.666 345.511 315.77 346.538 308.136 345.493L304.947 360.138" stroke="#6E707F" stroke-width="0.5" stroke-miterlimit="10"/>
<path d="M452.313 360.748C453.777 361.218 454.945 362.559 455.171 364.091C455.398 365.624 454.701 367.243 453.428 368.131" stroke="#6E707F" stroke-width="0.5" stroke-miterlimit="10"/>
<path d="M194.321 363.482C192.561 364.074 191.132 365.607 190.679 367.418C190.225 369.229 190.766 371.249 192.055 372.59" stroke="#6E707F" stroke-width="0.5" stroke-miterlimit="10"/>
<path d="M418.953 299.991C419.511 301.576 418.97 303.491 417.663 304.554" stroke="#6E707F" stroke-width="0.5" stroke-miterlimit="10"/>
<path d="M222.592 296.648C221.529 298.181 221.93 300.549 223.464 301.629" stroke="#6E707F" stroke-width="0.5" stroke-miterlimit="10"/>
<path d="M341.879 203.85C337.295 208.133 331.16 210.554 324.921 211.32C318.681 212.086 312.336 211.268 306.271 209.666" stroke="#6E707F" stroke-width="0.5" stroke-miterlimit="10"/>
<path d="M318.629 214.995C325.113 214.716 331.544 213.288 337.557 210.815" stroke="#6E707F" stroke-width="0.5" stroke-miterlimit="10"/>
<path d="M366.142 264.328H365.584C365.078 258.877 364.067 253.41 363.562 247.959" stroke="#6E707F" stroke-width="0.5" stroke-miterlimit="10"/>
<path d="M276.153 261.281C277.059 255.447 277.983 249.614 278.889 243.78" stroke="#6E707F" stroke-width="0.5" stroke-miterlimit="10"/>
<path fill-rule="evenodd" clip-rule="evenodd" d="M444.683 78.356C444.683 79.9504 443.387 81.2447 441.791 81.2447C440.192 81.2447 438.898 79.9504 438.898 78.356C438.898 76.759 440.192 75.4668 441.791 75.4668C443.387 75.4668 444.683 76.759 444.683 78.356Z" fill="url(#paint10_linear_235_17579)"/>
<path fill-rule="evenodd" clip-rule="evenodd" d="M444.218 78.3552C444.218 79.002 443.966 79.6123 443.507 80.0689C443.048 80.5294 442.439 80.7814 441.791 80.7814C441.145 80.7814 440.532 80.5294 440.073 80.0689C439.616 79.6123 439.361 79.002 439.361 78.3552C439.361 77.0166 440.451 75.9304 441.789 75.9304C443.129 75.9284 444.218 77.0166 444.218 78.3552ZM441.791 75C439.94 75 438.432 76.5023 438.432 78.3531C438.432 79.2505 438.781 80.0921 439.417 80.7276C440.052 81.3592 440.894 81.7077 441.791 81.7077C442.689 81.7077 443.532 81.3592 444.167 80.7276C444.799 80.0921 445.15 79.2505 445.15 78.3531C445.148 76.5042 443.642 75 441.791 75Z" fill="url(#paint11_linear_235_17579)"/>
<path fill-rule="evenodd" clip-rule="evenodd" d="M362.683 192.356C362.683 193.95 361.387 195.245 359.791 195.245C358.192 195.245 356.898 193.95 356.898 192.356C356.898 190.759 358.192 189.467 359.791 189.467C361.387 189.467 362.683 190.759 362.683 192.356Z" fill="url(#paint12_linear_235_17579)"/>
<path fill-rule="evenodd" clip-rule="evenodd" d="M362.218 192.355C362.218 193.002 361.966 193.612 361.507 194.069C361.048 194.529 360.439 194.781 359.791 194.781C359.145 194.781 358.532 194.529 358.073 194.069C357.616 193.612 357.361 193.002 357.361 192.355C357.361 191.017 358.451 189.93 359.789 189.93C361.129 189.928 362.218 191.017 362.218 192.355ZM359.791 189C357.94 189 356.432 190.502 356.432 192.353C356.432 193.25 356.781 194.092 357.417 194.728C358.052 195.359 358.894 195.708 359.791 195.708C360.689 195.708 361.532 195.359 362.167 194.728C362.799 194.092 363.15 193.25 363.15 192.353C363.148 190.504 361.642 189 359.791 189Z" fill="url(#paint13_linear_235_17579)"/>
<path fill-rule="evenodd" clip-rule="evenodd" d="M428.683 259.356C428.683 260.95 427.387 262.245 425.791 262.245C424.192 262.245 422.898 260.95 422.898 259.356C422.898 257.759 424.192 256.467 425.791 256.467C427.387 256.467 428.683 257.759 428.683 259.356Z" fill="url(#paint14_linear_235_17579)"/>
<path fill-rule="evenodd" clip-rule="evenodd" d="M428.218 259.355C428.218 260.002 427.966 260.612 427.507 261.069C427.048 261.529 426.439 261.781 425.791 261.781C425.145 261.781 424.532 261.529 424.073 261.069C423.616 260.612 423.361 260.002 423.361 259.355C423.361 258.017 424.451 256.93 425.789 256.93C427.129 256.928 428.218 258.017 428.218 259.355ZM425.791 256C423.94 256 422.432 257.502 422.432 259.353C422.432 260.25 422.781 261.092 423.417 261.728C424.052 262.359 424.894 262.708 425.791 262.708C426.689 262.708 427.532 262.359 428.167 261.728C428.799 261.092 429.15 260.25 429.15 259.353C429.148 257.504 427.642 256 425.791 256Z" fill="url(#paint15_linear_235_17579)"/>
<path fill-rule="evenodd" clip-rule="evenodd" d="M363.683 113.356C363.683 114.95 362.387 116.245 360.791 116.245C359.192 116.245 357.898 114.95 357.898 113.356C357.898 111.759 359.192 110.467 360.791 110.467C362.387 110.467 363.683 111.759 363.683 113.356Z" fill="url(#paint16_linear_235_17579)"/>
<path fill-rule="evenodd" clip-rule="evenodd" d="M363.218 113.355C363.218 114.002 362.966 114.612 362.507 115.069C362.048 115.529 361.439 115.781 360.791 115.781C360.145 115.781 359.532 115.529 359.073 115.069C358.616 114.612 358.361 114.002 358.361 113.355C358.361 112.017 359.451 110.93 360.789 110.93C362.129 110.928 363.218 112.017 363.218 113.355ZM360.791 110C358.94 110 357.432 111.502 357.432 113.353C357.432 114.25 357.781 115.092 358.417 115.728C359.052 116.359 359.894 116.708 360.791 116.708C361.689 116.708 362.532 116.359 363.167 115.728C363.799 115.092 364.15 114.25 364.15 113.353C364.148 111.504 362.642 110 360.791 110Z" fill="url(#paint17_linear_235_17579)"/>
<path fill-rule="evenodd" clip-rule="evenodd" d="M340.683 61.356C340.683 62.9504 339.387 64.2447 337.791 64.2447C336.192 64.2447 334.898 62.9504 334.898 61.356C334.898 59.759 336.192 58.4668 337.791 58.4668C339.387 58.4668 340.683 59.759 340.683 61.356Z" fill="url(#paint18_linear_235_17579)"/>
<path fill-rule="evenodd" clip-rule="evenodd" d="M340.218 61.3552C340.218 62.002 339.966 62.6123 339.507 63.0689C339.048 63.5294 338.439 63.7814 337.791 63.7814C337.145 63.7814 336.532 63.5294 336.073 63.0689C335.616 62.6123 335.361 62.002 335.361 61.3552C335.361 60.0166 336.451 58.9304 337.789 58.9304C339.129 58.9284 340.218 60.0166 340.218 61.3552ZM337.791 58C335.94 58 334.432 59.5023 334.432 61.3531C334.432 62.2505 334.781 63.0921 335.417 63.7276C336.052 64.3592 336.894 64.7077 337.791 64.7077C338.689 64.7077 339.532 64.3592 340.167 63.7276C340.799 63.0921 341.15 62.2505 341.15 61.3531C341.148 59.5042 339.642 58 337.791 58Z" fill="url(#paint19_linear_235_17579)"/>
<path fill-rule="evenodd" clip-rule="evenodd" d="M425.683 164.356C425.683 165.95 424.387 167.245 422.791 167.245C421.192 167.245 419.898 165.95 419.898 164.356C419.898 162.759 421.192 161.467 422.791 161.467C424.387 161.467 425.683 162.759 425.683 164.356Z" fill="url(#paint20_linear_235_17579)"/>
<path fill-rule="evenodd" clip-rule="evenodd" d="M425.218 164.355C425.218 165.002 424.966 165.612 424.507 166.069C424.048 166.529 423.439 166.781 422.791 166.781C422.145 166.781 421.532 166.529 421.073 166.069C420.616 165.612 420.361 165.002 420.361 164.355C420.361 163.017 421.451 161.93 422.789 161.93C424.129 161.928 425.218 163.017 425.218 164.355ZM422.791 161C420.94 161 419.432 162.502 419.432 164.353C419.432 165.25 419.781 166.092 420.417 166.728C421.052 167.359 421.894 167.708 422.791 167.708C423.689 167.708 424.532 167.359 425.167 166.728C425.799 166.092 426.15 165.25 426.15 164.353C426.148 162.504 424.642 161 422.791 161Z" fill="url(#paint21_linear_235_17579)"/>
<path fill-rule="evenodd" clip-rule="evenodd" d="M267.683 143.356C267.683 144.95 266.387 146.245 264.791 146.245C263.192 146.245 261.898 144.95 261.898 143.356C261.898 141.759 263.192 140.467 264.791 140.467C266.387 140.467 267.683 141.759 267.683 143.356Z" fill="url(#paint22_linear_235_17579)"/>
<path fill-rule="evenodd" clip-rule="evenodd" d="M267.218 143.355C267.218 144.002 266.966 144.612 266.507 145.069C266.048 145.529 265.439 145.781 264.791 145.781C264.145 145.781 263.532 145.529 263.073 145.069C262.616 144.612 262.361 144.002 262.361 143.355C262.361 142.017 263.451 140.93 264.789 140.93C266.129 140.928 267.218 142.017 267.218 143.355ZM264.791 140C262.94 140 261.432 141.502 261.432 143.353C261.432 144.25 261.781 145.092 262.417 145.728C263.052 146.359 263.894 146.708 264.791 146.708C265.689 146.708 266.532 146.359 267.167 145.728C267.799 145.092 268.15 144.25 268.15 143.353C268.148 141.504 266.642 140 264.791 140Z" fill="url(#paint23_linear_235_17579)"/>
<path opacity="0.35" d="M483.824 59.325C480.432 69.2735 468.483 74.3309 468.483 74.3309C468.483 74.3309 462.033 63.2558 465.422 53.3068C468.813 43.3562 480.761 38.3028 480.761 38.3028C480.761 38.3028 487.213 49.3761 483.824 59.325Z" fill="url(#paint24_linear_235_17579)"/>
<path opacity="0.35" fill-rule="evenodd" clip-rule="evenodd" d="M482.853 68.2843C475.37 73.1997 468.474 75.9267 468.474 75.9267C468.474 75.9267 479.762 79.8712 487.244 74.9573C494.727 70.0419 495.576 58.1289 495.576 58.1289C495.576 58.1289 490.337 63.3688 482.853 68.2843Z" fill="url(#paint25_linear_235_17579)"/>
<path opacity="0.35" d="M406.032 131.406C402.66 142.675 410.263 155.046 410.263 155.046C410.263 155.046 423.334 149.144 426.71 137.877C430.085 126.607 422.48 114.24 422.48 114.24C422.48 114.24 409.407 120.139 406.032 131.406Z" fill="url(#paint26_linear_235_17579)"/>
<path opacity="0.3" d="M389.767 137.884C395.011 148.946 409.507 153.214 409.507 153.214C409.507 153.214 415.502 139.545 410.262 128.482C405.02 117.418 390.526 113.154 390.526 113.154C390.526 113.154 384.528 126.822 389.767 137.884Z" fill="url(#paint27_linear_235_17579)"/>
<path opacity="0.3" d="M268.251 178.025C274.86 185.118 286.824 184.865 286.824 184.865C286.824 184.865 288.072 173.112 281.466 166.018C274.859 158.923 262.897 159.179 262.897 159.179C262.897 159.179 261.645 170.932 268.251 178.025Z" fill="url(#paint28_linear_235_17579)"/>
<path opacity="0.4" fill-rule="evenodd" clip-rule="evenodd" d="M392.986 146.307C401.824 152.285 409.998 155.646 409.998 155.646C409.998 155.646 396.484 160.165 387.647 154.188C378.809 148.21 377.989 134 377.989 134C377.989 134 384.147 140.329 392.986 146.307Z" fill="url(#paint29_linear_235_17579)"/>
<path opacity="0.4" fill-rule="evenodd" clip-rule="evenodd" d="M272.701 183.611C280.804 186.005 287.778 186.582 287.778 186.582C287.778 186.582 278.661 193.232 270.559 190.839C262.456 188.445 258.431 177.916 258.431 177.916C258.431 177.916 264.596 181.217 272.701 183.611Z" fill="url(#paint30_linear_235_17579)"/>
<defs>
<radialGradient id="paint0_radial_235_17579" cx="0" cy="0" r="1" gradientUnits="userSpaceOnUse" gradientTransform="translate(245.475 251.823) rotate(-115.743) scale(201.3 213.802)">
<stop offset="0.49737" stop-color="#989AA7"/>
<stop offset="1" stop-color="#D2D9E9"/>
</radialGradient>
<radialGradient id="paint1_radial_235_17579" cx="0" cy="0" r="1" gradientUnits="userSpaceOnUse" gradientTransform="translate(400.629 251.823) rotate(-62.9197) scale(203.648 224.092)">
<stop offset="0.49737" stop-color="#989AA7"/>
<stop offset="1" stop-color="#D2D9E9"/>
</radialGradient>
<radialGradient id="paint2_radial_235_17579" cx="0" cy="0" r="1" gradientUnits="userSpaceOnUse" gradientTransform="translate(332.92 369.346) rotate(2.0424) scale(376.869 375.862)">
<stop stop-color="#989AA7"/>
<stop offset="1" stop-color="#D2D9E9"/>
</radialGradient>
<linearGradient id="paint3_linear_235_17579" x1="326.289" y1="281.313" x2="6.70938" y2="281.313" gradientUnits="userSpaceOnUse">
<stop stop-color="#EDE6D8"/>
<stop offset="1" stop-color="#FFFAF1"/>
</linearGradient>
<radialGradient id="paint4_radial_235_17579" cx="0" cy="0" r="1" gradientUnits="userSpaceOnUse" gradientTransform="translate(77.3435 191.383) rotate(58.8653) scale(247.142 373.819)">
<stop stop-color="#D2D9E9"/>
<stop offset="1" stop-color="#989AA7"/>
</radialGradient>
<linearGradient id="paint5_linear_235_17579" x1="324.654" y1="281.313" x2="644.233" y2="281.313" gradientUnits="userSpaceOnUse">
<stop stop-color="#EDE6D8"/>
<stop offset="1" stop-color="#FFFAF1"/>
</linearGradient>
<radialGradient id="paint6_radial_235_17579" cx="0" cy="0" r="1" gradientUnits="userSpaceOnUse" gradientTransform="translate(570.383 191.383) rotate(121.135) scale(247.142 373.819)">
<stop stop-color="#D2D9E9"/>
<stop offset="1" stop-color="#989AA7"/>
</radialGradient>
<linearGradient id="paint7_linear_235_17579" x1="327.432" y1="270" x2="495.432" y2="24" gradientUnits="userSpaceOnUse">
<stop stop-color="#6E707F"/>
<stop offset="1" stop-color="#A25775"/>
</linearGradient>
<linearGradient id="paint8_linear_235_17579" x1="341.431" y1="135" x2="359.431" y2="78.0005" gradientUnits="userSpaceOnUse">
<stop stop-color="#6E707F"/>
<stop offset="1" stop-color="#A25775"/>
</linearGradient>
<linearGradient id="paint9_linear_235_17579" x1="327.431" y1="150.738" x2="323.934" y2="177.957" gradientUnits="userSpaceOnUse">
<stop offset="0.68" stop-color="#6E707F"/>
<stop offset="1" stop-color="#FF8270" stop-opacity="0"/>
</linearGradient>
<linearGradient id="paint10_linear_235_17579" x1="441.791" y1="75.4668" x2="441.791" y2="81.2447" gradientUnits="userSpaceOnUse">
<stop stop-color="#FFFAF1"/>
<stop offset="1" stop-color="#EDE6D8"/>
</linearGradient>
<linearGradient id="paint11_linear_235_17579" x1="441.791" y1="75" x2="441.791" y2="81.7077" gradientUnits="userSpaceOnUse">
<stop stop-color="#D2D9E9"/>
<stop offset="1" stop-color="#989AA7"/>
</linearGradient>
<linearGradient id="paint12_linear_235_17579" x1="359.791" y1="189.467" x2="359.791" y2="195.245" gradientUnits="userSpaceOnUse">
<stop stop-color="#FFFAF1"/>
<stop offset="1" stop-color="#EDE6D8"/>
</linearGradient>
<linearGradient id="paint13_linear_235_17579" x1="359.791" y1="189" x2="359.791" y2="195.708" gradientUnits="userSpaceOnUse">
<stop stop-color="#D2D9E9"/>
<stop offset="1" stop-color="#989AA7"/>
</linearGradient>
<linearGradient id="paint14_linear_235_17579" x1="425.791" y1="256.467" x2="425.791" y2="262.245" gradientUnits="userSpaceOnUse">
<stop stop-color="#FFFAF1"/>
<stop offset="1" stop-color="#EDE6D8"/>
</linearGradient>
<linearGradient id="paint15_linear_235_17579" x1="425.791" y1="256" x2="425.791" y2="262.708" gradientUnits="userSpaceOnUse">
<stop stop-color="#D2D9E9"/>
<stop offset="1" stop-color="#989AA7"/>
</linearGradient>
<linearGradient id="paint16_linear_235_17579" x1="360.791" y1="110.467" x2="360.791" y2="116.245" gradientUnits="userSpaceOnUse">
<stop stop-color="#FFFAF1"/>
<stop offset="1" stop-color="#EDE6D8"/>
</linearGradient>
<linearGradient id="paint17_linear_235_17579" x1="360.791" y1="110" x2="360.791" y2="116.708" gradientUnits="userSpaceOnUse">
<stop stop-color="#D2D9E9"/>
<stop offset="1" stop-color="#989AA7"/>
</linearGradient>
<linearGradient id="paint18_linear_235_17579" x1="337.791" y1="58.4668" x2="337.791" y2="64.2447" gradientUnits="userSpaceOnUse">
<stop stop-color="#FFFAF1"/>
<stop offset="1" stop-color="#EDE6D8"/>
</linearGradient>
<linearGradient id="paint19_linear_235_17579" x1="337.791" y1="58" x2="337.791" y2="64.7077" gradientUnits="userSpaceOnUse">
<stop stop-color="#D2D9E9"/>
<stop offset="1" stop-color="#989AA7"/>
</linearGradient>
<linearGradient id="paint20_linear_235_17579" x1="422.791" y1="161.467" x2="422.791" y2="167.245" gradientUnits="userSpaceOnUse">
<stop stop-color="#FFFAF1"/>
<stop offset="1" stop-color="#EDE6D8"/>
</linearGradient>
<linearGradient id="paint21_linear_235_17579" x1="422.791" y1="161" x2="422.791" y2="167.708" gradientUnits="userSpaceOnUse">
<stop stop-color="#D2D9E9"/>
<stop offset="1" stop-color="#989AA7"/>
</linearGradient>
<linearGradient id="paint22_linear_235_17579" x1="264.791" y1="140.467" x2="264.791" y2="146.245" gradientUnits="userSpaceOnUse">
<stop stop-color="#FFFAF1"/>
<stop offset="1" stop-color="#EDE6D8"/>
</linearGradient>
<linearGradient id="paint23_linear_235_17579" x1="264.791" y1="140" x2="264.791" y2="146.708" gradientUnits="userSpaceOnUse">
<stop stop-color="#D2D9E9"/>
<stop offset="1" stop-color="#989AA7"/>
</linearGradient>
<linearGradient id="paint24_linear_235_17579" x1="471.339" y1="40.226" x2="477.907" y2="72.4073" gradientUnits="userSpaceOnUse">
<stop stop-color="#EDE6D8" stop-opacity="0.2"/>
<stop offset="1" stop-color="#EDE6D8"/>
</linearGradient>
<linearGradient id="paint25_linear_235_17579" x1="472.089" y1="76.7278" x2="494.49" y2="63.9208" gradientUnits="userSpaceOnUse">
<stop offset="0.320953" stop-color="#BABCCC"/>
<stop offset="1" stop-color="#989AA7" stop-opacity="0.2"/>
</linearGradient>
<linearGradient id="paint26_linear_235_17579" x1="429.817" y1="122.114" x2="402.925" y2="147.171" gradientUnits="userSpaceOnUse">
<stop stop-color="#EDE6D8" stop-opacity="0.2"/>
<stop offset="1" stop-color="#EDE6D8"/>
</linearGradient>
<linearGradient id="paint27_linear_235_17579" x1="392.19" y1="114.166" x2="409.088" y2="151.673" gradientUnits="userSpaceOnUse">
<stop stop-color="#A5CDB9" stop-opacity="0.2"/>
<stop offset="1" stop-color="#A5CDB9"/>
</linearGradient>
<linearGradient id="paint28_linear_235_17579" x1="264.395" y1="159.543" x2="286.138" y2="183.802" gradientUnits="userSpaceOnUse">
<stop stop-color="#A5CDB9" stop-opacity="0.2"/>
<stop offset="1" stop-color="#A5CDB9"/>
</linearGradient>
<linearGradient id="paint29_linear_235_17579" x1="405.677" y1="156.543" x2="379.189" y2="140.92" gradientUnits="userSpaceOnUse">
<stop stop-color="#ABADBD"/>
<stop offset="1" stop-color="#989AA7" stop-opacity="0.2"/>
</linearGradient>
<linearGradient id="paint30_linear_235_17579" x1="284.732" y1="188.295" x2="260.996" y2="182.851" gradientUnits="userSpaceOnUse">
<stop stop-color="#ABADBD"/>
<stop offset="1" stop-color="#989AA7" stop-opacity="0.2"/>
</linearGradient>
</defs>
</svg>
