<svg width="624" height="319" viewBox="0 0 624 319" fill="none" xmlns="http://www.w3.org/2000/svg">
<path d="M81.1835 168.091C10.2764 104.534 -12.2123 228.217 89.3662 252.191C165.514 256.708 116.028 192.749 149.167 181.238C172.368 179.132 170.209 211.504 180.405 224.791C220.526 254.566 200.191 181.023 201.66 162.397C200.75 137.098 194.349 103.016 165.536 96.8925C109.862 98.441 135.719 164.665 201.55 141.033C231.081 131.765 260.263 147.153 264.786 178.689C270.269 205.179 267.904 241.961 296.323 255.355C309.583 261.138 328.305 254.569 330.996 240.37C329.841 210.856 300.667 188.131 287.304 162.654C244.81 105.095 308.246 85.5046 355.011 108.542C431.546 140.147 539.988 147.99 584.978 50.0245" stroke="#F7F4ED" stroke-linecap="round" stroke-linejoin="round"/>
<path opacity="0.4" d="M282.559 174.959C299.256 223.925 358.069 248.816 358.069 248.816C358.069 248.816 389.812 194.306 373.131 145.339C356.443 96.3634 297.634 71.4912 297.634 71.4912C297.634 71.4912 265.879 125.992 282.559 174.959Z" fill="url(#paint0_linear_122_6203)"/>
<path opacity="0.3" d="M414.536 131.19C361.994 172.36 356.693 254.59 356.693 254.59C356.693 254.59 436.597 270.067 489.149 228.916C541.708 187.753 546.986 105.535 546.986 105.535C546.986 105.535 467.087 90.0386 414.536 131.19Z" fill="url(#paint1_linear_122_6203)"/>
<path opacity="0.4" fill-rule="evenodd" clip-rule="evenodd" d="M258.263 204.441C303.811 233.293 345.822 249.47 345.822 249.47C345.822 249.47 276.874 271.555 231.331 242.711C185.783 213.859 180.858 145 180.858 145C180.858 145 212.709 175.588 258.263 204.441Z" fill="url(#paint2_linear_122_6203)"/>
<path fill-rule="evenodd" clip-rule="evenodd" d="M453.251 119.356C453.251 120.95 451.955 122.244 450.359 122.244C448.761 122.244 447.467 120.95 447.467 119.356C447.467 117.759 448.761 116.466 450.359 116.466C451.955 116.466 453.251 117.759 453.251 119.356Z" fill="url(#paint3_linear_122_6203)"/>
<path fill-rule="evenodd" clip-rule="evenodd" d="M452.787 119.355C452.787 120.002 452.534 120.612 452.076 121.069C451.616 121.529 451.007 121.781 450.359 121.781C449.713 121.781 449.1 121.529 448.641 121.069C448.184 120.612 447.93 120.002 447.93 119.355C447.93 118.017 449.019 116.93 450.357 116.93C451.697 116.928 452.787 118.017 452.787 119.355ZM450.359 116C448.508 116 447 117.502 447 119.353C447 120.25 447.349 121.092 447.985 121.728C448.62 122.359 449.463 122.708 450.359 122.708C451.258 122.708 452.1 122.359 452.735 121.728C453.367 121.092 453.718 120.25 453.718 119.353C453.716 117.504 452.21 116 450.359 116Z" fill="url(#paint4_linear_122_6203)"/>
<path fill-rule="evenodd" clip-rule="evenodd" d="M471.251 78.3555C471.251 79.9499 469.955 81.2442 468.359 81.2442C466.761 81.2442 465.467 79.9499 465.467 78.3555C465.467 76.7585 466.761 75.4663 468.359 75.4663C469.955 75.4663 471.251 76.7585 471.251 78.3555Z" fill="url(#paint5_linear_122_6203)"/>
<path fill-rule="evenodd" clip-rule="evenodd" d="M470.787 78.3552C470.787 79.002 470.534 79.6123 470.076 80.0689C469.616 80.5294 469.007 80.7814 468.359 80.7814C467.713 80.7814 467.1 80.5294 466.641 80.0689C466.184 79.6123 465.93 79.002 465.93 78.3552C465.93 77.0166 467.019 75.9304 468.357 75.9304C469.697 75.9284 470.787 77.0166 470.787 78.3552ZM468.359 75C466.508 75 465 76.5023 465 78.3531C465 79.2505 465.349 80.0921 465.985 80.7276C466.62 81.3592 467.463 81.7077 468.359 81.7077C469.258 81.7077 470.1 81.3592 470.735 80.7276C471.367 80.0921 471.718 79.2505 471.718 78.3531C471.716 76.5042 470.21 75 468.359 75Z" fill="url(#paint6_linear_122_6203)"/>
<path fill-rule="evenodd" clip-rule="evenodd" d="M390.251 99.3555C390.251 100.95 388.955 102.244 387.359 102.244C385.761 102.244 384.467 100.95 384.467 99.3555C384.467 97.7585 385.761 96.4663 387.359 96.4663C388.955 96.4663 390.251 97.7585 390.251 99.3555Z" fill="url(#paint7_linear_122_6203)"/>
<path fill-rule="evenodd" clip-rule="evenodd" d="M389.787 99.3552C389.787 100.002 389.534 100.612 389.076 101.069C388.616 101.529 388.007 101.781 387.359 101.781C386.713 101.781 386.1 101.529 385.641 101.069C385.184 100.612 384.93 100.002 384.93 99.3552C384.93 98.0166 386.019 96.9304 387.357 96.9304C388.697 96.9284 389.787 98.0166 389.787 99.3552ZM387.359 96C385.508 96 384 97.5023 384 99.3531C384 100.25 384.349 101.092 384.985 101.728C385.62 102.359 386.463 102.708 387.359 102.708C388.258 102.708 389.1 102.359 389.735 101.728C390.367 101.092 390.718 100.25 390.718 99.3531C390.716 97.5042 389.21 96 387.359 96Z" fill="url(#paint8_linear_122_6203)"/>
<defs>
<linearGradient id="paint0_linear_122_6203" x1="313.956" y1="84.7254" x2="357.712" y2="243.341" gradientUnits="userSpaceOnUse">
<stop stop-color="#D2D9E9" stop-opacity="0.2"/>
<stop offset="1" stop-color="#D2D9E9"/>
</linearGradient>
<linearGradient id="paint1_linear_122_6203" x1="543.602" y1="115.602" x2="364.389" y2="250.511" gradientUnits="userSpaceOnUse">
<stop stop-color="#A5CDB9" stop-opacity="0.2"/>
<stop offset="1" stop-color="#A5CDB9"/>
</linearGradient>
<linearGradient id="paint2_linear_122_6203" x1="308.148" y1="258.467" x2="184.62" y2="155.62" gradientUnits="userSpaceOnUse">
<stop stop-color="#EDE6D8"/>
<stop offset="1" stop-color="#EDE6D8" stop-opacity="0.3"/>
</linearGradient>
<linearGradient id="paint3_linear_122_6203" x1="450.359" y1="116.466" x2="450.359" y2="122.244" gradientUnits="userSpaceOnUse">
<stop stop-color="#FFFAF1"/>
<stop offset="1" stop-color="#EDE6D8"/>
</linearGradient>
<linearGradient id="paint4_linear_122_6203" x1="450.359" y1="116" x2="450.359" y2="122.708" gradientUnits="userSpaceOnUse">
<stop stop-color="#D2D9E9"/>
<stop offset="1" stop-color="#989AA7"/>
</linearGradient>
<linearGradient id="paint5_linear_122_6203" x1="468.359" y1="75.4663" x2="468.359" y2="81.2442" gradientUnits="userSpaceOnUse">
<stop stop-color="#FFFAF1"/>
<stop offset="1" stop-color="#EDE6D8"/>
</linearGradient>
<linearGradient id="paint6_linear_122_6203" x1="468.359" y1="75" x2="468.359" y2="81.7077" gradientUnits="userSpaceOnUse">
<stop stop-color="#D2D9E9"/>
<stop offset="1" stop-color="#989AA7"/>
</linearGradient>
<linearGradient id="paint7_linear_122_6203" x1="387.359" y1="96.4663" x2="387.359" y2="102.244" gradientUnits="userSpaceOnUse">
<stop stop-color="#FFFAF1"/>
<stop offset="1" stop-color="#EDE6D8"/>
</linearGradient>
<linearGradient id="paint8_linear_122_6203" x1="387.359" y1="96" x2="387.359" y2="102.708" gradientUnits="userSpaceOnUse">
<stop stop-color="#D2D9E9"/>
<stop offset="1" stop-color="#989AA7"/>
</linearGradient>
</defs>
</svg>
