<svg width="24" height="22" viewBox="0 0 24 22" fill="none" xmlns="http://www.w3.org/2000/svg">
<path d="M0.969469 10.0007H23.0305C23.5659 10.0007 24 10.448 24 10.9999C24 11.5517 23.5659 11.999 23.0305 11.999H0.969469C0.434015 11.999 0 11.5517 0 10.9999C0 10.4481 0.434015 10.0007 0.969469 10.0007Z" fill="#989AA7"/>
<path d="M0.969469 0H23.0305C23.5659 0 24 0.447355 24 0.999157C24 1.55096 23.5659 1.99831 23.0305 1.99831H0.969469C0.434015 1.99831 0 1.55096 0 0.999157C0 0.447355 0.434015 0 0.969469 0Z" fill="#989AA7"/>
<path d="M0.969469 20.0017H23.0305C23.5659 20.0017 24 20.449 24 21.0009C24 21.5527 23.5659 22 23.0305 22H0.969469C0.434015 22 0 21.5527 0 21.0009C0 20.449 0.434015 20.0017 0.969469 20.0017Z" fill="#989AA7"/>
</svg>
