<svg width="110" height="110" viewBox="0 0 110 110" fill="none" xmlns="http://www.w3.org/2000/svg">
<mask id="path-1-inside-1_2061_181822" fill="white">
<path d="M110 55C110 85.3757 85.3757 110 55 110C24.6243 110 0 85.3757 0 55C0 24.6243 24.6243 0 55 0C85.3757 0 110 24.6243 110 55ZM7.7 55C7.7 81.1231 28.8769 102.3 55 102.3C81.1231 102.3 102.3 81.1231 102.3 55C102.3 28.8769 81.1231 7.7 55 7.7C28.8769 7.7 7.7 28.8769 7.7 55Z"/>
</mask>
<path d="M110 55C110 85.3757 85.3757 110 55 110C24.6243 110 0 85.3757 0 55C0 24.6243 24.6243 0 55 0C85.3757 0 110 24.6243 110 55ZM7.7 55C7.7 81.1231 28.8769 102.3 55 102.3C81.1231 102.3 102.3 81.1231 102.3 55C102.3 28.8769 81.1231 7.7 55 7.7C28.8769 7.7 7.7 28.8769 7.7 55Z" stroke="#A5CDB9" stroke-opacity="0.1" stroke-width="20" mask="url(#path-1-inside-1_2061_181822)"/>
<mask id="path-2-inside-2_2061_181822" fill="white">
<path d="M105.717 48.3616C107.826 48.0856 109.325 46.1488 108.902 44.065C107.046 34.9144 102.885 26.3643 96.7865 19.2384C89.8516 11.1352 80.7102 5.2231 70.4755 2.22208C60.2408 -0.778935 49.3543 -0.73941 39.1417 2.33585C28.929 5.41111 19.8308 11.3894 12.9549 19.5428C6.07905 27.6962 1.72216 37.6729 0.414773 48.2581C-0.892616 58.8433 0.905906 69.5803 5.59134 79.1616C10.2768 88.743 17.647 96.7553 26.8045 102.223C34.8575 107.031 43.9871 109.689 53.3197 109.974C55.445 110.039 57.1011 108.235 57.0172 106.11C56.9333 103.986 55.1407 102.348 53.0163 102.258C45.1779 101.929 37.5224 99.6543 30.7519 95.6118C22.8764 90.9096 16.538 84.019 12.5086 75.779C8.47908 67.539 6.93235 58.3052 8.05671 49.202C9.18106 40.0987 12.928 31.5187 18.8412 24.5068C24.7545 17.4949 32.5789 12.3536 41.3618 9.70883C50.1447 7.06411 59.5071 7.03012 68.3089 9.61099C77.1108 12.1919 84.9724 17.2763 90.9364 24.2451C96.0637 30.2362 99.5983 37.3978 101.246 45.0682C101.692 47.1471 103.609 48.6376 105.717 48.3616Z"/>
</mask>
<path d="M105.717 48.3616C107.826 48.0856 109.325 46.1488 108.902 44.065C107.046 34.9144 102.885 26.3643 96.7865 19.2384C89.8516 11.1352 80.7102 5.2231 70.4755 2.22208C60.2408 -0.778935 49.3543 -0.73941 39.1417 2.33585C28.929 5.41111 19.8308 11.3894 12.9549 19.5428C6.07905 27.6962 1.72216 37.6729 0.414773 48.2581C-0.892616 58.8433 0.905906 69.5803 5.59134 79.1616C10.2768 88.743 17.647 96.7553 26.8045 102.223C34.8575 107.031 43.9871 109.689 53.3197 109.974C55.445 110.039 57.1011 108.235 57.0172 106.11C56.9333 103.986 55.1407 102.348 53.0163 102.258C45.1779 101.929 37.5224 99.6543 30.7519 95.6118C22.8764 90.9096 16.538 84.019 12.5086 75.779C8.47908 67.539 6.93235 58.3052 8.05671 49.202C9.18106 40.0987 12.928 31.5187 18.8412 24.5068C24.7545 17.4949 32.5789 12.3536 41.3618 9.70883C50.1447 7.06411 59.5071 7.03012 68.3089 9.61099C77.1108 12.1919 84.9724 17.2763 90.9364 24.2451C96.0637 30.2362 99.5983 37.3978 101.246 45.0682C101.692 47.1471 103.609 48.6376 105.717 48.3616Z" stroke="#A5CDB9" stroke-width="20" mask="url(#path-2-inside-2_2061_181822)"/>
</svg>
