<svg width="159" height="160" viewBox="0 0 159 160" fill="none" xmlns="http://www.w3.org/2000/svg">
<mask id="path-1-inside-1_2013_1187" fill="white">
<path d="M153.771 70.3441C156.837 69.9427 159.018 67.1256 158.403 64.0945C155.703 50.7845 149.651 38.3481 140.78 27.9832C130.693 16.1966 117.397 7.59724 102.51 3.23212C87.623 -1.133 71.7881 -1.0755 56.9333 3.3976C42.0785 7.8707 28.8448 16.5664 18.8435 28.4259C8.84226 40.2854 2.50496 54.797 0.603306 70.1936C-1.29835 85.5903 1.31768 101.208 8.13286 115.144C14.948 129.081 25.6683 140.735 38.9883 148.688C50.7018 155.682 63.9812 159.548 77.556 159.963C80.6473 160.057 83.0561 157.433 82.9341 154.342C82.8121 151.252 80.2047 148.869 77.1146 148.74C65.7133 148.261 54.578 144.952 44.73 139.072C33.2747 132.232 24.0553 122.209 18.1943 110.224C12.3332 98.2386 10.0834 84.8076 11.7188 71.5665C13.3543 58.3254 18.8043 45.8454 27.4054 35.6463C36.0065 25.4471 47.3875 17.9688 60.1626 14.1219C72.9378 10.2751 86.5558 10.2256 99.3585 13.9796C112.161 17.7336 123.596 25.1291 132.271 35.2655C139.729 43.9799 144.87 54.3968 147.266 65.5538C147.916 68.5776 150.704 70.7455 153.771 70.3441Z"/>
</mask>
<path d="M153.771 70.3441C156.837 69.9427 159.018 67.1256 158.403 64.0945C155.703 50.7845 149.651 38.3481 140.78 27.9832C130.693 16.1966 117.397 7.59724 102.51 3.23212C87.623 -1.133 71.7881 -1.0755 56.9333 3.3976C42.0785 7.8707 28.8448 16.5664 18.8435 28.4259C8.84226 40.2854 2.50496 54.797 0.603306 70.1936C-1.29835 85.5903 1.31768 101.208 8.13286 115.144C14.948 129.081 25.6683 140.735 38.9883 148.688C50.7018 155.682 63.9812 159.548 77.556 159.963C80.6473 160.057 83.0561 157.433 82.9341 154.342C82.8121 151.252 80.2047 148.869 77.1146 148.74C65.7133 148.261 54.578 144.952 44.73 139.072C33.2747 132.232 24.0553 122.209 18.1943 110.224C12.3332 98.2386 10.0834 84.8076 11.7188 71.5665C13.3543 58.3254 18.8043 45.8454 27.4054 35.6463C36.0065 25.4471 47.3875 17.9688 60.1626 14.1219C72.9378 10.2751 86.5558 10.2256 99.3585 13.9796C112.161 17.7336 123.596 25.1291 132.271 35.2655C139.729 43.9799 144.87 54.3968 147.266 65.5538C147.916 68.5776 150.704 70.7455 153.771 70.3441Z" stroke="#A5CDB9" stroke-width="20" mask="url(#path-1-inside-1_2013_1187)"/>
</svg>
