<svg width="160" height="160" viewBox="0 0 160 160" fill="none" xmlns="http://www.w3.org/2000/svg">
<mask id="path-1-inside-1_2013_1170" fill="white">
<path d="M160 80C160 124.183 124.183 160 80 160C35.8172 160 0 124.183 0 80C0 35.8172 35.8172 0 80 0C124.183 0 160 35.8172 160 80ZM11.2 80C11.2 117.997 42.0028 148.8 80 148.8C117.997 148.8 148.8 117.997 148.8 80C148.8 42.0028 117.997 11.2 80 11.2C42.0028 11.2 11.2 42.0028 11.2 80Z"/>
</mask>
<path d="M160 80C160 124.183 124.183 160 80 160C35.8172 160 0 124.183 0 80C0 35.8172 35.8172 0 80 0C124.183 0 160 35.8172 160 80ZM11.2 80C11.2 117.997 42.0028 148.8 80 148.8C117.997 148.8 148.8 117.997 148.8 80C148.8 42.0028 117.997 11.2 80 11.2C42.0028 11.2 11.2 42.0028 11.2 80Z" stroke="#A5CDB9" stroke-width="20" mask="url(#path-1-inside-1_2013_1170)"/>
</svg>
