<svg width="18" height="18" viewBox="0 0 18 18" fill="none" xmlns="http://www.w3.org/2000/svg">
<path d="M17.7361 0.263918C17.3842 -0.0879728 16.8154 -0.0879728 16.4635 0.263918L9 7.72743L1.53649 0.263918C1.1846 -0.0879728 0.61581 -0.0879728 0.263918 0.263918C-0.0879728 0.61581 -0.0879728 1.1846 0.263918 1.53649L7.72743 9L0.263918 16.4635C-0.0879728 16.8154 -0.0879728 17.3842 0.263918 17.7361C0.439414 17.9116 0.669809 17.9998 0.900203 17.9998C1.1306 17.9998 1.36099 17.9116 1.53649 17.7361L9 10.2726L16.4635 17.7361C16.639 17.9116 16.8694 17.9998 17.0998 17.9998C17.3302 17.9998 17.5606 17.9116 17.7361 17.7361C18.088 17.3842 18.088 16.8154 17.7361 16.4635L10.2726 9L17.7361 1.53649C18.088 1.1846 18.088 0.61581 17.7361 0.263918Z" fill="#6E707F"/>
</svg>
