<svg width="9" height="9" viewBox="0 0 9 9" fill="none" xmlns="http://www.w3.org/2000/svg">
<path fill-rule="evenodd" clip-rule="evenodd" d="M8.06822 4.33103C8.06822 6.38879 6.39571 8.05928 4.33529 8.05928C2.27252 8.05928 0.602539 6.38879 0.602539 4.33103C0.602539 2.26984 2.27252 0.602051 4.33529 0.602051C6.39571 0.602051 8.06822 2.26984 8.06822 4.33103Z" fill="url(#paint0_linear_2092_17497)"/>
<path fill-rule="evenodd" clip-rule="evenodd" d="M7.46875 4.33036C7.46875 5.16516 7.14259 5.95287 6.55077 6.54217C5.95824 7.13652 5.17192 7.46174 4.3354 7.46174C3.50159 7.46174 2.71021 7.13652 2.1184 6.54217C1.52857 5.95287 1.1997 5.16516 1.1997 4.33036C1.1997 2.60269 2.60582 1.20078 4.33305 1.20078C6.06262 1.19826 7.46875 2.60269 7.46875 4.33036ZM4.3354 0C1.94629 0 0 1.93889 0 4.32766C0 5.48587 0.450406 6.57211 1.27158 7.3923C2.09094 8.20743 3.1785 8.6573 4.3354 8.6573C5.49501 8.6573 6.58256 8.20743 7.40193 7.3923C8.21804 6.57211 8.67097 5.48587 8.67097 4.32766C8.66844 1.94142 6.72469 0 4.3354 0Z" fill="url(#paint1_linear_2092_17497)"/>
<defs>
<linearGradient id="paint0_linear_2092_17497" x1="4.33538" y1="0.602051" x2="4.33538" y2="8.05928" gradientUnits="userSpaceOnUse">
<stop stop-color="#FFFAF1"/>
<stop offset="1" stop-color="#EDE6D8"/>
</linearGradient>
<linearGradient id="paint1_linear_2092_17497" x1="4.33549" y1="0" x2="4.33549" y2="8.6573" gradientUnits="userSpaceOnUse">
<stop stop-color="#D2D9E9"/>
<stop offset="1" stop-color="#989AA7"/>
</linearGradient>
</defs>
</svg>
