<svg width="649" height="414" viewBox="0 0 649 414" fill="none" xmlns="http://www.w3.org/2000/svg">
<g opacity="0.3">
<path d="M498.931 261.092C447.963 349.096 325.955 373.993 325.955 373.993C325.955 373.993 286.585 256.179 337.522 168.164C388.477 80.1362 510.471 55.2764 510.471 55.2764C510.471 55.2764 549.869 173.078 498.931 261.092Z" fill="#F4EEE2"/>
<path d="M314.06 168.151C364.988 256.166 325.614 373.993 325.614 373.993C325.614 373.993 203.606 349.096 152.653 261.079C101.713 173.078 141.111 55.2764 141.111 55.2764C141.111 55.2764 263.093 80.1362 314.06 168.151Z" fill="#F4EEE2"/>
<path fill-rule="evenodd" clip-rule="evenodd" d="M310.184 170.393C359.503 255.586 321.751 371.424 321.364 372.572L326.512 369.626C325.281 369.367 205.866 344.068 156.508 258.874C107.188 173.65 156.182 75.5239 156.548 74.3582C157.753 74.6032 260.827 85.1855 310.184 170.393ZM136.848 53.8599C135.228 58.7601 97.3975 174.595 148.78 263.32C200.145 352.074 319.64 377.321 324.709 378.354L328.587 379.145L329.846 375.394C331.479 370.503 369.31 254.669 317.94 165.916C266.558 77.1899 147.079 51.933 141.997 50.9099L138.118 50.1084L136.848 53.8599Z" fill="url(#paint0_radial_2109_54297)"/>
<path fill-rule="evenodd" clip-rule="evenodd" d="M333.186 170.393C280.891 255.586 320.921 371.424 321.332 372.572L315.873 369.626C317.178 369.367 443.8 344.068 496.137 258.874C548.434 173.65 496.482 75.5239 496.094 74.3582C494.817 74.6032 385.522 85.1855 333.186 170.393ZM516.983 53.8599C518.701 58.7601 558.815 174.595 504.331 263.32C449.866 352.074 323.159 377.321 317.784 378.354L313.672 379.145L312.337 375.394C310.606 370.503 270.492 254.669 324.962 165.916C379.446 77.1899 506.135 51.933 511.523 50.9099L515.636 50.1084L516.983 53.8599Z" fill="url(#paint1_radial_2109_54297)"/>
<path d="M418.972 189.969C418.972 291.588 325.777 373.979 325.777 373.979C325.777 373.979 232.6 291.588 232.6 189.969C232.6 88.349 325.777 5.96045 325.777 5.96045C325.777 5.96045 418.972 88.349 418.972 189.969Z" fill="#FBF6EC"/>
<path d="M337.527 168.163C287.184 255.145 325.041 371.161 325.921 373.85C328.906 371.171 418.973 289.921 418.973 189.97C418.973 159.045 410.32 129.904 398.299 104.335C375.099 120.49 353.025 141.39 337.527 168.163Z" fill="#EDE6D8"/>
<path d="M314.055 168.151C298.557 141.377 276.474 120.49 253.26 104.335C241.248 129.891 232.6 159.031 232.6 189.97C232.6 289.885 322.6 371.135 325.662 373.85C326.558 371.108 364.385 255.132 314.055 168.151Z" fill="#EDE6D8"/>
<path d="M325.775 373.401C328.06 366.378 356.887 273.361 325.775 192.796C294.691 273.361 323.495 366.302 325.775 373.401Z" fill="#D7D1C6"/>
<path fill-rule="evenodd" clip-rule="evenodd" d="M414.503 189.972C414.503 288.45 323.75 369.829 322.83 370.631H328.783C327.846 369.829 237.093 288.347 237.093 189.972C237.093 91.4955 324.139 41.7231 325.058 40.8953C325.967 41.7231 414.503 91.5846 414.503 189.972ZM322.83 2.62611C318.965 6.05283 228.133 87.5112 228.133 189.972C228.133 292.42 318.965 373.891 322.83 377.319L325.784 379.944L328.77 377.319C332.621 373.891 423.451 292.42 423.451 189.972C423.451 87.5112 332.607 6.05283 328.77 2.62611L325.784 0L322.83 2.62611Z" fill="url(#paint2_radial_2109_54297)"/>
<path fill-rule="evenodd" clip-rule="evenodd" d="M158.504 296.871C246.741 347.689 326.861 374.074 326.861 374.074C326.861 374.074 201.261 426.247 113.035 375.445C24.7965 324.627 7.29047 190.076 7.29047 190.076C7.29047 190.076 70.2538 246.052 158.504 296.871Z" fill="url(#paint3_linear_2109_54297)"/>
<path fill-rule="evenodd" clip-rule="evenodd" d="M155.518 301.36C222.772 340.099 285.991 364.914 312.106 374.478C279.598 383.863 189.14 404.097 120.048 364.321C50.9743 324.554 22.3465 235.785 13.8774 202.782C35.3296 220.623 88.3906 262.713 155.518 301.36ZM2.10045 191.268C2.85331 196.841 20.9174 328.611 110.037 379.905C199.171 431.24 322.617 380.991 327.829 378.819L338.918 374.227L327.508 370.479C326.714 370.207 246.776 343.6 159.993 293.649C73.1561 243.622 10.1533 187.916 9.51996 187.361L0.568359 179.407L2.10045 191.268Z" fill="url(#paint4_radial_2109_54297)"/>
<path fill-rule="evenodd" clip-rule="evenodd" d="M493.576 296.871C405.339 347.689 325.219 374.074 325.219 374.074C325.219 374.074 450.819 426.247 539.046 375.445C627.284 324.627 644.79 190.076 644.79 190.076C644.79 190.076 581.826 246.052 493.576 296.871Z" fill="url(#paint5_linear_2109_54297)"/>
<path fill-rule="evenodd" clip-rule="evenodd" d="M493.345 301.36C426.091 340.099 362.872 364.914 336.757 374.478C369.266 383.863 459.723 404.097 528.816 364.321C597.889 324.554 626.517 235.785 634.986 202.782C613.534 220.623 560.473 262.713 493.345 301.36ZM646.763 191.268C646.01 196.841 627.946 328.611 538.826 379.905C449.692 431.24 326.246 380.991 321.035 378.819L309.946 374.227L321.355 370.479C322.15 370.207 402.087 343.6 488.87 293.649C575.707 243.622 638.71 187.916 639.343 187.361L648.295 179.407L646.763 191.268Z" fill="url(#paint6_radial_2109_54297)"/>
</g>
<path d="M236.128 149.153C233.688 166.567 240.05 185.148 255.283 197.181C275.798 213.41 304.992 226.592 316.897 251.059C320.888 259.278 323.101 268.438 328.47 275.839C333.611 282.943 341.228 287.802 348.758 292.295C358.292 297.989 368.209 303.474 379.102 305.686C400.628 310.074 418.824 299.051 436.167 288.098C444.324 282.943 447.513 271.973 445.404 262.552C443.295 253.131 436.794 245.208 429.212 239.217C424.959 235.857 420.271 232.931 416.785 228.787C413.299 224.642 411.155 218.826 413.055 213.758C413.979 211.303 415.757 209.266 417.656 207.455C431.617 193.976 453.282 190.964 468.307 177.329C475.4 170.886 483.976 164.495 479.758 154.499C476.655 147.133 466.198 143.093 458.947 145.967C455.409 147.377 451.853 150.059 448.193 148.979C445.09 148.056 443.348 144.521 443.522 141.3C443.696 138.078 445.404 135.135 447.304 132.523C456.332 120.107 468.76 116.92 481.309 109.746C491.209 104.086 501.213 94.9441 507.959 85.8018C515.035 76.2243 519.253 64.3655 518.695 52.4718C518.137 40.5782 512.543 28.7891 502.991 21.6842C488.228 10.6787 465.744 15.0496 450.075 22.0325C432.576 29.8339 417.778 44.0958 410.388 61.8753C407.652 68.4751 405.839 75.4929 402.266 81.6922C399.408 86.6377 395.469 90.9563 390.798 94.2475C386.388 97.3472 380.828 99.5762 375.669 98.0263C370.841 96.581 367.355 91.9141 366.658 86.9511C365.351 77.6696 373.542 71.6967 372.549 62.2061C371.747 54.4744 367.303 47.091 360.941 42.6504C351.477 36.068 338.649 35.4934 327.807 39.4289C314.038 44.4266 303.075 56.4944 299.397 70.6518C297.654 77.4084 297.41 84.7222 294.029 90.8344C287.58 102.467 272.643 105.584 261.105 112.184C246.481 120.542 238.133 134.421 236.076 149.153H236.128Z" fill="url(#paint7_linear_2109_54297)"/>
<path d="M333.315 302.482C325.838 300.706 318.116 300.027 310.447 300.497C302.308 301.002 293.733 303.074 288.103 308.995C286.691 310.492 285.471 312.199 283.798 313.4C279.144 316.726 272.713 315.02 267.065 315.96C261.715 316.848 257.096 320.105 252.041 322.055C245.453 324.58 238.307 324.841 231.44 326.2C225.13 327.436 219.361 330.361 213.574 333.043C203.483 337.727 192.485 344.484 187.413 354.828C183.648 362.49 184.798 370.849 189.068 378.058C195.744 389.359 211.012 392.128 224.084 390.857C237.348 389.568 251.03 384.466 263.876 389.307C275.885 393.835 290.735 397.457 303.58 398.606C313.724 399.512 323.99 398.606 334.064 397.439C352.348 395.332 370.492 390.352 388.758 390.265C409.325 390.178 437.822 390.979 453.491 375.306C462.99 365.816 463.81 353.47 455.217 343.126C451.208 338.302 446.032 334.471 440.559 331.476C437.805 329.978 434.929 328.603 431.966 327.593C428.724 326.496 425.761 324.754 422.467 323.762C418.964 322.699 415.286 322.194 411.626 322.281C404.636 322.456 397.525 324.772 390.763 322.978C387.695 322.16 384.889 320.557 381.821 319.739C377.324 318.537 372.496 319.112 368 317.945C363.573 316.796 359.773 314.027 355.851 311.659C348.88 307.445 341.245 304.345 333.332 302.465L333.315 302.482Z" fill="#989AA7"/>
<path d="M301.418 235.491C300.129 224.729 300.512 212.087 296.19 201.743C288.887 203.815 281.026 202.701 273.706 205.052C265.026 207.838 257.27 213.706 252.633 221.612C248.572 228.543 246.812 236.71 242.176 243.258C239.3 247.315 235.448 250.554 232.066 254.194C223.055 263.893 217.356 276.623 216.119 289.805C215.805 293.166 215.805 296.701 217.391 299.678C221.957 308.263 234.297 303.074 239.753 298.494C245.871 293.375 250.455 285.921 255.805 279.983C257.392 278.225 258.995 276.431 260.982 275.108C262.708 273.958 264.677 273.209 266.49 272.199C272.921 268.63 277.174 262.065 279.998 255.273C280.346 254.437 280.695 253.567 281.322 252.922C282.926 251.251 285.854 251.651 287.614 253.149C291.71 256.597 292.669 265.077 296.922 267.498C298.142 268.194 299.623 268.177 301.035 268.159C301.959 268.159 302.9 268.125 303.824 268.107C303.928 257.224 302.708 246.305 301.418 235.491Z" fill="#A5CDB9"/>
<path d="M343.964 204.39C342.848 203.798 341.698 202.979 340.426 201.83C336.905 198.609 334.656 194.394 333.384 189.849C332.356 186.227 331.99 182.431 332.251 178.687C332.617 173.48 334.186 168.361 336.922 163.903C337.811 162.458 338.822 161.064 339.606 159.549C341.158 156.589 341.262 153.646 341.994 150.494C343.702 143.041 343.493 134.665 342.726 127.108C342.622 125.993 342.465 124.844 341.855 123.903C340.112 121.239 334.761 120.421 332.129 118.401C328.382 115.51 324.094 118.523 319.841 119.567C314.926 120.751 309.889 121.518 304.835 121.814C303.963 121.866 303.057 121.901 302.255 122.266C300.059 123.242 299.466 126.063 299.257 128.448C298.508 136.807 297.95 145.967 300.582 154.029C301.418 156.589 302.604 158.975 303.719 161.413C305.549 165.418 308.042 168.535 309 172.975C311.597 184.939 305.968 199.828 293 202.562C298.612 212.087 301.314 222.953 303.283 233.732C303.876 236.971 307.623 267.985 306.264 268.037C315.031 267.707 323.885 266.627 330.944 261.629C334.569 259.052 337.306 255.343 340.949 252.835C342.238 251.947 343.598 251.303 344.992 250.798C343.232 235.404 342.761 219.923 343.981 204.407L343.964 204.39Z" fill="#EED8AD"/>
<path d="M417.691 276.709C415.477 270.527 413.246 264.276 409.725 258.738C406.048 252.939 401.063 248.081 397.211 242.421C392.679 235.769 389.769 228.072 384.836 221.699C377.707 212.47 365.977 206.27 354.247 205.974C351.023 205.905 348.635 205.957 346.352 205.33C345.219 220.254 345.689 235.177 347.363 250.014C349.35 249.457 351.406 249.021 353.498 248.464C354.404 248.22 355.38 247.976 356.269 248.273C356.949 248.499 357.489 249.004 357.977 249.509C360.452 252.016 362.491 254.959 364.008 258.146C365.559 261.403 366.57 264.955 368.644 267.915C371.485 271.938 375.982 274.393 379.869 277.423C389.054 284.598 402.666 315.037 417.882 308.054C430.344 302.342 420.654 285.138 417.673 276.744L417.691 276.709Z" fill="#A5CDB9"/>
<path d="M282.316 292.66C282.874 294.872 283.432 297.101 283.85 299.347C284.582 303.352 285.68 310.771 281.863 313.505C292.234 316.378 303.929 316.9 314.631 317.161C322.753 317.37 330.875 317.057 338.945 316.239C342.413 315.89 345.916 315.768 349.385 315.333C352.243 314.967 355.224 315.368 357.786 313.888C358.204 313.644 358.605 313.365 358.797 312.93C358.954 312.547 358.901 312.111 358.849 311.711C357.943 305.076 356.914 298.337 357.943 291.72C358.797 286.252 361.01 281.115 362.666 275.856C364.409 270.301 365.542 264.537 366.03 258.738C366.222 256.352 366.309 253.88 365.455 251.651C364.671 249.578 363.154 247.872 361.655 246.235C358.239 242.491 352.731 237.685 351.389 232.6C349.943 227.15 351.093 220.167 352.993 214.995C354.108 211.982 355.294 208.865 357.629 206.671C357.42 206.862 355.991 206.305 354.405 205.626C351.703 205.33 349.019 204.982 346.37 204.337C345.202 204.059 343.895 203.711 342.657 203.223C336.592 209.422 326.343 211.965 318.047 211.512C309.75 211.059 301.628 207.263 296.19 201.029C293.001 202.248 289.689 203.153 286.325 203.589C288.556 205.295 289.95 207.907 290.648 210.624C292.983 219.766 292.425 229.657 288.695 238.347C286.918 242.474 284.199 247.541 280.573 250.345C278.9 251.633 277.366 251.79 276.338 253.862C275.222 256.109 275.275 258.947 275.798 261.333C276.617 264.937 278.447 268.229 279.371 271.798C280.504 276.169 280.225 280.767 280.782 285.259C281.096 287.767 281.689 290.222 282.299 292.66H282.316Z" fill="#A5CDB9"/>
<path d="M315.973 266.696C311.214 272.53 303.929 275.403 297.114 274.149C290.299 272.896 284.129 267.532 281.148 260.271" stroke="#6E707F" stroke-width="0.5" stroke-miterlimit="10"/>
<path d="M327.998 266.696C332.756 272.53 340.042 275.403 346.857 274.149C353.672 272.896 359.842 267.532 362.822 260.271" stroke="#6E707F" stroke-width="0.5" stroke-miterlimit="10"/>
<path d="M224.172 311.607C229.732 316.047 237 319.077 241.793 319.373C252.53 320.035 262.639 314.55 273.254 312.826C278.535 311.972 283.955 312.059 289.184 310.945C293.559 310.022 297.69 308.263 301.786 306.487C305.202 305.024 309.141 304.45 312.348 302.569C313.376 301.959 314.3 301.193 315.206 300.427C318.692 297.519 319.023 291.198 319.529 286.896C320.47 278.921 322.997 270.545 322.265 262.517C322.108 260.706 321.132 258.338 319.355 258.721C318.169 258.982 317.681 260.393 317.385 261.577L313.742 276.796C312.993 279.948 312.208 283.17 310.431 285.886C305.742 293.061 294.814 291.528 287.476 291.319C278.081 291.058 268.704 289.996 259.484 288.15C252.216 286.687 244.931 284.72 237.523 284.929C231.336 285.103 221.087 287.628 217.723 293.601C214.063 300.113 218.089 306.678 224.189 311.572L224.172 311.607Z" fill="#EED8AD"/>
<path d="M416.576 312.111C412.846 314.567 408.384 315.925 403.992 317.022C399.669 318.102 395.207 319.025 390.797 318.363C386.161 317.684 381.961 315.316 377.446 314.097C369.899 312.059 361.795 313.261 354.178 311.45C347.119 309.778 340.74 305.564 333.524 304.798C329.184 304.345 324.304 305.007 320.94 302.22C315.903 298.041 318.831 291.842 318.988 286.531C319.249 277.684 317.96 267.88 320.766 259.348C324.286 262.621 325.437 267.706 325.855 272.495C326.273 277.284 326.169 282.229 327.912 286.722C330.596 293.635 345.864 291.511 351.459 291.372C361.115 291.11 370.754 290.066 380.235 288.202C387.695 286.74 395.155 284.772 402.754 284.981C415.861 285.346 433.726 296.892 419.103 310.161C418.301 310.875 417.465 311.537 416.576 312.111Z" fill="#EED8AD"/>
<path d="M326.745 125.836C332.2 123.416 338.248 122.527 343.494 125.958C344.662 126.724 345.743 127.682 347.05 128.152C350.449 129.371 354.213 126.776 355.712 123.503C357.63 119.341 356.915 114.639 357.368 110.216C357.786 106.019 359.355 101.927 359.634 97.7477C360.07 91.3045 357.926 82.7544 351.704 79.6025C347.259 77.3561 341.821 78.7492 337.307 80.8911C331.241 83.7644 325.856 87.874 321.394 92.8892C314.248 100.917 295.406 110.216 297.184 123.224C297.55 125.906 299.136 128.257 300.722 130.451C301.855 132.018 303.058 133.603 304.748 134.543C308.792 136.772 313.829 134.421 317.472 131.565C320.086 129.51 323.276 127.386 326.71 125.854L326.745 125.836Z" fill="url(#paint8_linear_2109_54297)"/>
<path d="M345.83 141.996C344.209 140.655 341.96 140.969 340.427 142.327C339.119 143.494 338.684 144.904 339.102 146.263C338.736 146.802 338.527 147.412 338.684 148.074C338.718 148.213 338.753 148.37 338.788 148.509C339.015 149.449 339.834 150.216 340.74 150.459C345.429 151.713 350.013 145.444 345.83 141.996Z" fill="#EED8AD"/>
<path d="M303.597 147.151C303.719 145.984 303.475 145.061 303.231 143.912C303.179 143.633 303.057 143.407 302.935 143.215C302.813 142.727 302.586 142.275 302.011 142.014C297.775 139.994 292.459 143.424 294.638 148.335C295.51 150.285 297.479 151.417 299.606 151.208C301.436 151.016 303.074 149.763 303.213 148.004C303.388 147.76 303.545 147.481 303.579 147.151H303.597Z" fill="#EED8AD"/>
<path d="M334.029 168.03C329.706 171.443 324.931 171.948 319.649 171.722C318.865 171.687 318.272 171.617 317.819 171.582C317.209 174.978 316.495 178.356 315.641 181.682C317.174 182.1 318.656 182.779 320.103 183.476C323.885 185.339 327.667 187.185 331.449 189.048C332.059 185.531 331.693 181.926 331.693 178.356C331.693 174.786 332.094 171.06 334.029 168.047V168.03Z" fill="url(#paint9_linear_2109_54297)"/>
<path d="M314.508 370.012C300.442 368.01 286.098 368.741 271.963 367.54C264.416 366.895 257.13 364.771 249.81 362.89C244.041 361.41 235.552 360.209 229.679 361.114C227.727 361.41 225.792 362.002 223.805 361.985C221.818 361.967 219.692 361.184 218.75 359.442C217.792 357.684 218.367 355.402 219.639 353.852C220.912 352.303 222.759 351.362 224.607 350.579C236.389 345.616 250.123 345.685 261.052 339.033C262.167 338.354 263.248 337.605 264.503 337.275C269.226 336.038 275.483 341.558 278.533 344.728C280.538 346.817 283.64 347.34 286.516 347.688C294.76 348.663 303.074 348.924 311.353 348.506C316.042 348.263 314.316 357.44 314.369 360.644C314.369 361.236 314.281 369.978 314.508 370.012Z" fill="#EED8AD"/>
<path d="M436.951 338.441C427.591 338.546 418.702 341.158 409.726 338.023C400.593 334.854 391.181 330.239 381.403 333.53C373.42 336.212 366.083 343.213 357.246 342.62C353.725 342.377 350.448 340.862 347.102 339.747C339.869 337.361 335.773 340.583 329.132 342.882C325.28 344.222 321.254 345.058 317.193 345.389C311.894 345.825 308.199 343.926 307.031 350.282C305.498 358.606 304.347 367.191 302.726 375.602C302.395 377.309 302.064 378.998 301.733 380.704C301.402 382.968 301.053 385.215 300.635 387.461C304.243 388.158 307.851 388.819 311.458 389.446C334.152 393.434 357.019 397.213 380.113 397.683C400.401 398.083 425.291 397.474 443.923 388.767C450.79 385.563 457.117 380.67 460.707 374C462.729 370.221 463.81 366.547 464.054 363.064C465.082 348.976 452.742 338.267 436.968 338.424L436.951 338.441Z" fill="#989AA7"/>
<path d="M351.338 409.141C366.327 407.748 381.456 409.246 396.48 408.689C411.766 408.114 427.784 401.392 442.86 406.39C444.586 406.965 446.346 407.661 448.141 407.383C449.936 407.104 451.644 405.363 451.122 403.639C450.93 403.029 450.512 402.524 450.111 402.037C445.823 396.969 441.692 394.618 435.819 391.675C429.701 389.516 422.956 389.795 417.099 386.747C410.912 383.508 404.498 378.737 397.683 380.322C395.295 380.879 393.169 382.185 390.92 383.177C382.868 386.765 376.715 384.187 368.75 383.804C367.652 383.752 352.976 383.404 352.941 383.7L351.32 409.124L351.338 409.141Z" fill="#EED8AD"/>
<path d="M366.797 404.544C367.982 397.074 371.085 388.21 370.666 380.687C367.808 380.444 364.95 380.2 362.091 379.939C360.383 379.799 358.64 379.625 357.071 378.911C355.119 378.006 353.655 376.316 352.139 374.784C340.513 363.082 324.199 357.318 308.025 359.599C304.103 360.156 300.164 361.027 296.225 360.592C290.648 359.982 284.722 356.935 279.597 354.758C273.166 352.024 266.682 349.43 260.041 347.235C253.976 345.233 247.771 343.491 241.392 343.248C236.79 343.056 232.189 343.648 227.588 344.031C222.08 344.484 216.555 344.606 211.047 344.414C206.446 344.258 201.618 343.248 197.225 345.111C194.193 346.4 191.822 348.89 189.905 351.571C185.426 357.927 183.177 365.938 184.275 373.617C185.373 381.297 189.957 388.541 196.737 392.355C200.816 394.653 205.487 395.681 210.106 396.516C232.677 400.644 255.963 401.932 278.743 405.084C306.927 409.002 335.668 412.676 364.078 413.826C364.496 413.826 364.967 413.826 365.228 413.512C365.385 413.338 365.42 413.077 365.455 412.851C365.891 410.082 366.344 407.296 366.78 404.527L366.797 404.544Z" fill="#989AA7"/>
<path d="M318.518 155.283C319.581 156.223 321.01 156.746 322.422 156.728C323.834 156.728 325.245 156.171 326.309 155.213" stroke="#2F3035" stroke-width="0.75" stroke-miterlimit="10"/>
<path d="M305.307 142.64C307.991 144.469 311.79 144.451 314.457 142.605" stroke="#2F3035" stroke-width="0.75" stroke-miterlimit="10"/>
<path d="M327.145 142.17C327.685 142.937 328.574 143.372 329.48 143.598C331.519 144.103 333.785 143.633 335.424 142.327" stroke="#2F3035" stroke-width="0.75" stroke-miterlimit="10"/>
<path d="M287.092 358.032C289.567 360.47 293.419 360.644 296.87 360.504C306.09 360.156 315.362 358.763 324.495 360.121C334.378 361.584 343.738 366.39 350.709 373.547C351.999 374.888 353.254 376.316 354.875 377.239C356.13 377.953 357.542 378.301 358.954 378.58C362.387 379.259 367.982 380.165 371.485 379.973C370.265 385.128 369.237 389.655 368.627 394.914C368.156 398.954 367.825 403.168 365.856 406.738" stroke="#6E707F" stroke-width="0.5" stroke-miterlimit="10"/>
<path d="M380.758 393.086C381.734 392.407 383.215 392.598 383.982 393.487C384.767 394.392 384.732 395.872 383.913 396.743" stroke="#6E707F" stroke-width="0.5" stroke-miterlimit="10"/>
<path d="M405.073 337.292C398.397 335.934 392.105 332.033 385.325 332.66C375.774 333.531 368.384 343.108 358.798 342.882C352.837 342.743 347.364 338.72 341.42 339.138C337.865 339.382 334.64 341.175 331.346 342.551C324.235 345.511 316.339 346.539 308.705 345.494L305.516 360.139" stroke="#6E707F" stroke-width="0.5" stroke-miterlimit="10"/>
<path d="M452.881 360.749C454.345 361.219 455.513 362.56 455.739 364.092C455.966 365.624 455.269 367.244 453.996 368.132" stroke="#6E707F" stroke-width="0.5" stroke-miterlimit="10"/>
<path d="M194.891 363.482C193.13 364.074 191.701 365.607 191.248 367.418C190.795 369.229 191.335 371.249 192.625 372.59" stroke="#6E707F" stroke-width="0.5" stroke-miterlimit="10"/>
<path d="M419.522 299.992C420.08 301.576 419.54 303.492 418.232 304.554" stroke="#6E707F" stroke-width="0.5" stroke-miterlimit="10"/>
<path d="M223.16 296.648C222.097 298.18 222.498 300.549 224.032 301.628" stroke="#6E707F" stroke-width="0.5" stroke-miterlimit="10"/>
<path d="M342.448 203.85C337.864 208.134 331.729 210.554 325.489 211.321C319.25 212.087 312.905 211.268 306.84 209.666" stroke="#6E707F" stroke-width="0.5" stroke-miterlimit="10"/>
<path d="M319.197 214.995C325.681 214.716 332.113 213.288 338.126 210.815" stroke="#6E707F" stroke-width="0.5" stroke-miterlimit="10"/>
<path d="M366.71 264.328H366.153C365.647 258.877 364.636 253.41 364.131 247.959" stroke="#6E707F" stroke-width="0.5" stroke-miterlimit="10"/>
<path d="M276.721 261.281C277.627 255.447 278.551 249.613 279.457 243.78" stroke="#6E707F" stroke-width="0.5" stroke-miterlimit="10"/>
<path fill-rule="evenodd" clip-rule="evenodd" d="M445.251 78.3555C445.251 79.9499 443.955 81.2442 442.359 81.2442C440.761 81.2442 439.467 79.9499 439.467 78.3555C439.467 76.7585 440.761 75.4663 442.359 75.4663C443.955 75.4663 445.251 76.7585 445.251 78.3555Z" fill="url(#paint10_linear_2109_54297)"/>
<path fill-rule="evenodd" clip-rule="evenodd" d="M444.787 78.3552C444.787 79.002 444.534 79.6123 444.076 80.0689C443.616 80.5294 443.007 80.7814 442.359 80.7814C441.713 80.7814 441.1 80.5294 440.641 80.0689C440.184 79.6123 439.93 79.002 439.93 78.3552C439.93 77.0166 441.019 75.9304 442.357 75.9304C443.697 75.9284 444.787 77.0166 444.787 78.3552ZM442.359 75C440.508 75 439 76.5023 439 78.3531C439 79.2505 439.349 80.0921 439.985 80.7276C440.62 81.3592 441.463 81.7077 442.359 81.7077C443.258 81.7077 444.1 81.3592 444.735 80.7276C445.367 80.0921 445.718 79.2505 445.718 78.3531C445.716 76.5042 444.21 75 442.359 75Z" fill="url(#paint11_linear_2109_54297)"/>
<path fill-rule="evenodd" clip-rule="evenodd" d="M363.251 192.356C363.251 193.95 361.955 195.244 360.359 195.244C358.761 195.244 357.467 193.95 357.467 192.356C357.467 190.759 358.761 189.466 360.359 189.466C361.955 189.466 363.251 190.759 363.251 192.356Z" fill="url(#paint12_linear_2109_54297)"/>
<path fill-rule="evenodd" clip-rule="evenodd" d="M362.787 192.355C362.787 193.002 362.534 193.612 362.076 194.069C361.616 194.529 361.007 194.781 360.359 194.781C359.713 194.781 359.1 194.529 358.641 194.069C358.184 193.612 357.93 193.002 357.93 192.355C357.93 191.017 359.019 189.93 360.357 189.93C361.697 189.928 362.787 191.017 362.787 192.355ZM360.359 189C358.508 189 357 190.502 357 192.353C357 193.25 357.349 194.092 357.985 194.728C358.62 195.359 359.463 195.708 360.359 195.708C361.258 195.708 362.1 195.359 362.735 194.728C363.367 194.092 363.718 193.25 363.718 192.353C363.716 190.504 362.21 189 360.359 189Z" fill="url(#paint13_linear_2109_54297)"/>
<path fill-rule="evenodd" clip-rule="evenodd" d="M429.251 259.356C429.251 260.95 427.955 262.244 426.359 262.244C424.761 262.244 423.467 260.95 423.467 259.356C423.467 257.759 424.761 256.466 426.359 256.466C427.955 256.466 429.251 257.759 429.251 259.356Z" fill="url(#paint14_linear_2109_54297)"/>
<path fill-rule="evenodd" clip-rule="evenodd" d="M428.787 259.355C428.787 260.002 428.534 260.612 428.076 261.069C427.616 261.529 427.007 261.781 426.359 261.781C425.713 261.781 425.1 261.529 424.641 261.069C424.184 260.612 423.93 260.002 423.93 259.355C423.93 258.017 425.019 256.93 426.357 256.93C427.697 256.928 428.787 258.017 428.787 259.355ZM426.359 256C424.508 256 423 257.502 423 259.353C423 260.25 423.349 261.092 423.985 261.728C424.62 262.359 425.463 262.708 426.359 262.708C427.258 262.708 428.1 262.359 428.735 261.728C429.367 261.092 429.718 260.25 429.718 259.353C429.716 257.504 428.21 256 426.359 256Z" fill="url(#paint15_linear_2109_54297)"/>
<path fill-rule="evenodd" clip-rule="evenodd" d="M364.251 113.356C364.251 114.95 362.955 116.244 361.359 116.244C359.761 116.244 358.467 114.95 358.467 113.356C358.467 111.759 359.761 110.466 361.359 110.466C362.955 110.466 364.251 111.759 364.251 113.356Z" fill="url(#paint16_linear_2109_54297)"/>
<path fill-rule="evenodd" clip-rule="evenodd" d="M363.787 113.355C363.787 114.002 363.534 114.612 363.076 115.069C362.616 115.529 362.007 115.781 361.359 115.781C360.713 115.781 360.1 115.529 359.641 115.069C359.184 114.612 358.93 114.002 358.93 113.355C358.93 112.017 360.019 110.93 361.357 110.93C362.697 110.928 363.787 112.017 363.787 113.355ZM361.359 110C359.508 110 358 111.502 358 113.353C358 114.25 358.349 115.092 358.985 115.728C359.62 116.359 360.463 116.708 361.359 116.708C362.258 116.708 363.1 116.359 363.735 115.728C364.367 115.092 364.718 114.25 364.718 113.353C364.716 111.504 363.21 110 361.359 110Z" fill="url(#paint17_linear_2109_54297)"/>
<path fill-rule="evenodd" clip-rule="evenodd" d="M341.251 61.3555C341.251 62.9499 339.955 64.2442 338.359 64.2442C336.761 64.2442 335.467 62.9499 335.467 61.3555C335.467 59.7585 336.761 58.4663 338.359 58.4663C339.955 58.4663 341.251 59.7585 341.251 61.3555Z" fill="url(#paint18_linear_2109_54297)"/>
<path fill-rule="evenodd" clip-rule="evenodd" d="M340.787 61.3552C340.787 62.002 340.534 62.6123 340.076 63.0689C339.616 63.5294 339.007 63.7814 338.359 63.7814C337.713 63.7814 337.1 63.5294 336.641 63.0689C336.184 62.6123 335.93 62.002 335.93 61.3552C335.93 60.0166 337.019 58.9304 338.357 58.9304C339.697 58.9284 340.787 60.0166 340.787 61.3552ZM338.359 58C336.508 58 335 59.5023 335 61.3531C335 62.2505 335.349 63.0921 335.985 63.7276C336.62 64.3592 337.463 64.7077 338.359 64.7077C339.258 64.7077 340.1 64.3592 340.735 63.7276C341.367 63.0921 341.718 62.2505 341.718 61.3531C341.716 59.5042 340.21 58 338.359 58Z" fill="url(#paint19_linear_2109_54297)"/>
<path fill-rule="evenodd" clip-rule="evenodd" d="M426.251 164.356C426.251 165.95 424.955 167.244 423.359 167.244C421.761 167.244 420.467 165.95 420.467 164.356C420.467 162.759 421.761 161.466 423.359 161.466C424.955 161.466 426.251 162.759 426.251 164.356Z" fill="url(#paint20_linear_2109_54297)"/>
<path fill-rule="evenodd" clip-rule="evenodd" d="M425.787 164.355C425.787 165.002 425.534 165.612 425.076 166.069C424.616 166.529 424.007 166.781 423.359 166.781C422.713 166.781 422.1 166.529 421.641 166.069C421.184 165.612 420.93 165.002 420.93 164.355C420.93 163.017 422.019 161.93 423.357 161.93C424.697 161.928 425.787 163.017 425.787 164.355ZM423.359 161C421.508 161 420 162.502 420 164.353C420 165.25 420.349 166.092 420.985 166.728C421.62 167.359 422.463 167.708 423.359 167.708C424.258 167.708 425.1 167.359 425.735 166.728C426.367 166.092 426.718 165.25 426.718 164.353C426.716 162.504 425.21 161 423.359 161Z" fill="url(#paint21_linear_2109_54297)"/>
<path fill-rule="evenodd" clip-rule="evenodd" d="M268.251 143.356C268.251 144.95 266.955 146.244 265.359 146.244C263.761 146.244 262.467 144.95 262.467 143.356C262.467 141.759 263.761 140.466 265.359 140.466C266.955 140.466 268.251 141.759 268.251 143.356Z" fill="url(#paint22_linear_2109_54297)"/>
<path fill-rule="evenodd" clip-rule="evenodd" d="M267.787 143.355C267.787 144.002 267.534 144.612 267.076 145.069C266.616 145.529 266.007 145.781 265.359 145.781C264.713 145.781 264.1 145.529 263.641 145.069C263.184 144.612 262.93 144.002 262.93 143.355C262.93 142.017 264.019 140.93 265.357 140.93C266.697 140.928 267.787 142.017 267.787 143.355ZM265.359 140C263.508 140 262 141.502 262 143.353C262 144.25 262.349 145.092 262.985 145.728C263.62 146.359 264.463 146.708 265.359 146.708C266.258 146.708 267.1 146.359 267.735 145.728C268.367 145.092 268.718 144.25 268.718 143.353C268.716 141.504 267.21 140 265.359 140Z" fill="url(#paint23_linear_2109_54297)"/>
<path opacity="0.35" d="M484.393 59.325C481 69.2735 469.051 74.3309 469.051 74.3309C469.051 74.3309 462.602 63.2558 465.991 53.3068C469.381 43.3562 481.33 38.3028 481.33 38.3028C481.33 38.3028 487.782 49.3761 484.393 59.325Z" fill="url(#paint24_linear_2109_54297)"/>
<path opacity="0.35" fill-rule="evenodd" clip-rule="evenodd" d="M483.421 68.2838C475.938 73.1992 469.043 75.9262 469.043 75.9262C469.043 75.9262 480.33 79.8707 487.812 74.9568C495.295 70.0414 496.145 58.1284 496.145 58.1284C496.145 58.1284 490.905 63.3683 483.421 68.2838Z" fill="url(#paint25_linear_2109_54297)"/>
<path opacity="0.35" d="M406.6 131.406C403.228 142.675 410.831 155.046 410.831 155.046C410.831 155.046 423.902 149.144 427.278 137.877C430.653 126.607 423.048 114.24 423.048 114.24C423.048 114.24 409.975 120.139 406.6 131.406Z" fill="url(#paint26_linear_2109_54297)"/>
<path opacity="0.3" d="M390.335 137.884C395.579 148.945 410.075 153.214 410.075 153.214C410.075 153.214 416.069 139.544 410.83 128.482C405.588 117.418 391.094 113.154 391.094 113.154C391.094 113.154 385.095 126.821 390.335 137.884Z" fill="url(#paint27_linear_2109_54297)"/>
<path opacity="0.3" d="M268.819 178.025C275.427 185.118 287.391 184.865 287.391 184.865C287.391 184.865 288.64 173.112 282.034 166.018C275.427 158.923 263.465 159.179 263.465 159.179C263.465 159.179 262.213 170.932 268.819 178.025Z" fill="url(#paint28_linear_2109_54297)"/>
<path opacity="0.4" fill-rule="evenodd" clip-rule="evenodd" d="M393.554 146.307C402.392 152.285 410.565 155.646 410.565 155.646C410.565 155.646 397.051 160.164 388.214 154.188C379.376 148.21 378.556 134 378.556 134C378.556 134 384.715 140.328 393.554 146.307Z" fill="url(#paint29_linear_2109_54297)"/>
<path opacity="0.4" fill-rule="evenodd" clip-rule="evenodd" d="M273.269 183.611C281.372 186.005 288.346 186.582 288.346 186.582C288.346 186.582 279.229 193.232 271.127 190.839C263.024 188.445 258.999 177.916 258.999 177.916C258.999 177.916 265.164 181.217 273.269 183.611Z" fill="url(#paint30_linear_2109_54297)"/>
<defs>
<radialGradient id="paint0_radial_2109_54297" cx="0" cy="0" r="1" gradientUnits="userSpaceOnUse" gradientTransform="translate(246.043 251.823) rotate(-115.743) scale(201.3 213.802)">
<stop offset="0.49737" stop-color="#989AA7"/>
<stop offset="1" stop-color="#D2D9E9"/>
</radialGradient>
<radialGradient id="paint1_radial_2109_54297" cx="0" cy="0" r="1" gradientUnits="userSpaceOnUse" gradientTransform="translate(401.199 251.823) rotate(-62.9197) scale(203.648 224.092)">
<stop offset="0.49737" stop-color="#989AA7"/>
<stop offset="1" stop-color="#D2D9E9"/>
</radialGradient>
<radialGradient id="paint2_radial_2109_54297" cx="0" cy="0" r="1" gradientUnits="userSpaceOnUse" gradientTransform="translate(333.488 369.346) rotate(2.0424) scale(376.869 375.862)">
<stop stop-color="#989AA7"/>
<stop offset="1" stop-color="#D2D9E9"/>
</radialGradient>
<linearGradient id="paint3_linear_2109_54297" x1="326.858" y1="281.312" x2="7.27823" y2="281.312" gradientUnits="userSpaceOnUse">
<stop stop-color="#EDE6D8"/>
<stop offset="1" stop-color="#FFFAF1"/>
</linearGradient>
<radialGradient id="paint4_radial_2109_54297" cx="0" cy="0" r="1" gradientUnits="userSpaceOnUse" gradientTransform="translate(77.9119 191.383) rotate(58.8653) scale(247.142 373.819)">
<stop stop-color="#D2D9E9"/>
<stop offset="1" stop-color="#989AA7"/>
</radialGradient>
<linearGradient id="paint5_linear_2109_54297" x1="325.223" y1="281.312" x2="644.802" y2="281.312" gradientUnits="userSpaceOnUse">
<stop stop-color="#EDE6D8"/>
<stop offset="1" stop-color="#FFFAF1"/>
</linearGradient>
<radialGradient id="paint6_radial_2109_54297" cx="0" cy="0" r="1" gradientUnits="userSpaceOnUse" gradientTransform="translate(570.951 191.383) rotate(121.135) scale(247.142 373.819)">
<stop stop-color="#D2D9E9"/>
<stop offset="1" stop-color="#989AA7"/>
</radialGradient>
<linearGradient id="paint7_linear_2109_54297" x1="328" y1="270" x2="496" y2="24" gradientUnits="userSpaceOnUse">
<stop stop-color="#6E707F"/>
<stop offset="1" stop-color="#A25775"/>
</linearGradient>
<linearGradient id="paint8_linear_2109_54297" x1="342" y1="135" x2="360" y2="78" gradientUnits="userSpaceOnUse">
<stop stop-color="#6E707F"/>
<stop offset="1" stop-color="#A25775"/>
</linearGradient>
<linearGradient id="paint9_linear_2109_54297" x1="327.998" y1="150.738" x2="324.501" y2="177.956" gradientUnits="userSpaceOnUse">
<stop offset="0.68" stop-color="#6E707F"/>
<stop offset="1" stop-color="#FF8270" stop-opacity="0"/>
</linearGradient>
<linearGradient id="paint10_linear_2109_54297" x1="442.359" y1="75.4663" x2="442.359" y2="81.2442" gradientUnits="userSpaceOnUse">
<stop stop-color="#FFFAF1"/>
<stop offset="1" stop-color="#EDE6D8"/>
</linearGradient>
<linearGradient id="paint11_linear_2109_54297" x1="442.359" y1="75" x2="442.359" y2="81.7077" gradientUnits="userSpaceOnUse">
<stop stop-color="#D2D9E9"/>
<stop offset="1" stop-color="#989AA7"/>
</linearGradient>
<linearGradient id="paint12_linear_2109_54297" x1="360.359" y1="189.466" x2="360.359" y2="195.244" gradientUnits="userSpaceOnUse">
<stop stop-color="#FFFAF1"/>
<stop offset="1" stop-color="#EDE6D8"/>
</linearGradient>
<linearGradient id="paint13_linear_2109_54297" x1="360.359" y1="189" x2="360.359" y2="195.708" gradientUnits="userSpaceOnUse">
<stop stop-color="#D2D9E9"/>
<stop offset="1" stop-color="#989AA7"/>
</linearGradient>
<linearGradient id="paint14_linear_2109_54297" x1="426.359" y1="256.466" x2="426.359" y2="262.244" gradientUnits="userSpaceOnUse">
<stop stop-color="#FFFAF1"/>
<stop offset="1" stop-color="#EDE6D8"/>
</linearGradient>
<linearGradient id="paint15_linear_2109_54297" x1="426.359" y1="256" x2="426.359" y2="262.708" gradientUnits="userSpaceOnUse">
<stop stop-color="#D2D9E9"/>
<stop offset="1" stop-color="#989AA7"/>
</linearGradient>
<linearGradient id="paint16_linear_2109_54297" x1="361.359" y1="110.466" x2="361.359" y2="116.244" gradientUnits="userSpaceOnUse">
<stop stop-color="#FFFAF1"/>
<stop offset="1" stop-color="#EDE6D8"/>
</linearGradient>
<linearGradient id="paint17_linear_2109_54297" x1="361.359" y1="110" x2="361.359" y2="116.708" gradientUnits="userSpaceOnUse">
<stop stop-color="#D2D9E9"/>
<stop offset="1" stop-color="#989AA7"/>
</linearGradient>
<linearGradient id="paint18_linear_2109_54297" x1="338.359" y1="58.4663" x2="338.359" y2="64.2442" gradientUnits="userSpaceOnUse">
<stop stop-color="#FFFAF1"/>
<stop offset="1" stop-color="#EDE6D8"/>
</linearGradient>
<linearGradient id="paint19_linear_2109_54297" x1="338.359" y1="58" x2="338.359" y2="64.7077" gradientUnits="userSpaceOnUse">
<stop stop-color="#D2D9E9"/>
<stop offset="1" stop-color="#989AA7"/>
</linearGradient>
<linearGradient id="paint20_linear_2109_54297" x1="423.359" y1="161.466" x2="423.359" y2="167.244" gradientUnits="userSpaceOnUse">
<stop stop-color="#FFFAF1"/>
<stop offset="1" stop-color="#EDE6D8"/>
</linearGradient>
<linearGradient id="paint21_linear_2109_54297" x1="423.359" y1="161" x2="423.359" y2="167.708" gradientUnits="userSpaceOnUse">
<stop stop-color="#D2D9E9"/>
<stop offset="1" stop-color="#989AA7"/>
</linearGradient>
<linearGradient id="paint22_linear_2109_54297" x1="265.359" y1="140.466" x2="265.359" y2="146.244" gradientUnits="userSpaceOnUse">
<stop stop-color="#FFFAF1"/>
<stop offset="1" stop-color="#EDE6D8"/>
</linearGradient>
<linearGradient id="paint23_linear_2109_54297" x1="265.359" y1="140" x2="265.359" y2="146.708" gradientUnits="userSpaceOnUse">
<stop stop-color="#D2D9E9"/>
<stop offset="1" stop-color="#989AA7"/>
</linearGradient>
<linearGradient id="paint24_linear_2109_54297" x1="471.907" y1="40.226" x2="478.475" y2="72.4073" gradientUnits="userSpaceOnUse">
<stop stop-color="#EDE6D8" stop-opacity="0.2"/>
<stop offset="1" stop-color="#EDE6D8"/>
</linearGradient>
<linearGradient id="paint25_linear_2109_54297" x1="472.658" y1="76.7273" x2="495.058" y2="63.9203" gradientUnits="userSpaceOnUse">
<stop offset="0.320953" stop-color="#BABCCC"/>
<stop offset="1" stop-color="#989AA7" stop-opacity="0.2"/>
</linearGradient>
<linearGradient id="paint26_linear_2109_54297" x1="430.385" y1="122.114" x2="403.493" y2="147.171" gradientUnits="userSpaceOnUse">
<stop stop-color="#EDE6D8" stop-opacity="0.2"/>
<stop offset="1" stop-color="#EDE6D8"/>
</linearGradient>
<linearGradient id="paint27_linear_2109_54297" x1="392.758" y1="114.166" x2="409.656" y2="151.672" gradientUnits="userSpaceOnUse">
<stop stop-color="#A5CDB9" stop-opacity="0.2"/>
<stop offset="1" stop-color="#A5CDB9"/>
</linearGradient>
<linearGradient id="paint28_linear_2109_54297" x1="264.963" y1="159.543" x2="286.706" y2="183.802" gradientUnits="userSpaceOnUse">
<stop stop-color="#A5CDB9" stop-opacity="0.2"/>
<stop offset="1" stop-color="#A5CDB9"/>
</linearGradient>
<linearGradient id="paint29_linear_2109_54297" x1="406.245" y1="156.542" x2="379.757" y2="140.919" gradientUnits="userSpaceOnUse">
<stop stop-color="#ABADBD"/>
<stop offset="1" stop-color="#989AA7" stop-opacity="0.2"/>
</linearGradient>
<linearGradient id="paint30_linear_2109_54297" x1="285.3" y1="188.295" x2="261.564" y2="182.851" gradientUnits="userSpaceOnUse">
<stop stop-color="#ABADBD"/>
<stop offset="1" stop-color="#989AA7" stop-opacity="0.2"/>
</linearGradient>
</defs>
</svg>
