<svg width="617" height="474" viewBox="0 0 617 474" fill="none" xmlns="http://www.w3.org/2000/svg">
<path d="M257.091 578.358C280.776 586.893 308.919 594.937 329.49 580.61C344.38 570.224 350.346 550.197 347.871 532.149C345.396 514.101 335.766 497.77 324.683 483.253C279.749 424.335 208.444 386.585 174.298 320.867C170.151 312.866 166.554 304.316 166.321 295.362C166.089 286.407 169.825 276.885 177.495 272.305C189.49 265.132 205.357 272.453 214.974 282.681C226.966 295.474 233.898 313.282 232.208 330.674C230.518 348.066 219.64 364.605 203.72 371.792C189.325 378.283 172.238 376.865 157.54 370.874C142.842 364.883 130.249 354.754 118.671 343.878C103.179 329.344 88.5193 311.921 85.589 290.949C81.7244 263.305 100.674 235.843 126.052 224.324C151.43 212.805 181.455 215.168 207.753 224.735C234.03 234.327 257.313 250.559 280.094 266.832C295.223 277.631 314.419 289.002 331.066 280.909C340.413 276.356 346.255 266.207 347.535 255.87C348.814 245.533 346.062 235.034 341.85 225.455C335.601 211.357 325.537 198.296 311.53 191.79C297.523 185.285 279.304 186.757 268.699 197.858C258.094 208.96 297.887 264.999 404.916 234.584C511.944 204.169 526.448 265.076 481.303 273.617C436.158 282.158 430.838 332.755 448.987 343.878" stroke="#EDE6D8" stroke-linecap="round" stroke-linejoin="round"/>
<path opacity="0.35" d="M352.973 304.194C331.785 366.33 257.152 397.918 257.152 397.918C257.152 397.918 216.87 328.745 238.038 266.605C259.215 204.455 333.843 172.893 333.843 172.893C333.843 172.893 374.141 242.054 352.973 304.194Z" fill="url(#paint0_linear_183_20651)"/>
<path opacity="0.3" d="M219.527 312.595C247.65 355.457 231.312 416.596 231.312 416.596C231.312 416.596 169.367 408.234 141.232 365.384C113.096 322.522 129.447 261.398 129.447 261.398C129.447 261.398 191.393 269.744 219.527 312.595Z" fill="url(#paint1_linear_183_20651)"/>
<path opacity="0.25" fill-rule="evenodd" clip-rule="evenodd" d="M328.954 355.149C288.028 398.408 247.559 426.601 247.559 426.601C247.559 426.601 326.655 434.882 367.579 391.634C408.506 348.375 395.793 269.96 395.793 269.96C395.793 269.96 369.888 311.888 328.954 355.149Z" fill="url(#paint2_linear_183_20651)"/>
<path fill-rule="evenodd" clip-rule="evenodd" d="M269.251 159.356C269.251 160.95 267.955 162.245 266.359 162.245C264.761 162.245 263.467 160.95 263.467 159.356C263.467 157.759 264.761 156.467 266.359 156.467C267.955 156.467 269.251 157.759 269.251 159.356Z" fill="url(#paint3_linear_183_20651)"/>
<path fill-rule="evenodd" clip-rule="evenodd" d="M268.787 159.356C268.787 160.002 268.534 160.613 268.076 161.069C267.616 161.53 267.007 161.782 266.359 161.782C265.713 161.782 265.1 161.53 264.641 161.069C264.184 160.613 263.93 160.002 263.93 159.356C263.93 158.017 265.019 156.931 266.357 156.931C267.697 156.929 268.787 158.017 268.787 159.356ZM266.359 156C264.508 156 263 157.503 263 159.354C263 160.251 263.349 161.093 263.985 161.728C264.62 162.36 265.463 162.708 266.359 162.708C267.258 162.708 268.1 162.36 268.735 161.728C269.367 161.093 269.718 160.251 269.718 159.354C269.716 157.505 268.21 156 266.359 156Z" fill="url(#paint4_linear_183_20651)"/>
<path fill-rule="evenodd" clip-rule="evenodd" d="M196.251 216.356C196.251 217.95 194.955 219.245 193.359 219.245C191.761 219.245 190.467 217.95 190.467 216.356C190.467 214.759 191.761 213.467 193.359 213.467C194.955 213.467 196.251 214.759 196.251 216.356Z" fill="url(#paint5_linear_183_20651)"/>
<path fill-rule="evenodd" clip-rule="evenodd" d="M195.787 216.356C195.787 217.002 195.534 217.613 195.076 218.069C194.616 218.53 194.007 218.782 193.359 218.782C192.713 218.782 192.1 218.53 191.641 218.069C191.184 217.613 190.93 217.002 190.93 216.356C190.93 215.017 192.019 213.931 193.357 213.931C194.697 213.929 195.787 215.017 195.787 216.356ZM193.359 213C191.508 213 190 214.503 190 216.354C190 217.251 190.349 218.093 190.985 218.728C191.62 219.36 192.463 219.708 193.359 219.708C194.258 219.708 195.1 219.36 195.735 218.728C196.367 218.093 196.718 217.251 196.718 216.354C196.716 214.505 195.21 213 193.359 213Z" fill="url(#paint6_linear_183_20651)"/>
<path fill-rule="evenodd" clip-rule="evenodd" d="M251.251 276.356C251.251 277.95 249.955 279.245 248.359 279.245C246.761 279.245 245.467 277.95 245.467 276.356C245.467 274.759 246.761 273.467 248.359 273.467C249.955 273.467 251.251 274.759 251.251 276.356Z" fill="url(#paint7_linear_183_20651)"/>
<path fill-rule="evenodd" clip-rule="evenodd" d="M250.787 276.356C250.787 277.002 250.534 277.613 250.076 278.069C249.616 278.53 249.007 278.782 248.359 278.782C247.713 278.782 247.1 278.53 246.641 278.069C246.184 277.613 245.93 277.002 245.93 276.356C245.93 275.017 247.019 273.931 248.357 273.931C249.697 273.929 250.787 275.017 250.787 276.356ZM248.359 273C246.508 273 245 274.503 245 276.354C245 277.251 245.349 278.093 245.985 278.728C246.62 279.36 247.463 279.708 248.359 279.708C249.258 279.708 250.1 279.36 250.735 278.728C251.367 278.093 251.718 277.251 251.718 276.354C251.716 274.505 250.21 273 248.359 273Z" fill="url(#paint8_linear_183_20651)"/>
<defs>
<linearGradient id="paint0_linear_183_20651" x1="274.991" y1="184.904" x2="316.015" y2="385.904" gradientUnits="userSpaceOnUse">
<stop stop-color="#EDE6D8" stop-opacity="0.2"/>
<stop offset="1" stop-color="#EDE6D8"/>
</linearGradient>
<linearGradient id="paint1_linear_183_20651" x1="129.437" y1="269.555" x2="226.714" y2="411.737" gradientUnits="userSpaceOnUse">
<stop stop-color="#A5CDB9" stop-opacity="0.2"/>
<stop offset="1" stop-color="#A5CDB9"/>
</linearGradient>
<linearGradient id="paint2_linear_183_20651" x1="272.185" y1="426.261" x2="397.616" y2="309.113" gradientUnits="userSpaceOnUse">
<stop stop-color="#989AA7"/>
<stop offset="1" stop-color="#989AA7" stop-opacity="0.2"/>
</linearGradient>
<linearGradient id="paint3_linear_183_20651" x1="266.359" y1="156.467" x2="266.359" y2="162.245" gradientUnits="userSpaceOnUse">
<stop stop-color="#FFFAF1"/>
<stop offset="1" stop-color="#EDE6D8"/>
</linearGradient>
<linearGradient id="paint4_linear_183_20651" x1="266.359" y1="156" x2="266.359" y2="162.708" gradientUnits="userSpaceOnUse">
<stop stop-color="#D2D9E9"/>
<stop offset="1" stop-color="#989AA7"/>
</linearGradient>
<linearGradient id="paint5_linear_183_20651" x1="193.359" y1="213.467" x2="193.359" y2="219.245" gradientUnits="userSpaceOnUse">
<stop stop-color="#FFFAF1"/>
<stop offset="1" stop-color="#EDE6D8"/>
</linearGradient>
<linearGradient id="paint6_linear_183_20651" x1="193.359" y1="213" x2="193.359" y2="219.708" gradientUnits="userSpaceOnUse">
<stop stop-color="#D2D9E9"/>
<stop offset="1" stop-color="#989AA7"/>
</linearGradient>
<linearGradient id="paint7_linear_183_20651" x1="248.359" y1="273.467" x2="248.359" y2="279.245" gradientUnits="userSpaceOnUse">
<stop stop-color="#FFFAF1"/>
<stop offset="1" stop-color="#EDE6D8"/>
</linearGradient>
<linearGradient id="paint8_linear_183_20651" x1="248.359" y1="273" x2="248.359" y2="279.708" gradientUnits="userSpaceOnUse">
<stop stop-color="#D2D9E9"/>
<stop offset="1" stop-color="#989AA7"/>
</linearGradient>
</defs>
</svg>
