<svg width="667" height="353" viewBox="0 0 667 353" fill="none" xmlns="http://www.w3.org/2000/svg">
<path d="M16.1731 63.4926C36.3805 65.6782 56.9894 72.5128 70.7627 87.4652C84.536 102.418 89.2236 126.764 77.6004 143.416C71.9832 151.45 62.1177 157.202 52.4706 155.477C42.8235 153.752 35.1633 142.671 39.0055 133.672C41.8841 126.904 49.4543 123.608 56.5034 121.555C98.0681 109.332 143.567 118.873 182.385 138.088C221.204 157.303 254.685 185.586 288.21 213.04C321.744 240.462 356.324 267.678 396.391 284.188C411.348 290.345 427.393 295.011 443.501 293.626C459.618 292.209 475.817 283.764 483.047 269.311C490.278 254.858 485.732 234.52 471.309 227.193C456.886 219.866 435.808 231.414 436.833 247.551C437.736 261.336 451.55 270.196 464.209 275.72C503.217 292.712 548.186 299.741 588.54 286.199C628.895 272.658 662.616 235.508 663.953 192.971" stroke="#F7F4ED" stroke-linecap="round" stroke-linejoin="round"/>
<path opacity="0.7" d="M254.075 167.952C236.744 196.513 196.196 204.043 196.196 204.043C196.196 204.043 183.748 165.257 201.069 136.692C218.396 108.123 258.939 100.606 258.939 100.606C258.939 100.606 271.396 139.388 254.075 167.952Z" fill="url(#paint0_linear_100_5355)"/>
<path opacity="0.7" d="M217.699 109.131C229.454 155.342 196.573 204.165 196.573 204.165C196.573 204.165 144.626 178.055 132.857 131.85C121.09 85.6353 153.978 36.8293 153.978 36.8293C153.978 36.8293 205.931 62.9262 217.699 109.131Z" fill="url(#paint1_linear_100_5355)"/>
<path opacity="0.2" fill-rule="evenodd" clip-rule="evenodd" d="M125.472 163.181C157.516 190.135 188.038 206.602 188.038 206.602C188.038 206.602 133.441 218.699 101.4 191.751C69.3558 164.797 71.9799 109 71.9799 109C71.9799 109 93.4229 136.225 125.472 163.181Z" fill="url(#paint2_linear_100_5355)"/>
<path fill-rule="evenodd" clip-rule="evenodd" d="M123.251 134.356C123.251 135.95 121.955 137.244 120.359 137.244C118.761 137.244 117.467 135.95 117.467 134.356C117.467 132.759 118.761 131.466 120.359 131.466C121.955 131.466 123.251 132.759 123.251 134.356Z" fill="url(#paint3_linear_100_5355)"/>
<path fill-rule="evenodd" clip-rule="evenodd" d="M122.787 134.355C122.787 135.002 122.534 135.612 122.076 136.069C121.616 136.529 121.007 136.781 120.359 136.781C119.713 136.781 119.1 136.529 118.641 136.069C118.184 135.612 117.93 135.002 117.93 134.355C117.93 133.017 119.019 131.93 120.357 131.93C121.697 131.928 122.787 133.017 122.787 134.355ZM120.359 131C118.508 131 117 132.502 117 134.353C117 135.25 117.349 136.092 117.985 136.728C118.62 137.359 119.463 137.708 120.359 137.708C121.258 137.708 122.1 137.359 122.735 136.728C123.367 136.092 123.718 135.25 123.718 134.353C123.716 132.504 122.21 131 120.359 131Z" fill="url(#paint4_linear_100_5355)"/>
<path fill-rule="evenodd" clip-rule="evenodd" d="M90.2513 112.356C90.2513 113.95 88.9554 115.244 87.359 115.244C85.7607 115.244 84.4668 113.95 84.4668 112.356C84.4668 110.759 85.7607 109.466 87.359 109.466C88.9554 109.466 90.2513 110.759 90.2513 112.356Z" fill="url(#paint5_linear_100_5355)"/>
<path fill-rule="evenodd" clip-rule="evenodd" d="M89.7868 112.355C89.7868 113.002 89.5341 113.612 89.0756 114.069C88.6165 114.529 88.0072 114.781 87.3591 114.781C86.7131 114.781 86.0999 114.529 85.6413 114.069C85.1843 113.612 84.9295 113.002 84.9295 112.355C84.9295 111.017 86.019 109.93 87.3573 109.93C88.6974 109.928 89.7868 111.017 89.7868 112.355ZM87.3591 109C85.508 109 84 110.502 84 112.353C84 113.25 84.349 114.092 84.9852 114.728C85.6201 115.359 86.4627 115.708 87.3591 115.708C88.2576 115.708 89.1002 115.359 89.7351 114.728C90.3674 114.092 90.7183 113.25 90.7183 112.353C90.7164 110.504 89.2103 109 87.3591 109Z" fill="url(#paint6_linear_100_5355)"/>
<path fill-rule="evenodd" clip-rule="evenodd" d="M41.2513 146.356C41.2513 147.95 39.9554 149.244 38.359 149.244C36.7607 149.244 35.4668 147.95 35.4668 146.356C35.4668 144.759 36.7607 143.466 38.359 143.466C39.9554 143.466 41.2513 144.759 41.2513 146.356Z" fill="url(#paint7_linear_100_5355)"/>
<path fill-rule="evenodd" clip-rule="evenodd" d="M40.7868 146.355C40.7868 147.002 40.5341 147.612 40.0756 148.069C39.6165 148.529 39.0072 148.781 38.3591 148.781C37.7131 148.781 37.0999 148.529 36.6413 148.069C36.1843 147.612 35.9295 147.002 35.9295 146.355C35.9295 145.017 37.019 143.93 38.3573 143.93C39.6974 143.928 40.7868 145.017 40.7868 146.355ZM38.3591 143C36.508 143 35 144.502 35 146.353C35 147.25 35.349 148.092 35.9852 148.728C36.6201 149.359 37.4627 149.708 38.3591 149.708C39.2576 149.708 40.1002 149.359 40.7351 148.728C41.3674 148.092 41.7183 147.25 41.7183 146.353C41.7164 144.504 40.2103 143 38.3591 143Z" fill="url(#paint8_linear_100_5355)"/>
<defs>
<linearGradient id="paint0_linear_100_5355" x1="226.765" y1="204.515" x2="257.1" y2="100.553" gradientUnits="userSpaceOnUse">
<stop stop-color="#EDE6D8" stop-opacity="0.6"/>
<stop offset="1" stop-color="#EDE6D8" stop-opacity="0.1"/>
</linearGradient>
<linearGradient id="paint1_linear_100_5355" x1="201.651" y1="199.152" x2="151.042" y2="39.7287" gradientUnits="userSpaceOnUse">
<stop stop-color="#F0F0F2"/>
<stop offset="1" stop-color="#F0F0F2" stop-opacity="0.4"/>
</linearGradient>
<linearGradient id="paint2_linear_100_5355" x1="142.202" y1="203.745" x2="69.3669" y2="109.705" gradientUnits="userSpaceOnUse">
<stop stop-color="#A5CDB9"/>
<stop offset="1" stop-color="#A5CDB9" stop-opacity="0.3"/>
</linearGradient>
<linearGradient id="paint3_linear_100_5355" x1="120.359" y1="131.466" x2="120.359" y2="137.244" gradientUnits="userSpaceOnUse">
<stop stop-color="#FFFAF1"/>
<stop offset="1" stop-color="#EDE6D8"/>
</linearGradient>
<linearGradient id="paint4_linear_100_5355" x1="120.359" y1="131" x2="120.359" y2="137.708" gradientUnits="userSpaceOnUse">
<stop stop-color="#D2D9E9"/>
<stop offset="1" stop-color="#989AA7"/>
</linearGradient>
<linearGradient id="paint5_linear_100_5355" x1="87.359" y1="109.466" x2="87.359" y2="115.244" gradientUnits="userSpaceOnUse">
<stop stop-color="#FFFAF1"/>
<stop offset="1" stop-color="#EDE6D8"/>
</linearGradient>
<linearGradient id="paint6_linear_100_5355" x1="87.3592" y1="109" x2="87.3592" y2="115.708" gradientUnits="userSpaceOnUse">
<stop stop-color="#D2D9E9"/>
<stop offset="1" stop-color="#989AA7"/>
</linearGradient>
<linearGradient id="paint7_linear_100_5355" x1="38.359" y1="143.466" x2="38.359" y2="149.244" gradientUnits="userSpaceOnUse">
<stop stop-color="#FFFAF1"/>
<stop offset="1" stop-color="#EDE6D8"/>
</linearGradient>
<linearGradient id="paint8_linear_100_5355" x1="38.3592" y1="143" x2="38.3592" y2="149.708" gradientUnits="userSpaceOnUse">
<stop stop-color="#D2D9E9"/>
<stop offset="1" stop-color="#989AA7"/>
</linearGradient>
</defs>
</svg>
