<svg width="521" height="499" viewBox="0 0 521 499" fill="none" xmlns="http://www.w3.org/2000/svg">
<path opacity="0.4" d="M450.957 311.138C465.036 315.844 480.915 322.154 484.34 333.688C486.813 342.042 481.38 350.825 472.961 356.21C464.543 361.595 453.611 364.087 442.762 365.49C398.751 371.199 351.484 361.162 309.558 372.675C304.459 374.08 299.384 375.85 295.653 378.843C291.923 381.835 289.743 386.301 291.328 390.34C293.803 396.661 303.884 399.264 312.339 398.858C322.898 398.339 333.218 394.472 339.503 387.97C345.787 381.467 347.605 372.298 343.375 364.708C339.548 357.847 331.31 352.829 322.292 350.147C313.273 347.464 303.524 346.878 293.927 346.874C281.094 346.862 267.464 348.108 257.657 354.349C244.73 362.574 242.109 378.085 248.827 390.206C255.545 402.327 269.968 411.189 285.637 416.383C301.306 421.561 318.322 423.5 335.128 425.264C346.287 426.438 359.501 428.727 363.69 436.861C366.039 441.432 364.549 446.79 360.937 450.744C357.326 454.697 351.84 457.407 346.072 459.331C337.56 462.148 327.758 463.38 318.841 461.097C309.925 458.813 302.349 452.44 302.088 445.221C301.827 438.002 310.581 431.083 319.791 432.407C355.694 437.559 302.409 481.915 290.782 488.037C271.577 498.166 248.463 503.48 225.128 504.991C215.409 505.62 204.491 505.29 197.322 500.041" stroke="#989AA7" stroke-linecap="round" stroke-linejoin="round"/>
<path opacity="0.4" d="M265.09 469.262C187.607 492.262 141.77 454.72 148.591 426.263C151.709 404.286 185.091 382.489 195.091 406.263C205.091 430.037 174.591 457.763 144.091 456.763C113.591 455.763 111.592 437.178 114.092 420.262C116.592 403.347 145.592 386.762 143.092 399.262C140.592 411.762 35.5917 386.263 36.5917 438.762C37.5917 491.262 78.0907 412.111 88.0907 392.762C98.0907 373.413 113.206 338.763 136.108 329.263C159.01 319.763 182.674 342.762 164.092 359.262C145.509 375.762 34.0903 387.763 22.0909 365.762C10.0915 343.761 83.9671 339.763 65.0913 316.263C46.2155 292.763 90.8114 246.762 74.092 239.762C57.3725 232.762 50.8802 262.607 67.5919 268.262C91.7732 267.845 99.8759 241.373 81 214C62.1241 186.627 -13.8377 102.915 28.1297 80.9367C50.9791 74.682 54.4212 107.781 30.3363 105.002" stroke="#989AA7" stroke-linecap="round" stroke-linejoin="round"/>
<path opacity="0.4" d="M345.45 383.687C325.203 430.717 265.254 450.751 265.254 450.751C265.254 450.751 238.129 394.519 258.359 347.485C278.597 300.443 338.542 280.429 338.542 280.429C338.542 280.429 365.68 336.653 345.45 383.687Z" fill="url(#paint0_linear_2060_129345)"/>
<path opacity="0.5" d="M178.719 363.735C198.244 420.992 267.016 450.1 267.016 450.1C267.016 450.1 304.135 386.358 284.63 329.098C265.116 271.828 196.347 242.744 196.347 242.744C196.347 242.744 159.214 306.475 178.719 363.735Z" fill="url(#paint1_linear_2060_129345)"/>
<path opacity="0.3" fill-rule="evenodd" clip-rule="evenodd" d="M165.704 408.844C218.547 438.448 266.381 453.563 266.381 453.563C266.381 453.563 192.09 485.564 139.254 455.97C86.4105 426.366 74.9999 346.376 74.9999 346.376C74.9999 346.376 112.854 379.239 165.704 408.844Z" fill="url(#paint2_linear_2060_129345)"/>
<path fill-rule="evenodd" clip-rule="evenodd" d="M87.467 365.356C87.467 366.95 88.7629 368.244 90.3593 368.244C91.9576 368.244 93.2515 366.95 93.2515 365.356C93.2515 363.759 91.9576 362.466 90.3593 362.466C88.7629 362.466 87.467 363.759 87.467 365.356Z" fill="url(#paint3_linear_2060_129345)"/>
<path fill-rule="evenodd" clip-rule="evenodd" d="M87.9314 365.355C87.9314 366.002 88.1841 366.612 88.6427 367.069C89.1018 367.529 89.711 367.781 90.3592 367.781C91.0052 367.781 91.6184 367.529 92.0769 367.069C92.5339 366.612 92.7887 366.002 92.7887 365.355C92.7887 364.017 91.6992 362.93 90.361 362.93C89.0209 362.928 87.9314 364.017 87.9314 365.355ZM90.3592 362C92.2103 362 93.7183 363.502 93.7183 365.353C93.7183 366.25 93.3693 367.092 92.733 367.728C92.0982 368.359 91.2555 368.708 90.3592 368.708C89.4607 368.708 88.618 368.359 87.9832 367.728C87.3509 367.092 86.9999 366.25 86.9999 365.353C87.0019 363.504 88.5079 362 90.3592 362Z" fill="url(#paint4_linear_2060_129345)"/>
<path fill-rule="evenodd" clip-rule="evenodd" d="M25.467 342.356C25.467 343.95 26.7629 345.244 28.3593 345.244C29.9576 345.244 31.2515 343.95 31.2515 342.356C31.2515 340.759 29.9576 339.466 28.3593 339.466C26.7629 339.466 25.467 340.759 25.467 342.356Z" fill="url(#paint5_linear_2060_129345)"/>
<path fill-rule="evenodd" clip-rule="evenodd" d="M25.9314 342.355C25.9314 343.002 26.1841 343.612 26.6427 344.069C27.1018 344.529 27.711 344.781 28.3592 344.781C29.0052 344.781 29.6184 344.529 30.0769 344.069C30.5339 343.612 30.7887 343.002 30.7887 342.355C30.7887 341.017 29.6992 339.93 28.361 339.93C27.0209 339.928 25.9314 341.017 25.9314 342.355ZM28.3592 339C30.2103 339 31.7183 340.502 31.7183 342.353C31.7183 343.25 31.3693 344.092 30.733 344.728C30.0982 345.359 29.2555 345.708 28.3592 345.708C27.4607 345.708 26.618 345.359 25.9832 344.728C25.3509 344.092 24.9999 343.25 24.9999 342.353C25.0019 340.504 26.5079 339 28.3592 339Z" fill="url(#paint6_linear_2060_129345)"/>
<path fill-rule="evenodd" clip-rule="evenodd" d="M47.467 389.356C47.467 390.95 48.7629 392.244 50.3593 392.244C51.9576 392.244 53.2515 390.95 53.2515 389.356C53.2515 387.759 51.9576 386.466 50.3593 386.466C48.7629 386.466 47.467 387.759 47.467 389.356Z" fill="url(#paint7_linear_2060_129345)"/>
<path fill-rule="evenodd" clip-rule="evenodd" d="M47.9314 389.355C47.9314 390.002 48.1841 390.612 48.6427 391.069C49.1018 391.529 49.711 391.781 50.3592 391.781C51.0052 391.781 51.6184 391.529 52.0769 391.069C52.5339 390.612 52.7887 390.002 52.7887 389.355C52.7887 388.017 51.6992 386.93 50.361 386.93C49.0209 386.928 47.9314 388.017 47.9314 389.355ZM50.3592 386C52.2103 386 53.7183 387.502 53.7183 389.353C53.7183 390.25 53.3693 391.092 52.733 391.728C52.0982 392.359 51.2555 392.708 50.3592 392.708C49.4607 392.708 48.618 392.359 47.9832 391.728C47.3509 391.092 46.9999 390.25 46.9999 389.353C47.0019 387.504 48.5079 386 50.3592 386Z" fill="url(#paint8_linear_2060_129345)"/>
<defs>
<linearGradient id="paint0_linear_2060_129345" x1="331.738" y1="284.911" x2="266.772" y2="444.244" gradientUnits="userSpaceOnUse">
<stop stop-color="#A5CDB9" stop-opacity="0.2"/>
<stop offset="1" stop-color="#A5CDB9"/>
</linearGradient>
<linearGradient id="paint1_linear_2060_129345" x1="212.522" y1="233.539" x2="264.748" y2="451.561" gradientUnits="userSpaceOnUse">
<stop stop-color="#EDE6D8" stop-opacity="0.4"/>
<stop offset="1" stop-color="#EDE6D8"/>
</linearGradient>
<linearGradient id="paint2_linear_2060_129345" x1="96.1729" y1="360.856" x2="259.886" y2="455.474" gradientUnits="userSpaceOnUse">
<stop stop-color="#989AA7" stop-opacity="0.2"/>
<stop offset="1" stop-color="#989AA7"/>
</linearGradient>
<linearGradient id="paint3_linear_2060_129345" x1="90.3592" y1="362.466" x2="90.3592" y2="368.244" gradientUnits="userSpaceOnUse">
<stop stop-color="#FFFAF1"/>
<stop offset="1" stop-color="#EDE6D8"/>
</linearGradient>
<linearGradient id="paint4_linear_2060_129345" x1="90.3591" y1="362" x2="90.3591" y2="368.708" gradientUnits="userSpaceOnUse">
<stop stop-color="#D2D9E9"/>
<stop offset="1" stop-color="#989AA7"/>
</linearGradient>
<linearGradient id="paint5_linear_2060_129345" x1="28.3592" y1="339.466" x2="28.3592" y2="345.244" gradientUnits="userSpaceOnUse">
<stop stop-color="#FFFAF1"/>
<stop offset="1" stop-color="#EDE6D8"/>
</linearGradient>
<linearGradient id="paint6_linear_2060_129345" x1="28.3591" y1="339" x2="28.3591" y2="345.708" gradientUnits="userSpaceOnUse">
<stop stop-color="#D2D9E9"/>
<stop offset="1" stop-color="#989AA7"/>
</linearGradient>
<linearGradient id="paint7_linear_2060_129345" x1="50.3592" y1="386.466" x2="50.3592" y2="392.244" gradientUnits="userSpaceOnUse">
<stop stop-color="#FFFAF1"/>
<stop offset="1" stop-color="#EDE6D8"/>
</linearGradient>
<linearGradient id="paint8_linear_2060_129345" x1="50.3591" y1="386" x2="50.3591" y2="392.708" gradientUnits="userSpaceOnUse">
<stop stop-color="#D2D9E9"/>
<stop offset="1" stop-color="#989AA7"/>
</linearGradient>
</defs>
</svg>
