<svg width="476" height="292" viewBox="0 0 476 292" fill="none" xmlns="http://www.w3.org/2000/svg">
<path opacity="0.4" d="M481.551 27.0001C456.325 41.989 429.675 58.4267 416.968 84.7871C405.489 103.785 413.853 132.47 438.459 132.811C479.552 130.546 463.261 84.2992 438.459 71.0001C413.657 57.701 385.629 70.1437 400.284 100.305C403.296 107.674 404.837 117.566 398.445 122.355C380.169 129.632 363 110.5 344 114.5C325 118.5 331 137 350.5 137C370 137 375.4 143.982 359 157.744C342.6 171.506 377.028 189.358 403.832 189.358C430.636 189.358 418.476 170.121 401.177 168.868C378.178 167.573 350.801 189.696 326.832 197.244C290.344 208.734 245.332 202.358 229.332 189.358C213.332 176.358 247.39 134.744 261.832 157.744C276.274 180.744 100.832 202.244 48.832 234.744C-3.16784 267.244 103.249 253.318 82.8315 240.244" stroke="#989AA7" stroke-linecap="round" stroke-linejoin="round"/>
<path opacity="0.4" d="M434.453 91.0503C454.468 134.275 431.139 188.139 431.139 188.139C431.139 188.139 375.348 171.915 355.32 128.7C335.293 85.4741 358.633 31.6247 358.633 31.6247C358.633 31.6247 414.426 47.8347 434.453 91.0503Z" fill="url(#paint0_linear_2060_128121)"/>
<path opacity="0.6" d="M353.58 207.683C391.957 216.21 431.367 187.889 431.367 187.889C431.367 187.889 408.546 145.735 370.174 137.195C331.794 128.658 292.398 156.985 292.398 156.985C292.398 156.985 315.208 199.144 353.58 207.683Z" fill="url(#paint1_linear_2060_128121)"/>
<defs>
<linearGradient id="paint0_linear_2060_128121" x1="357.514" y1="39.1104" x2="427.271" y2="183.191" gradientUnits="userSpaceOnUse">
<stop stop-color="#A5CDB9" stop-opacity="0.2"/>
<stop offset="1" stop-color="#A5CDB9"/>
</linearGradient>
<linearGradient id="paint1_linear_2060_128121" x1="316.88" y1="130.633" x2="398.382" y2="194.437" gradientUnits="userSpaceOnUse">
<stop stop-color="#EDE6D8" stop-opacity="0.3"/>
<stop offset="1" stop-color="#EDE6D8"/>
</linearGradient>
</defs>
</svg>
