<svg width="485" height="620" viewBox="0 0 485 620" fill="none" xmlns="http://www.w3.org/2000/svg">
<path d="M236.066 57.4732C216.585 45.0149 193.011 32.0916 171.674 40.7443C156.225 47.0222 146.812 63.7487 145.361 80.4176C143.911 97.0865 149.219 113.672 156.197 128.928C184.473 190.833 240.673 239.136 257.906 304.941C259.994 312.95 261.478 321.339 259.868 329.407C258.257 337.475 252.975 345.246 245.174 347.79C232.972 351.778 220.247 341.995 213.711 330.88C205.568 316.984 202.978 299.624 208.026 284.389C213.074 269.154 226.178 256.549 241.899 253.347C256.112 250.457 271.129 255.199 283.078 263.553C295.026 271.906 304.247 283.538 312.408 295.632C323.332 311.798 332.923 330.384 331.286 349.764C329.13 375.312 306.576 396.06 281.504 401.221C256.431 406.382 230.016 398.164 208.404 384.251C186.816 370.32 169.26 351.049 152.16 331.844C140.803 319.097 125.919 305.011 109.363 308.878C100.065 311.056 92.7702 318.96 89.5235 327.959C86.2768 336.959 86.6084 346.922 88.4349 356.358C91.1677 370.256 97.5285 384 108.753 392.674C119.978 401.347 136.597 403.731 148.352 395.942C160.107 388.153 163.723 369.335 153.782 359.212C115.043 319.742 89.4582 436.802 89.5572 458.345C89.6934 493.948 100.844 529.064 118.258 560.183C125.513 573.144 135.317 586.537 149.795 589.673C167.897 593.588 184.627 580.086 198.171 567.524" stroke="#F7F4ED" stroke-linecap="round" stroke-linejoin="round"/>
<path opacity="0.2" d="M285.648 240.975C318.403 308.866 282.831 394.851 282.831 394.851C282.831 394.851 194.136 370.751 161.361 302.875C128.586 234.982 164.175 149.021 164.175 149.021C164.175 149.021 252.874 173.099 285.648 240.975Z" fill="url(#paint0_linear_100_5213)"/>
<path opacity="0.25" fill-rule="evenodd" clip-rule="evenodd" d="M172.191 363.178C232.766 389.871 286.381 401.326 286.381 401.326C286.381 401.326 208.899 443.888 148.332 417.204C87.757 390.511 66.9998 304.682 66.9998 304.682C66.9998 304.682 111.608 336.485 172.191 363.178Z" fill="url(#paint1_linear_100_5213)"/>
<path fill-rule="evenodd" clip-rule="evenodd" d="M141.251 136.356C141.251 137.95 139.955 139.244 138.359 139.244C136.761 139.244 135.467 137.95 135.467 136.356C135.467 134.759 136.761 133.466 138.359 133.466C139.955 133.466 141.251 134.759 141.251 136.356Z" fill="url(#paint2_linear_100_5213)"/>
<path fill-rule="evenodd" clip-rule="evenodd" d="M140.787 136.355C140.787 137.002 140.534 137.612 140.076 138.069C139.616 138.529 139.007 138.781 138.359 138.781C137.713 138.781 137.1 138.529 136.641 138.069C136.184 137.612 135.93 137.002 135.93 136.355C135.93 135.017 137.019 133.93 138.357 133.93C139.697 133.928 140.787 135.017 140.787 136.355ZM138.359 133C136.508 133 135 134.502 135 136.353C135 137.25 135.349 138.092 135.985 138.728C136.62 139.359 137.463 139.708 138.359 139.708C139.258 139.708 140.1 139.359 140.735 138.728C141.367 138.092 141.718 137.25 141.718 136.353C141.716 134.504 140.21 133 138.359 133Z" fill="url(#paint3_linear_100_5213)"/>
<path fill-rule="evenodd" clip-rule="evenodd" d="M201.251 171.356C201.251 172.95 199.955 174.244 198.359 174.244C196.761 174.244 195.467 172.95 195.467 171.356C195.467 169.759 196.761 168.466 198.359 168.466C199.955 168.466 201.251 169.759 201.251 171.356Z" fill="url(#paint4_linear_100_5213)"/>
<path fill-rule="evenodd" clip-rule="evenodd" d="M200.787 171.355C200.787 172.002 200.534 172.612 200.076 173.069C199.616 173.529 199.007 173.781 198.359 173.781C197.713 173.781 197.1 173.529 196.641 173.069C196.184 172.612 195.93 172.002 195.93 171.355C195.93 170.017 197.019 168.93 198.357 168.93C199.697 168.928 200.787 170.017 200.787 171.355ZM198.359 168C196.508 168 195 169.502 195 171.353C195 172.25 195.349 173.092 195.985 173.728C196.62 174.359 197.463 174.708 198.359 174.708C199.258 174.708 200.1 174.359 200.735 173.728C201.367 173.092 201.718 172.25 201.718 171.353C201.716 169.504 200.21 168 198.359 168Z" fill="url(#paint5_linear_100_5213)"/>
<path fill-rule="evenodd" clip-rule="evenodd" d="M124.251 243.356C124.251 244.95 122.955 246.244 121.359 246.244C119.761 246.244 118.467 244.95 118.467 243.356C118.467 241.759 119.761 240.466 121.359 240.466C122.955 240.466 124.251 241.759 124.251 243.356Z" fill="url(#paint6_linear_100_5213)"/>
<path fill-rule="evenodd" clip-rule="evenodd" d="M123.787 243.355C123.787 244.002 123.534 244.612 123.076 245.069C122.616 245.529 122.007 245.781 121.359 245.781C120.713 245.781 120.1 245.529 119.641 245.069C119.184 244.612 118.93 244.002 118.93 243.355C118.93 242.017 120.019 240.93 121.357 240.93C122.697 240.928 123.787 242.017 123.787 243.355ZM121.359 240C119.508 240 118 241.502 118 243.353C118 244.25 118.349 245.092 118.985 245.728C119.62 246.359 120.463 246.708 121.359 246.708C122.258 246.708 123.1 246.359 123.735 245.728C124.367 245.092 124.718 244.25 124.718 243.353C124.716 241.504 123.21 240 121.359 240Z" fill="url(#paint7_linear_100_5213)"/>
<defs>
<linearGradient id="paint0_linear_100_5213" x1="162.592" y1="160.91" x2="277.061" y2="386.885" gradientUnits="userSpaceOnUse">
<stop stop-color="#A5CDB9" stop-opacity="0.2"/>
<stop offset="1" stop-color="#A5CDB9"/>
</linearGradient>
<linearGradient id="paint1_linear_100_5213" x1="91.5029" y1="288.432" x2="275.672" y2="403.043" gradientUnits="userSpaceOnUse">
<stop stop-color="#D2D9E9" stop-opacity="0.2"/>
<stop offset="1" stop-color="#D2D9E9"/>
</linearGradient>
<linearGradient id="paint2_linear_100_5213" x1="138.359" y1="133.466" x2="138.359" y2="139.244" gradientUnits="userSpaceOnUse">
<stop stop-color="#FFFAF1"/>
<stop offset="1" stop-color="#EDE6D8"/>
</linearGradient>
<linearGradient id="paint3_linear_100_5213" x1="138.359" y1="133" x2="138.359" y2="139.708" gradientUnits="userSpaceOnUse">
<stop stop-color="#D2D9E9"/>
<stop offset="1" stop-color="#989AA7"/>
</linearGradient>
<linearGradient id="paint4_linear_100_5213" x1="198.359" y1="168.466" x2="198.359" y2="174.244" gradientUnits="userSpaceOnUse">
<stop stop-color="#FFFAF1"/>
<stop offset="1" stop-color="#EDE6D8"/>
</linearGradient>
<linearGradient id="paint5_linear_100_5213" x1="198.359" y1="168" x2="198.359" y2="174.708" gradientUnits="userSpaceOnUse">
<stop stop-color="#D2D9E9"/>
<stop offset="1" stop-color="#989AA7"/>
</linearGradient>
<linearGradient id="paint6_linear_100_5213" x1="121.359" y1="240.466" x2="121.359" y2="246.244" gradientUnits="userSpaceOnUse">
<stop stop-color="#FFFAF1"/>
<stop offset="1" stop-color="#EDE6D8"/>
</linearGradient>
<linearGradient id="paint7_linear_100_5213" x1="121.359" y1="240" x2="121.359" y2="246.708" gradientUnits="userSpaceOnUse">
<stop stop-color="#D2D9E9"/>
<stop offset="1" stop-color="#989AA7"/>
</linearGradient>
</defs>
</svg>
