<svg width="524" height="646" viewBox="0 0 524 646" fill="none" xmlns="http://www.w3.org/2000/svg">
<path d="M315.691 568.526C335.919 575.816 359.954 582.686 377.522 570.45C390.239 561.58 395.334 544.476 393.221 529.062C391.107 513.649 382.882 499.701 373.416 487.303C335.042 436.985 274.144 404.745 244.982 348.619C241.44 341.786 238.369 334.484 238.17 326.837C237.971 319.189 241.162 311.057 247.712 307.145C257.956 301.019 271.508 307.272 279.721 316.007C289.963 326.932 295.883 342.141 294.439 356.995C292.996 371.848 283.706 385.973 270.11 392.111C257.816 397.655 243.223 396.444 230.67 391.327C218.117 386.21 207.362 377.56 197.475 368.272C184.243 355.859 171.724 340.979 169.221 323.068C165.92 299.459 182.104 276.005 203.778 266.168C225.452 256.33 251.095 258.348 273.554 266.519C295.996 274.711 315.88 288.574 335.336 302.471C348.257 311.694 364.651 321.405 378.868 314.493C386.851 310.605 391.84 301.937 392.933 293.109C394.026 284.281 391.676 275.315 388.078 267.134C382.741 255.093 374.146 243.939 362.184 238.383C350.221 232.827 334.661 234.084 325.604 243.565C316.547 253.046 309.471 277.988 328.235 277.988C347 277.988 381.816 219.396 375 158.896C368.183 98.396 323 60.8953 284.444 68.1897C245.888 75.4841 245 118.395 260.5 127.895" stroke="#F7F4ED" stroke-linecap="round" stroke-linejoin="round"/>
<path opacity="0.2" d="M450.408 416.45C426.856 485.52 343.896 520.632 343.896 520.632C343.896 520.632 299.119 443.741 322.648 374.668C346.188 305.583 429.144 270.499 429.144 270.499C429.144 270.499 473.938 347.378 450.408 416.45Z" fill="url(#paint0_linear_107_9813)"/>
<path opacity="0.2" d="M302.073 425.788C333.333 473.433 315.173 541.394 315.173 541.394C315.173 541.394 246.316 532.099 215.042 484.468C183.766 436.824 201.941 368.879 201.941 368.879C201.941 368.879 270.799 378.156 302.073 425.788Z" fill="url(#paint1_linear_107_9813)"/>
<path opacity="0.15" fill-rule="evenodd" clip-rule="evenodd" d="M423.712 473.091C378.218 521.177 333.234 552.516 333.234 552.516C333.234 552.516 421.156 561.72 466.646 513.647C512.14 465.562 498.008 378.396 498.008 378.396C498.008 378.396 469.213 425.003 423.712 473.091Z" fill="url(#paint2_linear_107_9813)"/>
<path fill-rule="evenodd" clip-rule="evenodd" d="M371.252 277.751C371.252 279.345 369.956 280.639 368.359 280.639C366.761 280.639 365.467 279.345 365.467 277.751C365.467 276.154 366.761 274.862 368.359 274.862C369.956 274.862 371.252 276.154 371.252 277.751Z" fill="url(#paint3_linear_107_9813)"/>
<path fill-rule="evenodd" clip-rule="evenodd" d="M370.787 277.75C370.787 278.397 370.535 279.008 370.076 279.464C369.617 279.925 369.008 280.177 368.36 280.177C367.714 280.177 367.1 279.925 366.642 279.464C366.185 279.008 365.93 278.397 365.93 277.75C365.93 276.412 367.02 275.326 368.358 275.326C369.698 275.324 370.787 276.412 370.787 277.75ZM368.36 274.395C366.508 274.395 365 275.897 365 277.748C365 278.646 365.349 279.487 365.986 280.123C366.621 280.754 367.463 281.103 368.36 281.103C369.258 281.103 370.101 280.754 370.736 280.123C371.368 279.487 371.719 278.646 371.719 277.748C371.717 275.899 370.211 274.395 368.36 274.395Z" fill="url(#paint4_linear_107_9813)"/>
<path fill-rule="evenodd" clip-rule="evenodd" d="M316.252 340.751C316.252 342.345 314.956 343.639 313.359 343.639C311.761 343.639 310.467 342.345 310.467 340.751C310.467 339.154 311.761 337.862 313.359 337.862C314.956 337.862 316.252 339.154 316.252 340.751Z" fill="url(#paint5_linear_107_9813)"/>
<path fill-rule="evenodd" clip-rule="evenodd" d="M315.787 340.75C315.787 341.397 315.535 342.008 315.076 342.464C314.617 342.925 314.008 343.177 313.36 343.177C312.714 343.177 312.1 342.925 311.642 342.464C311.185 342.008 310.93 341.397 310.93 340.75C310.93 339.412 312.02 338.326 313.358 338.326C314.698 338.324 315.787 339.412 315.787 340.75ZM313.36 337.395C311.508 337.395 310 338.897 310 340.748C310 341.646 310.349 342.487 310.986 343.123C311.621 343.754 312.463 344.103 313.36 344.103C314.258 344.103 315.101 343.754 315.736 343.123C316.368 342.487 316.719 341.646 316.719 340.748C316.717 338.899 315.211 337.395 313.36 337.395Z" fill="url(#paint6_linear_107_9813)"/>
<path fill-rule="evenodd" clip-rule="evenodd" d="M333.252 400.752C333.252 402.346 331.956 403.641 330.359 403.641C328.761 403.641 327.467 402.346 327.467 400.752C327.467 399.155 328.761 397.863 330.359 397.863C331.956 397.863 333.252 399.155 333.252 400.752Z" fill="url(#paint7_linear_107_9813)"/>
<path fill-rule="evenodd" clip-rule="evenodd" d="M332.787 400.752C332.787 401.398 332.535 402.009 332.076 402.465C331.617 402.926 331.008 403.178 330.36 403.178C329.714 403.178 329.1 402.926 328.642 402.465C328.185 402.009 327.93 401.398 327.93 400.752C327.93 399.413 329.02 398.327 330.358 398.327C331.698 398.325 332.787 399.413 332.787 400.752ZM330.36 397.396C328.508 397.396 327 398.899 327 400.749C327 401.647 327.349 402.488 327.986 403.124C328.621 403.756 329.463 404.104 330.36 404.104C331.258 404.104 332.101 403.756 332.736 403.124C333.368 402.488 333.719 401.647 333.719 400.749C333.717 398.901 332.211 397.396 330.36 397.396Z" fill="url(#paint8_linear_107_9813)"/>
<defs>
<linearGradient id="paint0_linear_107_9813" x1="363.725" y1="283.851" x2="409.327" y2="507.278" gradientUnits="userSpaceOnUse">
<stop stop-color="#EDE6D8" stop-opacity="0.2"/>
<stop offset="1" stop-color="#EDE6D8"/>
</linearGradient>
<linearGradient id="paint1_linear_107_9813" x1="201.93" y1="377.946" x2="310.061" y2="535.994" gradientUnits="userSpaceOnUse">
<stop stop-color="#A5CDB9" stop-opacity="0.2"/>
<stop offset="1" stop-color="#A5CDB9"/>
</linearGradient>
<linearGradient id="paint2_linear_107_9813" x1="360.608" y1="552.138" x2="500.035" y2="421.919" gradientUnits="userSpaceOnUse">
<stop stop-color="#989AA7"/>
<stop offset="1" stop-color="#989AA7" stop-opacity="0.2"/>
</linearGradient>
<linearGradient id="paint3_linear_107_9813" x1="368.36" y1="274.862" x2="368.36" y2="280.639" gradientUnits="userSpaceOnUse">
<stop stop-color="#FFFAF1"/>
<stop offset="1" stop-color="#EDE6D8"/>
</linearGradient>
<linearGradient id="paint4_linear_107_9813" x1="368.36" y1="274.395" x2="368.36" y2="281.103" gradientUnits="userSpaceOnUse">
<stop stop-color="#D2D9E9"/>
<stop offset="1" stop-color="#989AA7"/>
</linearGradient>
<linearGradient id="paint5_linear_107_9813" x1="313.36" y1="337.862" x2="313.36" y2="343.639" gradientUnits="userSpaceOnUse">
<stop stop-color="#FFFAF1"/>
<stop offset="1" stop-color="#EDE6D8"/>
</linearGradient>
<linearGradient id="paint6_linear_107_9813" x1="313.36" y1="337.395" x2="313.36" y2="344.103" gradientUnits="userSpaceOnUse">
<stop stop-color="#D2D9E9"/>
<stop offset="1" stop-color="#989AA7"/>
</linearGradient>
<linearGradient id="paint7_linear_107_9813" x1="330.36" y1="397.863" x2="330.36" y2="403.641" gradientUnits="userSpaceOnUse">
<stop stop-color="#FFFAF1"/>
<stop offset="1" stop-color="#EDE6D8"/>
</linearGradient>
<linearGradient id="paint8_linear_107_9813" x1="330.36" y1="397.396" x2="330.36" y2="404.104" gradientUnits="userSpaceOnUse">
<stop stop-color="#D2D9E9"/>
<stop offset="1" stop-color="#989AA7"/>
</linearGradient>
</defs>
</svg>
