<svg width="211" height="75" viewBox="0 0 211 75" fill="none" xmlns="http://www.w3.org/2000/svg">
<path d="M74.1013 51.8803C66.5229 64.9846 48.3819 68.6919 48.3819 68.6919C48.3819 68.6919 42.5281 51.1486 50.1018 38.0426C57.6781 24.9347 75.8171 21.2329 75.8171 21.2329C75.8171 21.2329 81.6751 38.7743 74.1013 51.8803Z" fill="#F4EEE2"/>
<path d="M46.612 38.0408C54.1843 51.1467 48.3299 68.6919 48.3299 68.6919C48.3299 68.6919 30.1889 64.9846 22.6129 51.8783C15.0388 38.7744 20.8967 21.2329 20.8967 21.2329C20.8967 21.2329 39.0338 24.9347 46.612 38.0408Z" fill="#F4EEE2"/>
<path fill-rule="evenodd" clip-rule="evenodd" d="M46.0371 38.3745C53.3701 51.0604 47.7569 68.3093 47.6993 68.4804L48.4648 68.0417C48.2818 68.0031 30.5262 64.2359 23.1873 51.55C15.854 38.8596 23.1389 24.2479 23.1934 24.0743C23.3725 24.1108 38.6983 25.6866 46.0371 38.3745ZM20.2641 21.022C20.0233 21.7517 14.3984 39.0002 22.0383 52.212C29.6756 65.4281 47.4431 69.1875 48.1967 69.3413L48.7733 69.4591L48.9606 68.9005C49.2033 68.1722 54.8283 50.9239 47.1902 37.7078C39.5503 24.496 21.7854 20.7351 21.0298 20.5827L20.453 20.4634L20.2641 21.022Z" fill="url(#paint0_radial_138_5853)"/>
<path fill-rule="evenodd" clip-rule="evenodd" d="M49.4566 38.3745C41.681 51.0604 47.633 68.3093 47.6941 68.4804L46.8823 68.0417C47.0764 68.0031 65.9035 64.2359 73.6854 51.55C81.4613 38.8596 73.7367 24.2479 73.679 24.0743C73.4891 24.1108 57.2383 25.6866 49.4566 38.3745ZM76.785 21.022C77.0404 21.7517 83.0048 39.0002 74.9038 52.212C66.8055 65.4281 47.9658 69.1875 47.1666 69.3413L46.5552 69.4591L46.3567 68.9005C46.0992 68.1722 40.1348 50.9239 48.2339 37.7078C56.3348 24.496 75.1719 20.7351 75.9731 20.5827L76.5847 20.4634L76.785 21.022Z" fill="url(#paint1_radial_138_5853)"/>
<path d="M62.2112 41.2897C62.2112 56.4215 48.3544 68.69 48.3544 68.69C48.3544 68.69 34.5 56.4215 34.5 41.2897C34.5 26.1578 48.3544 13.8896 48.3544 13.8896C48.3544 13.8896 62.2112 26.1578 62.2112 41.2897Z" fill="#FBF6EC"/>
<path d="M50.1021 38.0424C42.6167 50.9946 48.2455 68.2702 48.3764 68.6706C48.8202 68.2717 62.212 56.1729 62.212 41.2896C62.212 36.6846 60.9255 32.3454 59.138 28.5381C55.6885 30.9436 52.4064 34.0558 50.1021 38.0424Z" fill="#EDE6D8"/>
<path d="M46.6114 38.0406C44.3071 34.0538 41.0236 30.9436 37.572 28.5381C35.7859 32.3434 34.5 36.6827 34.5 41.2896C34.5 56.1676 47.882 68.2663 48.3371 68.6706C48.4705 68.2622 54.0949 50.9926 46.6114 38.0406Z" fill="#EDE6D8"/>
<path d="M48.3547 68.6037C48.6945 67.5579 52.9806 53.7071 48.3547 41.7104C43.7329 53.7071 48.0157 67.5466 48.3547 68.6037Z" fill="#D7D1C6"/>
<path fill-rule="evenodd" clip-rule="evenodd" d="M61.5459 41.29C61.5459 55.9541 48.052 68.0719 47.9153 68.1913H48.8003C48.6611 68.0719 35.1672 55.9387 35.1672 41.29C35.1672 26.6262 48.1098 19.2148 48.2465 19.0915C48.3817 19.2148 61.5459 26.6395 61.5459 41.29ZM47.9153 13.393C47.3406 13.9033 33.835 26.033 33.835 41.29C33.835 56.5452 47.3406 68.6768 47.9153 69.1872L48.3545 69.5781L48.7984 69.1872C49.371 68.6768 62.8763 56.5452 62.8763 41.29C62.8763 26.033 49.369 13.9033 48.7984 13.393L48.3545 13.002L47.9153 13.393Z" fill="url(#paint2_radial_138_5853)"/>
<path fill-rule="evenodd" clip-rule="evenodd" d="M23.4835 57.2081C36.6033 64.7753 48.5161 68.7042 48.5161 68.7042C48.5161 68.7042 29.841 76.4731 16.7228 68.9084C3.6029 61.3412 0.999973 41.3057 0.999973 41.3057C0.999973 41.3057 10.3618 49.6409 23.4835 57.2081Z" fill="url(#paint3_linear_138_5853)"/>
<path fill-rule="evenodd" clip-rule="evenodd" d="M23.039 57.8764C33.0389 63.6449 42.4388 67.34 46.3218 68.7642C41.4881 70.1615 28.0382 73.1746 17.765 67.2517C7.49473 61.3301 3.23814 48.1118 1.97889 43.1975C5.16856 45.8541 13.0581 52.1215 23.039 57.8764ZM0.227802 41.4829C0.339744 42.3128 3.02565 61.9342 16.2766 69.5723C29.5297 77.2164 47.8846 69.734 48.6595 69.4106L50.3082 68.7267L48.6118 68.1687C48.4937 68.1281 36.608 64.1661 23.7044 56.7281C10.7929 49.2788 1.42516 40.9839 1.33099 40.9011L0 39.7168L0.227802 41.4829Z" fill="url(#paint4_radial_138_5853)"/>
<path fill-rule="evenodd" clip-rule="evenodd" d="M73.3046 57.2081C60.1848 64.7753 48.272 68.7042 48.272 68.7042C48.272 68.7042 66.9471 76.4731 80.0653 68.9084C93.1852 61.3412 95.7881 41.3057 95.7881 41.3057C95.7881 41.3057 86.4263 49.6409 73.3046 57.2081Z" fill="url(#paint5_linear_138_5853)"/>
<path fill-rule="evenodd" clip-rule="evenodd" d="M73.2691 57.8764C63.2692 63.6449 53.8693 67.34 49.9864 68.7642C54.82 70.1615 68.2699 73.1746 78.5431 67.2517C88.8134 61.3301 93.07 48.1118 94.3292 43.1975C91.1395 45.8541 83.2501 52.1215 73.2691 57.8764ZM96.0803 41.4829C95.9684 42.3128 93.2825 61.9342 80.0315 69.5723C66.7784 77.2164 48.4235 69.734 47.6486 69.4106L45.9999 68.7267L47.6963 68.1687C47.8144 68.1281 59.7002 64.1661 72.6037 56.7281C85.5152 49.2788 94.8829 40.9839 94.9771 40.9011L96.3081 39.7168L96.0803 41.4829Z" fill="url(#paint6_radial_138_5853)"/>
<path d="M37.1599 15.3242C37.1599 16.9206 35.8642 18.2149 34.2652 18.2149C32.6688 18.2149 31.373 16.9206 31.373 15.3242C31.373 13.7298 32.6688 12.4351 34.2652 12.4351C35.8642 12.4351 37.1599 13.7298 37.1599 15.3242Z" fill="url(#paint7_linear_138_5853)"/>
<path fill-rule="evenodd" clip-rule="evenodd" d="M36.6948 15.3243C36.6948 15.9732 36.4404 16.5841 35.9852 17.0401C35.5243 17.4987 34.9132 17.7491 34.2649 17.7491C33.6173 17.7491 33.0077 17.4987 32.547 17.0401C32.092 16.5841 31.8372 15.9732 31.8372 15.3243C31.8372 13.9878 32.9247 12.9016 34.2649 12.9016C35.6031 12.9016 36.6948 13.9878 36.6948 15.3243ZM34.2649 11.9712C32.4138 11.9712 30.9062 13.4754 30.9062 15.3243C30.9062 16.2217 31.2572 17.0633 31.8936 17.6968C32.5279 18.3309 33.3684 18.681 34.2649 18.681C35.1638 18.681 36.0065 18.3323 36.6409 17.6968C37.275 17.0653 37.6222 16.2217 37.6222 15.3243C37.6222 13.4754 36.1181 11.9712 34.2649 11.9712Z" fill="url(#paint8_linear_138_5853)"/>
<path fill-rule="evenodd" clip-rule="evenodd" d="M65.2654 14.9141C65.2654 16.5066 63.9696 17.8029 62.3712 17.8029C60.7763 17.8029 59.4785 16.5066 59.4785 14.9141C59.4785 13.3176 60.7763 12.0234 62.3712 12.0234C63.9677 12.0234 65.2654 13.3176 65.2654 14.9141Z" fill="url(#paint9_linear_138_5853)"/>
<path fill-rule="evenodd" clip-rule="evenodd" d="M64.8011 14.9151C64.8011 15.5601 64.5463 16.171 64.0892 16.629C63.6307 17.0875 63.019 17.3399 62.3695 17.3399C61.7253 17.3399 61.1142 17.0875 60.6531 16.629C60.198 16.171 59.9437 15.5601 59.9437 14.9151C59.9437 13.5765 61.0312 12.4885 62.3695 12.4885C63.7117 12.4885 64.8011 13.5765 64.8011 14.9151ZM62.3695 11.5601C60.5203 11.5601 59.0122 13.0643 59.0122 14.9151C59.0122 15.8086 59.3612 16.6481 59.9976 17.2857C60.6319 17.9177 61.4745 18.2664 62.3695 18.2664C63.2698 18.2664 64.1105 17.9198 64.7447 17.2857C65.3811 16.6502 65.7301 15.8086 65.7301 14.9151C65.7286 13.0643 64.2245 11.5601 62.3695 11.5601Z" fill="url(#paint10_linear_138_5853)"/>
<path fill-rule="evenodd" clip-rule="evenodd" d="M51.2102 3.35555C51.2102 4.94992 49.9144 6.24423 48.3179 6.24423C46.7197 6.24423 45.4258 4.94992 45.4258 3.35555C45.4258 1.75852 46.7197 0.466309 48.3179 0.466309C49.9144 0.466309 51.2102 1.75852 51.2102 3.35555Z" fill="url(#paint11_linear_138_5853)"/>
<path fill-rule="evenodd" clip-rule="evenodd" d="M50.7458 3.3552C50.7458 4.002 50.4931 4.61233 50.0346 5.06892C49.5755 5.52943 48.9662 5.78141 48.3181 5.78141C47.672 5.78141 47.0589 5.52943 46.6003 5.06892C46.1433 4.61233 45.8885 4.002 45.8885 3.3552C45.8885 2.01658 46.978 0.930376 48.3163 0.930376C49.6563 0.92842 50.7458 2.01658 50.7458 3.3552ZM48.3181 0C46.467 0 44.959 1.50227 44.959 3.3531C44.959 4.25049 45.308 5.09212 45.9442 5.72761C46.5791 6.35918 47.4217 6.70774 48.3181 6.70774C49.2166 6.70774 50.0592 6.35918 50.6941 5.72761C51.3264 5.09212 51.6773 4.25049 51.6773 3.3531C51.6754 1.50423 50.1693 0 48.3181 0Z" fill="url(#paint12_linear_138_5853)"/>
<path d="M53.1023 37.2244C52.8806 37.1781 52.6842 37.0972 52.5123 36.9952C52.119 35.6201 51.4713 34.7803 51.1125 34.3954C51.0276 34.066 50.9022 33.8156 50.5976 33.8502C49.8285 33.9409 48.9454 35.8454 49.5852 37.8659C49.9865 39.1269 50.7614 39.8049 52.3139 39.8743C52.0188 44.8028 48.8062 49.6002 47.0922 51.8327C47.0922 51.8327 46.0488 35.2177 44.6295 33.0739C43.1604 30.8574 39.9558 32.8773 39.3615 34.6936C38.4824 37.3861 39.5758 39.1828 39.5758 39.1828C39.5758 39.1828 39.3635 35.6048 40.1835 35.6048C41.5019 35.6048 43.2414 58.0474 44.2633 58.0474C48.1837 58.0474 53.4938 45.3231 52.9211 39.8686C53.1122 39.8611 53.3087 39.8475 53.519 39.8222C57.7824 39.3504 59.3058 32.7698 59.3058 32.7698C59.3058 32.7698 57.2848 38.0931 53.1023 37.2244Z" fill="#A25775"/>
<path d="M52.9245 39.9089C52.6667 39.9263 52.4579 39.9138 52.3123 39.8969C52.2778 40.4551 52.2058 41.0118 52.103 41.5628L52.9262 41.6594C52.9746 41.0218 52.9764 40.4325 52.9245 39.9089ZM52.0858 39.8587L52.0784 39.8569L52.0781 39.858L52.0858 39.8587Z" fill="#5E3243"/>
<path d="M52.1958 36.103C51.5032 36.1601 50.8252 36.0146 50.8252 36.0146C51.9459 37.2624 53.1025 37.224 53.1025 37.224C52.8808 37.1777 52.6844 37.0968 52.5125 36.9948C52.4189 36.6676 52.3108 36.3706 52.1958 36.103Z" fill="#5E3243"/>
<path d="M159.456 61.568V68H158.4V62.468H155.076V68H154.02V61.568H159.456ZM164.088 68.12C163.52 68.12 163.012 68.004 162.564 67.772C162.124 67.54 161.776 67.18 161.52 66.692C161.272 66.204 161.148 65.58 161.148 64.82C161.148 64.028 161.28 63.384 161.544 62.888C161.808 62.392 162.164 62.028 162.612 61.796C163.068 61.564 163.584 61.448 164.16 61.448C164.488 61.448 164.804 61.484 165.108 61.556C165.412 61.62 165.66 61.7 165.852 61.796L165.528 62.672C165.336 62.6 165.112 62.532 164.856 62.468C164.6 62.404 164.36 62.372 164.136 62.372C163.704 62.372 163.348 62.464 163.068 62.648C162.788 62.832 162.58 63.104 162.444 63.464C162.308 63.824 162.24 64.272 162.24 64.808C162.24 65.32 162.308 65.756 162.444 66.116C162.58 66.476 162.784 66.748 163.056 66.932C163.328 67.116 163.668 67.208 164.076 67.208C164.428 67.208 164.736 67.172 165 67.1C165.272 67.028 165.52 66.94 165.744 66.836V67.772C165.528 67.884 165.288 67.968 165.024 68.024C164.768 68.088 164.456 68.12 164.088 68.12ZM168.27 65.492C168.27 65.564 168.266 65.668 168.258 65.804C168.258 65.932 168.254 66.072 168.246 66.224C168.238 66.368 168.23 66.508 168.222 66.644C168.214 66.772 168.206 66.876 168.198 66.956L171.642 61.568H172.938V68H171.954V64.208C171.954 64.08 171.954 63.912 171.954 63.704C171.962 63.496 171.97 63.292 171.978 63.092C171.986 62.884 171.994 62.728 172.002 62.624L168.582 68H167.274V61.568H168.27V65.492ZM176.509 64.712L174.289 61.568H175.489L177.145 63.992L178.789 61.568H179.977L177.757 64.712L180.097 68H178.897L177.145 65.432L175.369 68H174.181L176.509 64.712ZM186.694 64.772C186.694 65.308 186.622 65.784 186.478 66.2C186.342 66.608 186.142 66.956 185.878 67.244C185.622 67.532 185.306 67.752 184.93 67.904C184.562 68.048 184.15 68.12 183.694 68.12C183.27 68.12 182.878 68.048 182.518 67.904C182.158 67.752 181.846 67.532 181.582 67.244C181.318 66.956 181.11 66.608 180.958 66.2C180.814 65.784 180.742 65.308 180.742 64.772C180.742 64.06 180.862 63.46 181.102 62.972C181.342 62.476 181.686 62.1 182.134 61.844C182.582 61.58 183.114 61.448 183.73 61.448C184.314 61.448 184.826 61.58 185.266 61.844C185.714 62.1 186.062 62.476 186.31 62.972C186.566 63.46 186.694 64.06 186.694 64.772ZM181.834 64.772C181.834 65.276 181.898 65.716 182.026 66.092C182.162 66.46 182.37 66.744 182.65 66.944C182.93 67.144 183.286 67.244 183.718 67.244C184.15 67.244 184.506 67.144 184.786 66.944C185.066 66.744 185.27 66.46 185.398 66.092C185.534 65.716 185.602 65.276 185.602 64.772C185.602 64.26 185.534 63.824 185.398 63.464C185.262 63.104 185.054 62.828 184.774 62.636C184.502 62.436 184.146 62.336 183.706 62.336C183.05 62.336 182.574 62.552 182.278 62.984C181.982 63.416 181.834 64.012 181.834 64.772ZM193.264 68H192.196V62.444H190.3C190.22 63.46 190.12 64.328 190 65.048C189.88 65.76 189.728 66.34 189.544 66.788C189.36 67.236 189.14 67.564 188.884 67.772C188.628 67.98 188.328 68.084 187.984 68.084C187.88 68.084 187.776 68.076 187.672 68.06C187.576 68.052 187.496 68.032 187.432 68V67.208C187.48 67.224 187.532 67.236 187.588 67.244C187.644 67.252 187.7 67.256 187.756 67.256C187.932 67.256 188.092 67.184 188.236 67.04C188.38 66.896 188.508 66.676 188.62 66.38C188.74 66.084 188.848 65.712 188.944 65.264C189.04 64.808 189.124 64.272 189.196 63.656C189.268 63.04 189.332 62.344 189.388 61.568H193.264V68ZM200.897 64.772C200.897 65.308 200.825 65.784 200.681 66.2C200.545 66.608 200.345 66.956 200.081 67.244C199.825 67.532 199.509 67.752 199.133 67.904C198.765 68.048 198.353 68.12 197.897 68.12C197.473 68.12 197.081 68.048 196.721 67.904C196.361 67.752 196.049 67.532 195.785 67.244C195.521 66.956 195.313 66.608 195.161 66.2C195.017 65.784 194.945 65.308 194.945 64.772C194.945 64.06 195.065 63.46 195.305 62.972C195.545 62.476 195.889 62.1 196.337 61.844C196.785 61.58 197.317 61.448 197.933 61.448C198.517 61.448 199.029 61.58 199.469 61.844C199.917 62.1 200.265 62.476 200.513 62.972C200.769 63.46 200.897 64.06 200.897 64.772ZM196.037 64.772C196.037 65.276 196.101 65.716 196.229 66.092C196.365 66.46 196.573 66.744 196.853 66.944C197.133 67.144 197.489 67.244 197.921 67.244C198.353 67.244 198.709 67.144 198.989 66.944C199.269 66.744 199.473 66.46 199.601 66.092C199.737 65.716 199.805 65.276 199.805 64.772C199.805 64.26 199.737 63.824 199.601 63.464C199.465 63.104 199.257 62.828 198.977 62.636C198.705 62.436 198.349 62.336 197.909 62.336C197.253 62.336 196.777 62.552 196.481 62.984C196.185 63.416 196.037 64.012 196.037 64.772ZM206.495 61.568V62.456H203.627V68H202.571V61.568H206.495Z" fill="#6E707F"/>
<path d="M100.543 42.3281C100.543 42.123 100.52 41.9567 100.475 41.8291C100.429 41.7015 100.363 41.6035 100.276 41.5352C100.194 41.4622 100.094 41.4121 99.9756 41.3848C99.8571 41.3574 99.7272 41.3438 99.5859 41.3438C99.5039 41.3438 99.4242 41.346 99.3467 41.3506C99.2738 41.3506 99.1895 41.3551 99.0938 41.3643C98.998 41.3688 98.8864 41.3779 98.7588 41.3916C98.6357 41.4053 98.4831 41.4212 98.3008 41.4395L98.2256 40.8174C99.1188 40.6807 99.8981 40.5736 100.563 40.4961C101.233 40.4141 101.833 40.373 102.361 40.373C103.564 40.373 104.624 40.3685 105.54 40.3594C106.461 40.3503 107.247 40.3411 107.898 40.332C108.555 40.3184 109.086 40.307 109.491 40.2979C109.897 40.2887 110.188 40.2842 110.366 40.2842C110.612 40.2842 110.79 40.3434 110.899 40.4619C111.013 40.5804 111.07 40.749 111.07 40.9678C111.07 41.0589 111.059 41.2458 111.036 41.5283C111.018 41.8109 110.993 42.1755 110.961 42.6221C110.929 43.0687 110.895 43.5928 110.858 44.1943C110.822 44.7959 110.788 45.4613 110.756 46.1904C110.724 46.915 110.697 47.7012 110.674 48.5488C110.656 49.3919 110.646 50.2806 110.646 51.2148C110.646 51.8255 110.658 52.3473 110.681 52.7803C110.708 53.2087 110.747 53.571 110.797 53.8672C110.852 54.1589 110.918 54.3913 110.995 54.5645C111.073 54.7331 111.164 54.863 111.269 54.9541C111.378 55.0452 111.499 55.1045 111.631 55.1318C111.763 55.1546 111.909 55.166 112.068 55.166C112.164 55.166 112.255 55.1637 112.342 55.1592C112.433 55.1501 112.529 55.1387 112.629 55.125C112.729 55.1068 112.836 55.0817 112.95 55.0498C113.069 55.0133 113.203 54.9678 113.354 54.9131L113.545 55.4736C112.934 55.7471 112.387 55.9544 111.904 56.0957C111.421 56.237 110.986 56.3076 110.599 56.3076C110.403 56.3076 110.227 56.2917 110.072 56.2598C109.917 56.2279 109.778 56.1595 109.655 56.0547C109.537 55.9499 109.434 55.7972 109.348 55.5967C109.261 55.3916 109.19 55.1182 109.136 54.7764C109.081 54.43 109.04 54.0039 109.013 53.498C108.985 52.9922 108.972 52.3815 108.972 51.666C108.972 50.8776 108.976 50.112 108.985 49.3691C108.999 48.6217 109.015 47.9154 109.033 47.25C109.056 46.5801 109.076 45.9603 109.095 45.3906C109.118 44.821 109.138 44.3174 109.156 43.8799C109.179 43.4424 109.195 43.0824 109.204 42.7998C109.218 42.5127 109.225 42.319 109.225 42.2188C109.225 42.0775 109.213 41.9499 109.19 41.8359C109.168 41.7174 109.122 41.6195 109.054 41.542C108.99 41.46 108.899 41.3984 108.78 41.3574C108.666 41.3118 108.514 41.2891 108.322 41.2891C108.113 41.2891 107.853 41.2913 107.543 41.2959C107.233 41.2959 106.843 41.2982 106.374 41.3027C105.905 41.3027 105.342 41.305 104.686 41.3096C104.034 41.3096 103.259 41.3096 102.361 41.3096C102.352 41.7288 102.339 42.2461 102.32 42.8613C102.307 43.472 102.288 44.1579 102.266 44.9189C102.247 45.68 102.225 46.5003 102.197 47.3799C102.17 48.2594 102.143 49.1732 102.115 50.1211C102.088 51.069 102.058 52.0397 102.026 53.0332C101.994 54.0267 101.963 55.0156 101.931 56L100.311 56.2051L100.188 56.1914C100.242 54.8835 100.29 53.6416 100.331 52.4658C100.377 51.29 100.415 50.1439 100.447 49.0273C100.479 47.9062 100.502 46.7988 100.516 45.7051C100.534 44.6068 100.543 43.4811 100.543 42.3281ZM119.595 48.9727C119.595 48.6126 119.535 48.3005 119.417 48.0361C119.299 47.7718 119.144 47.5553 118.952 47.3867C118.761 47.2181 118.544 47.0928 118.303 47.0107C118.061 46.9287 117.82 46.8877 117.578 46.8877C117.255 46.8877 116.981 46.9219 116.758 46.9902C116.535 47.0586 116.352 47.152 116.211 47.2705C116.074 47.389 115.974 47.5303 115.91 47.6943C115.851 47.8538 115.821 48.027 115.821 48.2139C115.821 48.4326 115.86 48.6536 115.938 48.877C116.02 49.0957 116.138 49.3099 116.293 49.5195L116.266 49.5947C116.006 49.7223 115.744 49.7861 115.479 49.7861C115.325 49.7861 115.179 49.7633 115.042 49.7178C114.91 49.6676 114.794 49.597 114.693 49.5059C114.598 49.4147 114.52 49.3031 114.461 49.1709C114.406 49.0387 114.379 48.8906 114.379 48.7266C114.379 48.4577 114.443 48.2048 114.57 47.9678C114.702 47.7308 114.876 47.5143 115.09 47.3184C115.304 47.1224 115.552 46.9469 115.835 46.792C116.118 46.637 116.409 46.5072 116.71 46.4023C117.011 46.293 117.312 46.2109 117.612 46.1562C117.918 46.097 118.2 46.0674 118.46 46.0674C118.938 46.0674 119.346 46.1312 119.684 46.2588C120.025 46.3864 120.301 46.5732 120.511 46.8193C120.725 47.0609 120.88 47.3548 120.976 47.7012C121.076 48.0475 121.126 48.4395 121.126 48.877C121.126 49.1777 121.112 49.5081 121.085 49.8682C121.062 50.2282 121.035 50.6064 121.003 51.0029C120.971 51.3949 120.941 51.8005 120.914 52.2197C120.891 52.639 120.88 53.056 120.88 53.4707C120.88 54.127 121.001 54.6214 121.242 54.9541C121.488 55.2822 121.81 55.4463 122.206 55.4463C122.557 55.4463 122.949 55.3164 123.382 55.0566L123.58 55.3506C123.275 55.6559 122.942 55.8883 122.582 56.0479C122.222 56.2074 121.844 56.2871 121.447 56.2871C121.151 56.2871 120.878 56.237 120.627 56.1367C120.376 56.0365 120.16 55.8883 119.978 55.6924C119.795 55.4919 119.654 55.2412 119.554 54.9404C119.453 54.6396 119.403 54.291 119.403 53.8945C119.403 53.776 119.406 53.6576 119.41 53.5391C119.419 53.4206 119.435 53.2952 119.458 53.1631H119.417C119.221 53.555 118.993 53.9424 118.733 54.3252C118.478 54.7035 118.196 55.043 117.886 55.3438C117.58 55.64 117.252 55.8792 116.901 56.0615C116.555 56.2484 116.19 56.3418 115.808 56.3418C115.493 56.3418 115.206 56.2871 114.946 56.1777C114.687 56.0684 114.463 55.918 114.276 55.7266C114.094 55.5352 113.951 55.3096 113.846 55.0498C113.745 54.7855 113.695 54.4984 113.695 54.1885C113.695 53.7874 113.768 53.4229 113.914 53.0947C114.064 52.7666 114.27 52.4727 114.529 52.2129C114.794 51.9531 115.108 51.7298 115.473 51.543C115.837 51.3516 116.234 51.1943 116.662 51.0713C117.09 50.9437 117.544 50.8503 118.022 50.791C118.501 50.7272 118.989 50.6953 119.485 50.6953C119.517 50.4082 119.542 50.1302 119.561 49.8613C119.583 49.5924 119.595 49.2962 119.595 48.9727ZM115.397 53.6689C115.397 53.8467 115.416 54.0176 115.452 54.1816C115.493 54.3411 115.555 54.4824 115.637 54.6055C115.723 54.7285 115.83 54.8265 115.958 54.8994C116.09 54.9678 116.247 55.002 116.43 55.002C116.635 55.002 116.847 54.9541 117.065 54.8584C117.284 54.7627 117.498 54.6305 117.708 54.4619C117.922 54.2933 118.125 54.0928 118.316 53.8604C118.512 53.6234 118.688 53.3659 118.843 53.0879C118.998 52.8099 119.125 52.5182 119.226 52.2129C119.33 51.903 119.399 51.5863 119.431 51.2627C119.093 51.2718 118.758 51.2946 118.426 51.3311C118.093 51.363 117.776 51.4154 117.476 51.4883C117.179 51.5612 116.904 51.6569 116.648 51.7754C116.393 51.8939 116.172 52.042 115.985 52.2197C115.803 52.3929 115.66 52.6003 115.555 52.8418C115.45 53.0788 115.397 53.3545 115.397 53.6689ZM129.568 48.9795C129.696 48.7288 129.76 48.4736 129.76 48.2139C129.76 48.0361 129.728 47.8698 129.664 47.7148C129.605 47.5553 129.514 47.4163 129.391 47.2979C129.268 47.1748 129.113 47.0791 128.926 47.0107C128.743 46.9378 128.529 46.9014 128.283 46.9014C127.928 46.9014 127.609 46.9652 127.326 47.0928C127.044 47.2158 126.793 47.3867 126.574 47.6055C126.36 47.8242 126.175 48.0771 126.021 48.3643C125.87 48.6514 125.745 48.959 125.645 49.2871C125.549 49.6152 125.478 49.9525 125.433 50.2988C125.387 50.6406 125.364 50.9756 125.364 51.3037C125.364 51.8916 125.439 52.4271 125.59 52.9102C125.745 53.3887 125.952 53.7988 126.212 54.1406C126.472 54.4779 126.775 54.7399 127.121 54.9268C127.467 55.1136 127.837 55.207 128.229 55.207C128.643 55.207 129.062 55.0999 129.486 54.8857C129.915 54.667 130.329 54.3161 130.73 53.833C130.758 53.8467 130.792 53.8672 130.833 53.8945C130.879 53.9173 130.92 53.9447 130.956 53.9766C130.993 54.0085 131.024 54.0404 131.052 54.0723C131.079 54.1042 131.093 54.1338 131.093 54.1611C131.093 54.1794 131.09 54.1908 131.086 54.1953L131.072 54.2227C130.63 54.9382 130.099 55.4736 129.479 55.8291C128.86 56.1846 128.181 56.3623 127.442 56.3623C127.041 56.3623 126.672 56.3053 126.335 56.1914C125.998 56.082 125.692 55.9294 125.419 55.7334C125.146 55.5329 124.904 55.2982 124.694 55.0293C124.489 54.7559 124.316 54.4619 124.175 54.1475C124.038 53.8285 123.933 53.4958 123.86 53.1494C123.792 52.7985 123.758 52.4453 123.758 52.0898C123.758 51.6113 123.81 51.1328 123.915 50.6543C124.02 50.1712 124.173 49.7087 124.373 49.2666C124.578 48.82 124.824 48.4053 125.111 48.0225C125.403 47.6351 125.731 47.3001 126.096 47.0176C126.465 46.7305 126.87 46.5072 127.312 46.3477C127.755 46.1836 128.226 46.1016 128.728 46.1016C129.101 46.1016 129.45 46.1471 129.773 46.2383C130.097 46.3294 130.375 46.4593 130.607 46.6279C130.844 46.792 131.029 46.9925 131.161 47.2295C131.298 47.4619 131.366 47.7217 131.366 48.0088C131.366 48.1956 131.337 48.362 131.277 48.5078C131.223 48.6491 131.143 48.7721 131.038 48.877C130.938 48.9772 130.817 49.0547 130.676 49.1094C130.539 49.1595 130.389 49.1846 130.225 49.1846C130.124 49.1846 130.02 49.1755 129.91 49.1572C129.805 49.1344 129.701 49.1003 129.596 49.0547L129.568 48.9795ZM147.212 55.166C147.043 55.2982 146.836 55.4326 146.59 55.5693C146.348 55.7015 146.095 55.8223 145.831 55.9316C145.567 56.041 145.309 56.1299 145.059 56.1982C144.808 56.2666 144.591 56.3008 144.409 56.3008C144.286 56.3008 144.172 56.2894 144.067 56.2666C143.967 56.2484 143.874 56.2005 143.787 56.123C143.705 56.0456 143.63 55.9316 143.562 55.7812C143.498 55.6263 143.443 55.4167 143.397 55.1523C143.352 54.888 143.318 54.5599 143.295 54.168C143.272 53.776 143.261 53.2998 143.261 52.7393C143.261 52.1195 143.268 51.5635 143.281 51.0713C143.295 50.5791 143.309 50.1439 143.322 49.7656C143.336 49.3874 143.35 49.0638 143.363 48.7949C143.377 48.5215 143.384 48.2959 143.384 48.1182C143.384 47.9769 143.377 47.8493 143.363 47.7354C143.35 47.6214 143.318 47.5257 143.268 47.4482C143.217 47.3662 143.142 47.3047 143.042 47.2637C142.942 47.2181 142.807 47.1953 142.639 47.1953C142.37 47.1953 142.028 47.1976 141.613 47.2021C141.203 47.2021 140.684 47.2044 140.055 47.209C140.027 47.7148 139.998 48.2572 139.966 48.8359C139.938 49.4102 139.911 50.0505 139.884 50.7568C139.861 51.4587 139.838 52.2402 139.815 53.1016C139.793 53.9583 139.774 54.9245 139.761 56L138.325 56.1777L138.216 56.1709C138.252 55.5238 138.289 54.8197 138.325 54.0586C138.362 53.2975 138.396 52.5228 138.428 51.7344C138.464 50.9414 138.494 50.1576 138.517 49.3828C138.539 48.6081 138.555 47.8835 138.564 47.209C138.323 47.2135 138.072 47.2158 137.812 47.2158C137.557 47.2158 137.288 47.2158 137.006 47.2158H135.133C135.151 47.2979 135.165 47.3822 135.174 47.4688C135.183 47.5553 135.188 47.6829 135.188 47.8516C135.188 48.0247 135.178 48.3438 135.16 48.8086C135.146 49.2734 135.124 49.859 135.092 50.5654C135.064 51.2673 135.03 52.0785 134.989 52.999C134.953 53.9196 134.912 54.9199 134.866 56L133.472 56.1777L133.362 56.1709C133.399 55.7243 133.431 55.2549 133.458 54.7627C133.49 54.2705 133.517 53.776 133.54 53.2793C133.567 52.7826 133.59 52.2972 133.608 51.8232C133.631 51.3493 133.647 50.9072 133.656 50.4971C133.67 50.0824 133.679 49.7155 133.684 49.3965C133.693 49.0729 133.697 48.8154 133.697 48.624C133.697 48.3825 133.69 48.1774 133.677 48.0088C133.663 47.8356 133.631 47.6898 133.581 47.5713C133.531 47.4482 133.46 47.3503 133.369 47.2773C133.278 47.2044 133.155 47.1475 133 47.1064C132.845 47.0654 132.654 47.0381 132.426 47.0244C132.202 47.0062 131.931 46.9948 131.612 46.9902L131.599 46.416C132.013 46.4251 132.376 46.432 132.686 46.4365C133 46.4365 133.271 46.4388 133.499 46.4434C133.727 46.4434 133.918 46.4434 134.073 46.4434C134.233 46.4434 134.367 46.4434 134.477 46.4434H134.832C136.322 46.4434 137.623 46.4411 138.735 46.4365C139.852 46.4274 140.8 46.4183 141.579 46.4092C142.363 46.4001 142.987 46.3932 143.452 46.3887C143.917 46.3796 144.245 46.375 144.437 46.375C144.642 46.375 144.79 46.4251 144.881 46.5254C144.972 46.6211 145.018 46.7578 145.018 46.9355C145.018 47.0085 145.008 47.1383 144.99 47.3252C144.977 47.5075 144.958 47.7308 144.936 47.9951C144.913 48.2594 144.885 48.5557 144.854 48.8838C144.826 49.2119 144.801 49.556 144.778 49.916C144.756 50.276 144.735 50.6475 144.717 51.0303C144.703 51.4085 144.696 51.7799 144.696 52.1445C144.696 52.6003 144.703 52.9922 144.717 53.3203C144.735 53.6484 144.76 53.9242 144.792 54.1475C144.828 54.3708 144.872 54.5508 144.922 54.6875C144.972 54.8197 145.034 54.9222 145.106 54.9951C145.179 55.068 145.264 55.1159 145.359 55.1387C145.455 55.1615 145.562 55.1729 145.681 55.1729C145.899 55.1729 146.123 55.1432 146.351 55.084C146.578 55.0202 146.822 54.929 147.082 54.8105L147.212 55.166ZM150.637 56.0615C150.518 55.6286 150.391 55.1751 150.254 54.7012C150.122 54.2272 149.985 53.751 149.844 53.2725C149.707 52.7939 149.568 52.3223 149.427 51.8574C149.29 51.3926 149.156 50.9505 149.023 50.5312C148.896 50.112 148.773 49.7246 148.654 49.3691C148.54 49.0091 148.438 48.6992 148.347 48.4395C148.251 48.1706 148.158 47.9518 148.066 47.7832C147.98 47.61 147.889 47.4756 147.793 47.3799C147.697 47.2842 147.597 47.2181 147.492 47.1816C147.387 47.1452 147.271 47.127 147.144 47.127C146.998 47.127 146.843 47.1429 146.679 47.1748C146.51 47.2067 146.31 47.25 146.077 47.3047L145.975 46.8125C146.248 46.7122 146.515 46.6211 146.774 46.5391C147.039 46.457 147.283 46.3864 147.506 46.3271C147.729 46.2679 147.927 46.2223 148.101 46.1904C148.274 46.1585 148.41 46.1426 148.511 46.1426C148.629 46.1426 148.741 46.1631 148.846 46.2041C148.955 46.2451 149.06 46.318 149.16 46.4229C149.265 46.5231 149.365 46.6644 149.461 46.8467C149.557 47.0244 149.652 47.25 149.748 47.5234C149.812 47.6966 149.887 47.9199 149.974 48.1934C150.065 48.4622 150.163 48.7699 150.268 49.1162C150.372 49.458 150.484 49.8317 150.603 50.2373C150.721 50.6429 150.84 51.0667 150.958 51.5088C151.081 51.9463 151.202 52.3952 151.32 52.8555C151.439 53.3158 151.553 53.7715 151.662 54.2227C151.89 53.6257 152.127 53.0036 152.373 52.3564C152.624 51.7048 152.877 51.0508 153.132 50.3945C153.392 49.7383 153.649 49.0889 153.904 48.4463C154.16 47.7992 154.406 47.1816 154.643 46.5938C154.684 46.4935 154.738 46.4115 154.807 46.3477C154.88 46.2839 154.959 46.2337 155.046 46.1973C155.132 46.1562 155.221 46.1289 155.312 46.1152C155.408 46.097 155.502 46.0879 155.593 46.0879C155.743 46.0879 155.889 46.1107 156.03 46.1562C156.172 46.1973 156.306 46.2497 156.434 46.3135C156.229 46.6462 156.014 47.0176 155.791 47.4277C155.572 47.8333 155.347 48.2686 155.114 48.7334C154.882 49.1937 154.647 49.6745 154.41 50.1758C154.178 50.6771 153.945 51.1898 153.713 51.7139C153.48 52.2334 153.25 52.7575 153.022 53.2861C152.799 53.8102 152.583 54.3275 152.373 54.8379C152.159 55.3529 151.956 55.861 151.765 56.3623C151.573 56.8682 151.386 57.3558 151.204 57.8252C151.022 58.2992 150.842 58.7526 150.664 59.1855C150.491 59.623 150.313 60.0309 150.131 60.4092C149.958 60.7601 149.773 61.0859 149.577 61.3867C149.381 61.6921 149.165 61.9541 148.928 62.1729C148.691 62.3962 148.429 62.5716 148.142 62.6992C147.859 62.8268 147.545 62.8906 147.198 62.8906C146.984 62.8906 146.79 62.861 146.617 62.8018C146.444 62.7471 146.298 62.6719 146.18 62.5762C146.057 62.485 145.963 62.3779 145.899 62.2549C145.836 62.1318 145.804 62.002 145.804 61.8652C145.804 61.7148 145.849 61.5576 145.94 61.3936C146.027 61.234 146.143 61.1133 146.289 61.0312C146.48 61.1497 146.674 61.234 146.87 61.2842C147.066 61.3343 147.242 61.3594 147.396 61.3594C147.77 61.3594 148.101 61.2568 148.388 61.0518C148.679 60.8512 148.953 60.5482 149.208 60.1426C149.463 59.737 149.718 59.2288 149.974 58.6182C150.233 58.0075 150.521 57.292 150.835 56.4717L150.972 56.1094L150.637 56.0615ZM160.07 55.2412C160.198 55.2412 160.339 55.2412 160.494 55.2412C160.649 55.2367 160.806 55.2344 160.966 55.2344C161.125 55.2344 161.283 55.2344 161.438 55.2344C161.597 55.2298 161.747 55.2275 161.889 55.2275C161.893 54.6533 161.905 54.0244 161.923 53.3408C161.946 52.6527 161.971 51.9395 161.998 51.2012C162.03 50.4629 162.064 49.7155 162.101 48.959C162.142 48.2025 162.183 47.4642 162.224 46.7441C162.233 46.5527 162.308 46.4092 162.449 46.3135C162.595 46.2178 162.784 46.1699 163.017 46.1699C163.254 46.1699 163.5 46.236 163.755 46.3682C163.618 47.9404 163.513 49.4648 163.44 50.9414C163.372 52.4134 163.338 53.8444 163.338 55.2344H165.86C166.02 55.2344 166.186 55.2344 166.359 55.2344C166.533 55.2344 166.71 55.2321 166.893 55.2275C166.874 55.1318 166.858 55.0316 166.845 54.9268C166.836 54.8219 166.829 54.708 166.824 54.585C166.82 54.4619 166.815 54.3275 166.811 54.1816C166.811 54.0358 166.811 53.8717 166.811 53.6895C166.811 53.2975 166.815 52.8646 166.824 52.3906C166.838 51.9121 166.854 51.388 166.872 50.8184C166.895 50.2487 166.922 49.6266 166.954 48.9521C166.991 48.2731 167.032 47.5371 167.077 46.7441C167.086 46.5527 167.164 46.4092 167.31 46.3135C167.46 46.2178 167.651 46.1699 167.884 46.1699C168.125 46.1699 168.374 46.236 168.629 46.3682C168.583 46.8877 168.542 47.3685 168.506 47.8105C168.474 48.248 168.444 48.6582 168.417 49.041C168.39 49.4193 168.367 49.777 168.349 50.1143C168.335 50.4515 168.321 50.7819 168.308 51.1055C168.299 51.429 168.292 51.7526 168.287 52.0762C168.283 52.3952 168.28 52.7279 168.28 53.0742C168.28 53.4388 168.283 53.7487 168.287 54.0039C168.296 54.2546 168.317 54.4665 168.349 54.6396C168.381 54.8083 168.433 54.9427 168.506 55.043C168.579 55.1432 168.679 55.2207 168.807 55.2754C168.939 55.3301 169.105 55.3711 169.306 55.3984C169.511 55.4212 169.759 55.4417 170.051 55.46L170.03 56.0547C169.479 56.041 168.914 56.0296 168.335 56.0205C167.761 56.016 167.198 56.0114 166.646 56.0068C166.1 56.0023 165.578 56 165.081 56C164.589 56 164.151 56 163.769 56C163.035 56 162.34 56.0023 161.684 56.0068C161.032 56.016 160.453 56.0228 159.947 56.0273C159.441 56.0365 159.029 56.0433 158.71 56.0479C158.396 56.057 158.209 56.0615 158.149 56.0615C157.931 56.0615 157.746 56.0365 157.596 55.9863C157.45 55.9362 157.331 55.8633 157.24 55.7676C157.154 55.6673 157.092 55.5465 157.056 55.4053C157.019 55.264 157.001 55.0999 157.001 54.9131C157.001 54.749 157.015 54.4346 157.042 53.9697C157.069 53.5049 157.097 52.9193 157.124 52.2129C157.156 51.502 157.186 50.6885 157.213 49.7725C157.24 48.8519 157.254 47.8538 157.254 46.7783C157.254 46.5732 157.334 46.416 157.493 46.3066C157.657 46.1927 157.862 46.1357 158.108 46.1357C158.227 46.1357 158.35 46.1517 158.478 46.1836C158.605 46.2155 158.735 46.2679 158.867 46.3408C158.844 46.7008 158.819 47.0951 158.792 47.5234C158.769 47.9518 158.744 48.3962 158.717 48.8564C158.694 49.3122 158.671 49.777 158.648 50.251C158.63 50.7204 158.612 51.1784 158.594 51.625C158.576 52.0671 158.562 52.4886 158.553 52.8896C158.544 53.2907 158.539 53.6507 158.539 53.9697C158.539 54.1885 158.546 54.3799 158.56 54.5439C158.573 54.7035 158.614 54.8356 158.683 54.9404C158.756 55.0407 158.865 55.1159 159.011 55.166C159.161 55.2161 159.371 55.2412 159.64 55.2412H160.07ZM178.343 53.8809C178.37 53.8945 178.404 53.915 178.445 53.9424C178.491 53.9652 178.532 53.9925 178.568 54.0244C178.605 54.0518 178.637 54.0837 178.664 54.1201C178.691 54.152 178.705 54.1839 178.705 54.2158C178.705 54.234 178.698 54.2523 178.685 54.2705C178.429 54.626 178.154 54.9359 177.857 55.2002C177.566 55.46 177.26 55.6787 176.941 55.8564C176.627 56.0296 176.306 56.1572 175.978 56.2393C175.649 56.3258 175.326 56.3691 175.007 56.3691C174.46 56.3691 173.959 56.2575 173.503 56.0342C173.047 55.8109 172.655 55.5055 172.327 55.1182C171.999 54.7308 171.742 54.2773 171.555 53.7578C171.372 53.2337 171.281 52.6732 171.281 52.0762C171.281 51.5885 171.334 51.1009 171.438 50.6133C171.548 50.1257 171.703 49.6608 171.903 49.2188C172.108 48.7767 172.357 48.3665 172.648 47.9883C172.94 47.6055 173.271 47.2751 173.64 46.9971C174.013 46.7145 174.421 46.4935 174.863 46.334C175.31 46.1745 175.788 46.0947 176.299 46.0947C176.636 46.0947 176.957 46.1403 177.263 46.2314C177.568 46.3226 177.835 46.4548 178.062 46.6279C178.295 46.7965 178.479 47.0062 178.616 47.2568C178.753 47.5075 178.821 47.7923 178.821 48.1113C178.821 48.5762 178.669 48.9818 178.363 49.3281C178.062 49.6745 177.646 49.9684 177.112 50.21C176.579 50.4515 175.95 50.6475 175.226 50.7979C174.506 50.9437 173.726 51.0531 172.888 51.126V51.2422C172.888 51.8255 172.961 52.3587 173.106 52.8418C173.257 53.3249 173.462 53.7396 173.722 54.0859C173.981 54.4277 174.287 54.6943 174.638 54.8857C174.989 55.0771 175.367 55.1729 175.772 55.1729C176.183 55.1729 176.602 55.0726 177.03 54.8721C177.463 54.667 177.901 54.3366 178.343 53.8809ZM177.058 48.3916C177.058 48.182 177.021 47.986 176.948 47.8037C176.88 47.6214 176.782 47.4642 176.654 47.332C176.531 47.1953 176.383 47.0882 176.21 47.0107C176.037 46.9333 175.85 46.8945 175.649 46.8945C175.353 46.8945 175.084 46.9469 174.843 47.0518C174.601 47.1566 174.385 47.3001 174.193 47.4824C174.002 47.6602 173.833 47.8698 173.688 48.1113C173.542 48.3483 173.416 48.6012 173.312 48.8701C173.211 49.139 173.129 49.4147 173.065 49.6973C173.002 49.9798 172.956 50.2555 172.929 50.5244C173.576 50.4788 174.155 50.4014 174.665 50.292C175.18 50.1781 175.613 50.0345 175.964 49.8613C176.319 49.6836 176.59 49.474 176.777 49.2324C176.964 48.9863 177.058 48.7061 177.058 48.3916ZM181.337 48.1387C181.337 47.9928 181.328 47.8607 181.31 47.7422C181.296 47.6191 181.264 47.5143 181.214 47.4277C181.168 47.3411 181.1 47.2751 181.009 47.2295C180.918 47.1794 180.795 47.1543 180.64 47.1543C180.494 47.1543 180.312 47.1748 180.093 47.2158C179.879 47.2568 179.607 47.3206 179.279 47.4072L179.177 46.915C179.947 46.6507 180.576 46.457 181.063 46.334C181.551 46.2109 181.891 46.1494 182.082 46.1494C182.201 46.1494 182.312 46.1676 182.417 46.2041C182.522 46.236 182.613 46.293 182.69 46.375C182.772 46.4525 182.836 46.5596 182.882 46.6963C182.927 46.8285 182.95 46.9925 182.95 47.1885C182.95 47.2477 182.943 47.3822 182.93 47.5918C182.921 47.8014 182.905 48.0635 182.882 48.3779C182.864 48.6878 182.843 49.0365 182.82 49.4238C182.798 49.8066 182.775 50.2031 182.752 50.6133C183.158 50.5951 183.554 50.5791 183.941 50.5654C184.329 50.5518 184.712 50.5426 185.09 50.5381C185.468 50.529 185.846 50.5221 186.225 50.5176C186.603 50.5085 186.988 50.5016 187.38 50.4971C187.394 49.9274 187.412 49.3418 187.435 48.7402C187.462 48.1341 187.498 47.4801 187.544 46.7783C187.553 46.6507 187.587 46.5482 187.646 46.4707C187.706 46.3887 187.776 46.3271 187.858 46.2861C187.945 46.2406 188.036 46.2109 188.132 46.1973C188.228 46.179 188.319 46.1699 188.405 46.1699C188.56 46.1699 188.704 46.1882 188.836 46.2246C188.973 46.2565 189.109 46.3066 189.246 46.375C189.178 46.9036 189.116 47.4277 189.062 47.9473C189.011 48.4668 188.968 48.9681 188.932 49.4512C188.9 49.9342 188.875 50.3923 188.856 50.8252C188.838 51.2581 188.829 51.6523 188.829 52.0078C188.829 52.4863 188.836 52.8988 188.85 53.2451C188.863 53.5869 188.886 53.8763 188.918 54.1133C188.95 54.3457 188.991 54.5326 189.041 54.6738C189.096 54.8105 189.157 54.9176 189.226 54.9951C189.299 55.068 189.381 55.1159 189.472 55.1387C189.567 55.1615 189.674 55.1729 189.793 55.1729C190.012 55.1729 190.24 55.141 190.477 55.0771C190.714 55.0088 190.962 54.9154 191.222 54.7969L191.352 55.1523C191.188 55.2845 190.98 55.4189 190.729 55.5557C190.479 55.6878 190.217 55.8109 189.943 55.9248C189.674 56.0342 189.41 56.123 189.15 56.1914C188.895 56.2643 188.679 56.3008 188.501 56.3008C188.373 56.3008 188.257 56.2894 188.152 56.2666C188.048 56.2438 187.952 56.1914 187.865 56.1094C187.783 56.0319 187.71 55.9134 187.646 55.7539C187.583 55.5898 187.528 55.3711 187.482 55.0977C187.441 54.8197 187.41 54.4733 187.387 54.0586C187.368 53.6439 187.359 53.1426 187.359 52.5547V51.9395C187.359 51.8255 187.359 51.7116 187.359 51.5977C187.359 51.4792 187.362 51.3584 187.366 51.2354C186.587 51.2354 185.821 51.2467 185.069 51.2695C184.317 51.2923 183.531 51.3265 182.711 51.3721C182.674 52.0921 182.645 52.8418 182.622 53.6211C182.599 54.3958 182.586 55.1888 182.581 56L181.104 56.1777L180.995 56.1709C181.027 55.7288 181.057 55.248 181.084 54.7285C181.116 54.2044 181.143 53.6758 181.166 53.1426C181.193 52.6048 181.216 52.0762 181.234 51.5566C181.257 51.0326 181.275 50.5472 181.289 50.1006C181.303 49.654 181.314 49.2598 181.323 48.918C181.332 48.5762 181.337 48.3164 181.337 48.1387ZM192.883 56.1709C192.915 55.738 192.944 55.2663 192.972 54.7559C193.004 54.2454 193.031 53.7282 193.054 53.2041C193.081 52.6755 193.104 52.1536 193.122 51.6387C193.145 51.1191 193.163 50.6361 193.177 50.1895C193.19 49.7383 193.202 49.335 193.211 48.9795C193.22 48.624 193.225 48.3438 193.225 48.1387C193.225 47.9928 193.215 47.8607 193.197 47.7422C193.184 47.6191 193.152 47.5143 193.102 47.4277C193.056 47.3411 192.988 47.2751 192.896 47.2295C192.805 47.1794 192.682 47.1543 192.527 47.1543C192.382 47.1543 192.199 47.1748 191.98 47.2158C191.766 47.2568 191.495 47.3206 191.167 47.4072L191.064 46.915C191.826 46.6507 192.45 46.457 192.938 46.334C193.425 46.2109 193.765 46.1494 193.956 46.1494C194.079 46.1494 194.193 46.1676 194.298 46.2041C194.407 46.236 194.501 46.293 194.578 46.375C194.66 46.4525 194.724 46.5596 194.77 46.6963C194.82 46.8285 194.845 46.9948 194.845 47.1953C194.845 47.25 194.838 47.373 194.824 47.5645C194.815 47.7513 194.801 47.9906 194.783 48.2822C194.77 48.5693 194.751 48.8997 194.729 49.2734C194.706 49.6426 194.681 50.0368 194.653 50.4561C194.631 50.8753 194.608 51.3105 194.585 51.7617C194.562 52.2129 194.542 52.6641 194.523 53.1152C194.51 53.5618 194.496 53.9993 194.482 54.4277C194.473 54.8561 194.469 55.2572 194.469 55.6309V56L192.992 56.1777L192.883 56.1709ZM194.763 51.3242L194.77 51.2422C195.316 50.8138 195.793 50.431 196.198 50.0938C196.608 49.752 196.959 49.4466 197.251 49.1777C197.543 48.9043 197.784 48.6582 197.976 48.4395C198.167 48.2207 198.317 48.0202 198.427 47.8379C198.536 47.651 198.611 47.4756 198.652 47.3115C198.698 47.1475 198.721 46.9834 198.721 46.8193C198.721 46.6188 198.698 46.4183 198.652 46.2178L198.673 46.1426C198.828 46.097 198.987 46.0742 199.151 46.0742C199.279 46.0742 199.4 46.0924 199.514 46.1289C199.632 46.1654 199.735 46.2201 199.821 46.293C199.912 46.3613 199.983 46.4502 200.033 46.5596C200.088 46.6689 200.115 46.7965 200.115 46.9424C200.115 47.0745 200.092 47.2044 200.047 47.332C200.006 47.4551 199.931 47.5895 199.821 47.7354C199.712 47.8812 199.564 48.0475 199.377 48.2344C199.19 48.4167 198.953 48.6331 198.666 48.8838C198.379 49.1344 198.037 49.4261 197.641 49.7588C197.244 50.0915 196.779 50.4766 196.246 50.9141C196.715 51.5612 197.119 52.1172 197.456 52.582C197.798 53.0423 198.092 53.4297 198.338 53.7441C198.584 54.0586 198.794 54.3092 198.967 54.4961C199.14 54.6829 199.293 54.8265 199.425 54.9268C199.562 55.027 199.687 55.0931 199.801 55.125C199.919 55.1523 200.047 55.166 200.184 55.166C200.389 55.166 200.589 55.141 200.785 55.0908C200.981 55.0407 201.195 54.9723 201.428 54.8857L201.558 55.248C201.325 55.4121 201.086 55.5579 200.84 55.6855C200.598 55.8086 200.366 55.9134 200.143 56C199.919 56.0866 199.712 56.1527 199.521 56.1982C199.334 56.2438 199.176 56.2666 199.049 56.2666C198.93 56.2666 198.81 56.2415 198.687 56.1914C198.568 56.1458 198.436 56.0615 198.29 55.9385C198.149 55.8154 197.987 55.6491 197.805 55.4395C197.622 55.2253 197.406 54.9541 197.155 54.626C196.909 54.2979 196.622 53.9082 196.294 53.457C195.966 53.0013 195.583 52.4681 195.146 51.8574L194.763 51.3242ZM201.564 52.0693C201.564 51.609 201.612 51.1419 201.708 50.668C201.804 50.194 201.945 49.736 202.132 49.2939C202.319 48.8473 202.549 48.4303 202.822 48.043C203.1 47.651 203.419 47.3092 203.779 47.0176C204.139 46.7259 204.54 46.4958 204.982 46.3271C205.424 46.1585 205.905 46.0742 206.425 46.0742C207.008 46.0742 207.523 46.1973 207.97 46.4434C208.421 46.6895 208.799 47.0153 209.104 47.4209C209.41 47.8219 209.64 48.2799 209.795 48.7949C209.954 49.3099 210.034 49.8363 210.034 50.374C210.034 50.8343 209.986 51.3014 209.891 51.7754C209.795 52.2493 209.651 52.7096 209.46 53.1562C209.273 53.5983 209.041 54.0153 208.763 54.4072C208.489 54.7946 208.173 55.1341 207.812 55.4258C207.452 55.7174 207.051 55.9476 206.609 56.1162C206.167 56.2848 205.687 56.3691 205.167 56.3691C204.584 56.3691 204.066 56.2461 203.615 56C203.169 55.7539 202.793 55.4303 202.487 55.0293C202.187 54.6237 201.956 54.1634 201.797 53.6484C201.642 53.1335 201.564 52.6071 201.564 52.0693ZM203.198 51.4199C203.198 51.7298 203.221 52.0443 203.267 52.3633C203.317 52.6823 203.392 52.9899 203.492 53.2861C203.592 53.5824 203.715 53.8604 203.861 54.1201C204.012 54.3753 204.187 54.5986 204.388 54.79C204.593 54.9814 204.821 55.1318 205.071 55.2412C205.326 55.3506 205.607 55.4053 205.912 55.4053C206.245 55.4053 206.536 55.3346 206.787 55.1934C207.042 55.0475 207.261 54.8561 207.443 54.6191C207.63 54.3822 207.783 54.111 207.901 53.8057C208.024 53.5003 208.122 53.1859 208.195 52.8623C208.268 52.5342 208.318 52.2106 208.346 51.8916C208.378 51.5726 208.394 51.2786 208.394 51.0098C208.394 50.6953 208.368 50.3809 208.318 50.0664C208.273 49.7474 208.2 49.4421 208.1 49.1504C207.999 48.8542 207.874 48.5785 207.724 48.3232C207.578 48.0635 207.402 47.8402 207.197 47.6533C206.997 47.4619 206.769 47.3115 206.514 47.2021C206.263 47.0928 205.985 47.0381 205.68 47.0381C205.347 47.0381 205.053 47.1087 204.798 47.25C204.547 47.3913 204.328 47.5804 204.142 47.8174C203.959 48.0544 203.807 48.3255 203.684 48.6309C203.565 48.9362 203.469 49.2507 203.396 49.5742C203.324 49.8978 203.271 50.2214 203.239 50.5449C203.212 50.8639 203.198 51.1556 203.198 51.4199Z" fill="#6E707F"/>
<path d="M86.8213 35.1455C87.1631 35.2321 87.4889 35.2913 87.7988 35.3232C88.1087 35.3551 88.4209 35.3711 88.7354 35.3711C89.3005 35.3711 89.8291 35.3027 90.3213 35.166C90.8135 35.0247 91.2396 34.806 91.5996 34.5098C91.9642 34.209 92.249 33.8262 92.4541 33.3613C92.6637 32.8919 92.7686 32.3314 92.7686 31.6797C92.7686 31.0736 92.6637 30.5426 92.4541 30.0869C92.2445 29.6266 91.9391 29.2438 91.5381 28.9385C91.1416 28.6331 90.6517 28.4053 90.0684 28.2549C89.485 28.0999 88.8197 28.0225 88.0723 28.0225C87.9264 28.0225 87.776 28.027 87.6211 28.0361C87.4707 28.0407 87.318 28.0475 87.1631 28.0566C87.154 28.3346 87.1426 28.6605 87.1289 29.0342C87.1152 29.4033 87.0993 29.7998 87.0811 30.2236C87.0628 30.6475 87.0423 31.085 87.0195 31.5361C87.0013 31.9873 86.9808 32.4294 86.958 32.8623C86.9352 33.2952 86.9124 33.7077 86.8896 34.0996C86.8669 34.4915 86.8441 34.8402 86.8213 35.1455ZM87.334 21.0225C87.3294 21.3187 87.3226 21.6833 87.3135 22.1162C87.3044 22.5446 87.293 23.0277 87.2793 23.5654C87.2656 24.0986 87.2497 24.6797 87.2314 25.3086C87.2178 25.9375 87.2018 26.6006 87.1836 27.2979C87.5801 27.2887 87.972 27.2568 88.3594 27.2021C88.7513 27.1429 89.1227 27.0563 89.4736 26.9424C89.8291 26.8285 90.1572 26.6803 90.458 26.498C90.7588 26.3112 91.0186 26.0879 91.2373 25.8281C91.4606 25.5684 91.6338 25.2653 91.7568 24.9189C91.8844 24.568 91.9482 24.1693 91.9482 23.7227C91.9482 23.1986 91.8639 22.7565 91.6953 22.3965C91.5267 22.0365 91.2943 21.7471 90.998 21.5283C90.7064 21.3096 90.3623 21.1523 89.9658 21.0566C89.5739 20.9609 89.1523 20.9131 88.7012 20.9131C88.4824 20.9131 88.2568 20.9222 88.0244 20.9404C87.7965 20.9587 87.5664 20.986 87.334 21.0225ZM85.5498 22.417C85.5498 22.2256 85.5339 22.0615 85.502 21.9248C85.4701 21.7881 85.4131 21.6764 85.3311 21.5898C85.2536 21.5033 85.1442 21.4395 85.0029 21.3984C84.8617 21.3574 84.6816 21.3369 84.4629 21.3369C84.1621 21.3369 83.777 21.3711 83.3076 21.4395L83.2393 20.8311C83.654 20.7536 84.1051 20.6738 84.5928 20.5918C85.0804 20.5098 85.5817 20.4346 86.0967 20.3662C86.6162 20.2979 87.1357 20.2432 87.6553 20.2021C88.1794 20.1566 88.6852 20.1338 89.1729 20.1338C89.5693 20.1338 89.959 20.1543 90.3418 20.1953C90.7246 20.2363 91.0869 20.3047 91.4287 20.4004C91.7705 20.4915 92.085 20.6169 92.3721 20.7764C92.6592 20.9313 92.9076 21.125 93.1172 21.3574C93.3268 21.5898 93.4909 21.8656 93.6094 22.1846C93.7279 22.499 93.7871 22.8613 93.7871 23.2715C93.7871 23.8594 93.68 24.3835 93.4658 24.8438C93.2562 25.2995 92.9714 25.6982 92.6113 26.04C92.2513 26.3773 91.8366 26.6621 91.3672 26.8945C90.8978 27.1224 90.4033 27.3047 89.8838 27.4414V27.5029C90.5674 27.5531 91.1986 27.667 91.7773 27.8447C92.3561 28.0225 92.8574 28.2754 93.2812 28.6035C93.7051 28.9316 94.0355 29.3372 94.2725 29.8203C94.514 30.3034 94.6348 30.8753 94.6348 31.5361C94.6348 32.0921 94.5573 32.5934 94.4023 33.04C94.252 33.4867 94.0423 33.8831 93.7734 34.2295C93.5046 34.5758 93.1855 34.8721 92.8164 35.1182C92.4518 35.3643 92.0553 35.5671 91.627 35.7266C91.1986 35.8861 90.7474 36.0023 90.2734 36.0752C89.7995 36.1527 89.321 36.1914 88.8379 36.1914C88.4368 36.1914 88.0518 36.1686 87.6826 36.123C87.318 36.0775 86.9284 36.0205 86.5137 35.9521L85.1875 36.1094L85.0645 36.0957C85.1237 35.4941 85.1761 34.8447 85.2217 34.1475C85.2718 33.4502 85.3128 32.721 85.3447 31.96C85.3812 31.1989 85.4131 30.4173 85.4404 29.6152C85.4678 28.8132 85.4883 28.0065 85.502 27.1953C85.5202 26.3796 85.5316 25.5706 85.5361 24.7686C85.5452 23.9619 85.5498 23.1781 85.5498 22.417ZM97.1777 36.1777L97.0684 36.1709C97.1139 35.5101 97.1595 34.8174 97.2051 34.0928C97.2507 33.3682 97.2917 32.6527 97.3281 31.9463C97.3691 31.2399 97.401 30.5609 97.4238 29.9092C97.4466 29.2529 97.458 28.6628 97.458 28.1387C97.458 27.7969 97.4079 27.5485 97.3076 27.3936C97.2119 27.234 97.0319 27.1543 96.7676 27.1543C96.6126 27.1543 96.4281 27.1748 96.2139 27.2158C95.9997 27.2568 95.7285 27.3206 95.4004 27.4072L95.2979 26.915C95.6396 26.792 95.9632 26.6826 96.2686 26.5869C96.5739 26.4912 96.8496 26.4115 97.0957 26.3477C97.3464 26.2839 97.5651 26.236 97.752 26.2041C97.9388 26.1676 98.0824 26.1494 98.1826 26.1494C98.3102 26.1494 98.4287 26.1676 98.5381 26.2041C98.6475 26.2406 98.7409 26.2998 98.8184 26.3818C98.8958 26.4639 98.9551 26.571 98.9961 26.7031C99.0417 26.8353 99.0645 26.9993 99.0645 27.1953C99.0645 27.3822 99.0553 27.6214 99.0371 27.9131C99.0234 28.2002 99.0029 28.5283 98.9756 28.8975C98.9528 29.262 98.9255 29.6608 98.8936 30.0938C98.8617 30.5267 98.8275 30.9801 98.791 31.4541C98.7591 31.9281 98.7249 32.4157 98.6885 32.917C98.6566 33.4183 98.627 33.9219 98.5996 34.4277L98.6543 34.4414C99.4655 33.056 100.29 31.6979 101.129 30.3672C101.972 29.0365 102.831 27.7103 103.706 26.3887L105.244 26.1973L105.354 26.2041C105.326 26.4639 105.297 26.7624 105.265 27.0996C105.237 27.4323 105.21 27.7832 105.183 28.1523C105.155 28.5169 105.128 28.8952 105.101 29.2871C105.078 29.6745 105.057 30.055 105.039 30.4287C105.021 30.7979 105.005 31.1533 104.991 31.4951C104.982 31.8324 104.978 32.1377 104.978 32.4111C104.978 32.9854 104.991 33.4525 105.019 33.8125C105.05 34.168 105.103 34.4482 105.176 34.6533C105.249 34.8538 105.344 34.9906 105.463 35.0635C105.581 35.1364 105.729 35.1729 105.907 35.1729C106.126 35.1729 106.358 35.1387 106.604 35.0703C106.855 35.002 107.11 34.9085 107.37 34.79L107.514 35.1387C107.35 35.2708 107.149 35.4053 106.912 35.542C106.675 35.6787 106.422 35.804 106.153 35.918C105.889 36.0319 105.622 36.123 105.354 36.1914C105.085 36.2643 104.839 36.3008 104.615 36.3008C104.383 36.3008 104.194 36.2279 104.048 36.082C103.902 35.9408 103.788 35.7334 103.706 35.46C103.624 35.1865 103.567 34.8516 103.535 34.4551C103.503 34.054 103.487 33.5983 103.487 33.0879C103.487 32.9193 103.49 32.7119 103.494 32.4658C103.503 32.2152 103.512 31.9395 103.521 31.6387C103.535 31.3379 103.551 31.0212 103.569 30.6885C103.588 30.3512 103.608 30.014 103.631 29.6768C103.658 29.335 103.686 29.0023 103.713 28.6787C103.745 28.3506 103.779 28.0452 103.815 27.7627L103.761 27.749C102.881 29.098 102.02 30.4561 101.177 31.8232C100.334 33.1904 99.4928 34.5827 98.6543 36L97.1777 36.1777ZM122.888 35.166C122.719 35.2982 122.512 35.4326 122.266 35.5693C122.024 35.7015 121.771 35.8223 121.507 35.9316C121.243 36.041 120.985 36.1299 120.734 36.1982C120.484 36.2666 120.267 36.3008 120.085 36.3008C119.962 36.3008 119.848 36.2894 119.743 36.2666C119.643 36.2484 119.549 36.2005 119.463 36.123C119.381 36.0456 119.306 35.9316 119.237 35.7812C119.174 35.6263 119.119 35.4167 119.073 35.1523C119.028 34.888 118.993 34.5599 118.971 34.168C118.948 33.776 118.937 33.2998 118.937 32.7393C118.937 32.1195 118.943 31.5635 118.957 31.0713C118.971 30.5791 118.984 30.1439 118.998 29.7656C119.012 29.3874 119.025 29.0638 119.039 28.7949C119.053 28.5215 119.06 28.2959 119.06 28.1182C119.06 27.9769 119.053 27.8493 119.039 27.7354C119.025 27.6214 118.993 27.5257 118.943 27.4482C118.893 27.3662 118.818 27.3047 118.718 27.2637C118.618 27.2181 118.483 27.1953 118.314 27.1953C118.046 27.1953 117.704 27.1976 117.289 27.2021C116.879 27.2021 116.359 27.2044 115.73 27.209C115.703 27.7148 115.674 28.2572 115.642 28.8359C115.614 29.4102 115.587 30.0505 115.56 30.7568C115.537 31.4587 115.514 32.2402 115.491 33.1016C115.468 33.9583 115.45 34.9245 115.437 36L114.001 36.1777L113.892 36.1709C113.928 35.5238 113.965 34.8197 114.001 34.0586C114.037 33.2975 114.072 32.5228 114.104 31.7344C114.14 30.9414 114.17 30.1576 114.192 29.3828C114.215 28.6081 114.231 27.8835 114.24 27.209C113.999 27.2135 113.748 27.2158 113.488 27.2158C113.233 27.2158 112.964 27.2158 112.682 27.2158H110.809C110.827 27.2979 110.84 27.3822 110.85 27.4688C110.859 27.5553 110.863 27.6829 110.863 27.8516C110.863 28.0247 110.854 28.3438 110.836 28.8086C110.822 29.2734 110.799 29.859 110.768 30.5654C110.74 31.2673 110.706 32.0785 110.665 32.999C110.629 33.9196 110.588 34.9199 110.542 36L109.147 36.1777L109.038 36.1709C109.075 35.7243 109.106 35.2549 109.134 34.7627C109.166 34.2705 109.193 33.776 109.216 33.2793C109.243 32.7826 109.266 32.2972 109.284 31.8232C109.307 31.3493 109.323 30.9072 109.332 30.4971C109.346 30.0824 109.355 29.7155 109.359 29.3965C109.368 29.0729 109.373 28.8154 109.373 28.624C109.373 28.3825 109.366 28.1774 109.353 28.0088C109.339 27.8356 109.307 27.6898 109.257 27.5713C109.207 27.4482 109.136 27.3503 109.045 27.2773C108.954 27.2044 108.831 27.1475 108.676 27.1064C108.521 27.0654 108.329 27.0381 108.102 27.0244C107.878 27.0062 107.607 26.9948 107.288 26.9902L107.274 26.416C107.689 26.4251 108.051 26.432 108.361 26.4365C108.676 26.4365 108.947 26.4388 109.175 26.4434C109.403 26.4434 109.594 26.4434 109.749 26.4434C109.909 26.4434 110.043 26.4434 110.152 26.4434H110.508C111.998 26.4434 113.299 26.4411 114.411 26.4365C115.528 26.4274 116.476 26.4183 117.255 26.4092C118.039 26.4001 118.663 26.3932 119.128 26.3887C119.593 26.3796 119.921 26.375 120.112 26.375C120.317 26.375 120.465 26.4251 120.557 26.5254C120.648 26.6211 120.693 26.7578 120.693 26.9355C120.693 27.0085 120.684 27.1383 120.666 27.3252C120.652 27.5075 120.634 27.7308 120.611 27.9951C120.589 28.2594 120.561 28.5557 120.529 28.8838C120.502 29.2119 120.477 29.556 120.454 29.916C120.431 30.276 120.411 30.6475 120.393 31.0303C120.379 31.4085 120.372 31.7799 120.372 32.1445C120.372 32.6003 120.379 32.9922 120.393 33.3203C120.411 33.6484 120.436 33.9242 120.468 34.1475C120.504 34.3708 120.548 34.5508 120.598 34.6875C120.648 34.8197 120.709 34.9222 120.782 34.9951C120.855 35.068 120.939 35.1159 121.035 35.1387C121.131 35.1615 121.238 35.1729 121.356 35.1729C121.575 35.1729 121.799 35.1432 122.026 35.084C122.254 35.0202 122.498 34.929 122.758 34.8105L122.888 35.166ZM129.204 28.9727C129.204 28.6126 129.145 28.3005 129.026 28.0361C128.908 27.7718 128.753 27.5553 128.562 27.3867C128.37 27.2181 128.154 27.0928 127.912 27.0107C127.671 26.9287 127.429 26.8877 127.188 26.8877C126.864 26.8877 126.59 26.9219 126.367 26.9902C126.144 27.0586 125.962 27.152 125.82 27.2705C125.684 27.389 125.583 27.5303 125.52 27.6943C125.46 27.8538 125.431 28.027 125.431 28.2139C125.431 28.4326 125.469 28.6536 125.547 28.877C125.629 29.0957 125.747 29.3099 125.902 29.5195L125.875 29.5947C125.615 29.7223 125.353 29.7861 125.089 29.7861C124.934 29.7861 124.788 29.7633 124.651 29.7178C124.519 29.6676 124.403 29.597 124.303 29.5059C124.207 29.4147 124.13 29.3031 124.07 29.1709C124.016 29.0387 123.988 28.8906 123.988 28.7266C123.988 28.4577 124.052 28.2048 124.18 27.9678C124.312 27.7308 124.485 27.5143 124.699 27.3184C124.913 27.1224 125.162 26.9469 125.444 26.792C125.727 26.637 126.019 26.5072 126.319 26.4023C126.62 26.293 126.921 26.2109 127.222 26.1562C127.527 26.097 127.81 26.0674 128.069 26.0674C128.548 26.0674 128.956 26.1312 129.293 26.2588C129.635 26.3864 129.91 26.5732 130.12 26.8193C130.334 27.0609 130.489 27.3548 130.585 27.7012C130.685 28.0475 130.735 28.4395 130.735 28.877C130.735 29.1777 130.722 29.5081 130.694 29.8682C130.672 30.2282 130.644 30.6064 130.612 31.0029C130.58 31.3949 130.551 31.8005 130.523 32.2197C130.501 32.639 130.489 33.056 130.489 33.4707C130.489 34.127 130.61 34.6214 130.852 34.9541C131.098 35.2822 131.419 35.4463 131.815 35.4463C132.166 35.4463 132.558 35.3164 132.991 35.0566L133.189 35.3506C132.884 35.6559 132.551 35.8883 132.191 36.0479C131.831 36.2074 131.453 36.2871 131.057 36.2871C130.76 36.2871 130.487 36.237 130.236 36.1367C129.986 36.0365 129.769 35.8883 129.587 35.6924C129.405 35.4919 129.263 35.2412 129.163 34.9404C129.063 34.6396 129.013 34.291 129.013 33.8945C129.013 33.776 129.015 33.6576 129.02 33.5391C129.029 33.4206 129.045 33.2952 129.067 33.1631H129.026C128.83 33.555 128.603 33.9424 128.343 34.3252C128.088 34.7035 127.805 35.043 127.495 35.3438C127.19 35.64 126.862 35.8792 126.511 36.0615C126.164 36.2484 125.8 36.3418 125.417 36.3418C125.103 36.3418 124.815 36.2871 124.556 36.1777C124.296 36.0684 124.073 35.918 123.886 35.7266C123.703 35.5352 123.56 35.3096 123.455 35.0498C123.355 34.7855 123.305 34.4984 123.305 34.1885C123.305 33.7874 123.378 33.4229 123.523 33.0947C123.674 32.7666 123.879 32.4727 124.139 32.2129C124.403 31.9531 124.717 31.7298 125.082 31.543C125.447 31.3516 125.843 31.1943 126.271 31.0713C126.7 30.9437 127.153 30.8503 127.632 30.791C128.11 30.7272 128.598 30.6953 129.095 30.6953C129.127 30.4082 129.152 30.1302 129.17 29.8613C129.193 29.5924 129.204 29.2962 129.204 28.9727ZM125.007 33.6689C125.007 33.8467 125.025 34.0176 125.062 34.1816C125.103 34.3411 125.164 34.4824 125.246 34.6055C125.333 34.7285 125.44 34.8265 125.567 34.8994C125.7 34.9678 125.857 35.002 126.039 35.002C126.244 35.002 126.456 34.9541 126.675 34.8584C126.894 34.7627 127.108 34.6305 127.317 34.4619C127.532 34.2933 127.734 34.0928 127.926 33.8604C128.122 33.6234 128.297 33.3659 128.452 33.0879C128.607 32.8099 128.735 32.5182 128.835 32.2129C128.94 31.903 129.008 31.5863 129.04 31.2627C128.703 31.2718 128.368 31.2946 128.035 31.3311C127.702 31.363 127.386 31.4154 127.085 31.4883C126.789 31.5612 126.513 31.6569 126.258 31.7754C126.003 31.8939 125.782 32.042 125.595 32.2197C125.412 32.3929 125.269 32.6003 125.164 32.8418C125.059 33.0788 125.007 33.3545 125.007 33.6689ZM137.236 27.4141C137.013 27.8743 136.785 28.346 136.553 28.8291C136.32 29.3122 136.095 29.7952 135.876 30.2783C135.662 30.7568 135.457 31.2262 135.261 31.6865C135.069 32.1468 134.901 32.582 134.755 32.9922C134.614 33.4023 134.502 33.7806 134.42 34.127C134.338 34.4733 134.297 34.7718 134.297 35.0225C134.297 35.2686 134.32 35.4964 134.365 35.7061C134.415 35.9111 134.518 36.0798 134.673 36.2119L134.659 36.2871C134.541 36.3372 134.418 36.376 134.29 36.4033C134.167 36.4352 134.042 36.4512 133.914 36.4512C133.786 36.4512 133.663 36.4329 133.545 36.3965C133.426 36.3646 133.322 36.3099 133.23 36.2324C133.139 36.1595 133.066 36.0615 133.012 35.9385C132.957 35.8154 132.93 35.665 132.93 35.4873C132.93 35.2549 133.028 34.8698 133.224 34.332C133.42 33.7897 133.693 33.1289 134.044 32.3496C134.399 31.5658 134.823 30.6794 135.315 29.6904C135.812 28.7015 136.359 27.6396 136.956 26.5049C137.011 26.4092 137.07 26.334 137.134 26.2793C137.202 26.2201 137.271 26.1768 137.339 26.1494C137.412 26.1175 137.485 26.097 137.558 26.0879C137.631 26.0788 137.701 26.0742 137.77 26.0742C137.902 26.0742 138.029 26.0879 138.152 26.1152C138.28 26.138 138.405 26.179 138.528 26.2383C138.77 27.5371 138.982 28.6605 139.164 29.6084C139.351 30.5563 139.52 31.363 139.67 32.0283C139.82 32.6891 139.959 33.2246 140.087 33.6348C140.219 34.0449 140.351 34.3639 140.483 34.5918C140.616 34.8197 140.752 34.9746 140.894 35.0566C141.039 35.1341 141.203 35.1729 141.386 35.1729C141.463 35.1729 141.548 35.1706 141.639 35.166C141.73 35.1569 141.832 35.141 141.946 35.1182C142.065 35.0954 142.197 35.0612 142.343 35.0156C142.489 34.9701 142.657 34.9062 142.849 34.8242L142.985 35.1797C142.753 35.3438 142.507 35.4941 142.247 35.6309C141.987 35.7676 141.73 35.8861 141.475 35.9863C141.219 36.0866 140.976 36.1641 140.743 36.2188C140.511 36.2734 140.306 36.3008 140.128 36.3008C139.955 36.3008 139.793 36.2575 139.643 36.1709C139.497 36.0843 139.355 35.9248 139.219 35.6924C139.082 35.4554 138.945 35.1296 138.809 34.7148C138.676 34.3001 138.533 33.7646 138.378 33.1084C138.228 32.4476 138.063 31.6523 137.886 30.7227C137.708 29.7884 137.507 28.6855 137.284 27.4141H137.236ZM144.018 36.1777L143.908 36.1709C143.954 35.5101 143.999 34.8174 144.045 34.0928C144.09 33.3682 144.132 32.6527 144.168 31.9463C144.209 31.2399 144.241 30.5609 144.264 29.9092C144.286 29.2529 144.298 28.6628 144.298 28.1387C144.298 27.7969 144.248 27.5485 144.147 27.3936C144.052 27.234 143.872 27.1543 143.607 27.1543C143.452 27.1543 143.268 27.1748 143.054 27.2158C142.84 27.2568 142.568 27.3206 142.24 27.4072L142.138 26.915C142.479 26.792 142.803 26.6826 143.108 26.5869C143.414 26.4912 143.689 26.4115 143.936 26.3477C144.186 26.2839 144.405 26.236 144.592 26.2041C144.779 26.1676 144.922 26.1494 145.022 26.1494C145.15 26.1494 145.269 26.1676 145.378 26.2041C145.487 26.2406 145.581 26.2998 145.658 26.3818C145.736 26.4639 145.795 26.571 145.836 26.7031C145.882 26.8353 145.904 26.9993 145.904 27.1953C145.904 27.3822 145.895 27.6214 145.877 27.9131C145.863 28.2002 145.843 28.5283 145.815 28.8975C145.793 29.262 145.765 29.6608 145.733 30.0938C145.701 30.5267 145.667 30.9801 145.631 31.4541C145.599 31.9281 145.565 32.4157 145.528 32.917C145.496 33.4183 145.467 33.9219 145.439 34.4277L145.494 34.4414C146.305 33.056 147.13 31.6979 147.969 30.3672C148.812 29.0365 149.671 27.7103 150.546 26.3887L152.084 26.1973L152.193 26.2041C152.166 26.4639 152.136 26.7624 152.104 27.0996C152.077 27.4323 152.05 27.7832 152.022 28.1523C151.995 28.5169 151.968 28.8952 151.94 29.2871C151.918 29.6745 151.897 30.055 151.879 30.4287C151.861 30.7979 151.845 31.1533 151.831 31.4951C151.822 31.8324 151.817 32.1377 151.817 32.4111C151.817 32.9854 151.831 33.4525 151.858 33.8125C151.89 34.168 151.943 34.4482 152.016 34.6533C152.089 34.8538 152.184 34.9906 152.303 35.0635C152.421 35.1364 152.569 35.1729 152.747 35.1729C152.966 35.1729 153.198 35.1387 153.444 35.0703C153.695 35.002 153.95 34.9085 154.21 34.79L154.354 35.1387C154.189 35.2708 153.989 35.4053 153.752 35.542C153.515 35.6787 153.262 35.804 152.993 35.918C152.729 36.0319 152.462 36.123 152.193 36.1914C151.924 36.2643 151.678 36.3008 151.455 36.3008C151.223 36.3008 151.034 36.2279 150.888 36.082C150.742 35.9408 150.628 35.7334 150.546 35.46C150.464 35.1865 150.407 34.8516 150.375 34.4551C150.343 34.054 150.327 33.5983 150.327 33.0879C150.327 32.9193 150.329 32.7119 150.334 32.4658C150.343 32.2152 150.352 31.9395 150.361 31.6387C150.375 31.3379 150.391 31.0212 150.409 30.6885C150.427 30.3512 150.448 30.014 150.471 29.6768C150.498 29.335 150.525 29.0023 150.553 28.6787C150.585 28.3506 150.619 28.0452 150.655 27.7627L150.601 27.749C149.721 29.098 148.86 30.4561 148.017 31.8232C147.174 33.1904 146.333 34.5827 145.494 36L144.018 36.1777ZM160.109 31.5635C159.622 31.96 159.187 32.3177 158.804 32.6367C158.421 32.9557 158.086 33.2474 157.799 33.5117C157.512 33.7715 157.268 34.0107 157.067 34.2295C156.867 34.4437 156.703 34.6488 156.575 34.8447C156.452 35.0361 156.361 35.223 156.302 35.4053C156.247 35.583 156.22 35.7653 156.22 35.9521C156.22 36.0114 156.224 36.0661 156.233 36.1162C156.243 36.1709 156.254 36.2279 156.268 36.2871L156.254 36.3623C156.049 36.4261 155.855 36.458 155.673 36.458C155.541 36.458 155.413 36.4421 155.29 36.4102C155.172 36.3783 155.067 36.3281 154.976 36.2598C154.884 36.1914 154.812 36.1048 154.757 36C154.702 35.8997 154.675 35.7767 154.675 35.6309C154.675 35.5306 154.695 35.4258 154.736 35.3164C154.777 35.2025 154.85 35.0749 154.955 34.9336C155.06 34.7923 155.203 34.6305 155.386 34.4482C155.573 34.266 155.81 34.054 156.097 33.8125C156.384 33.5664 156.728 33.2861 157.129 32.9717C157.53 32.6527 158.004 32.2881 158.551 31.8779C158.163 31.8551 157.783 31.7845 157.409 31.666C157.04 31.5475 156.71 31.3766 156.418 31.1533C156.131 30.93 155.898 30.6543 155.721 30.3262C155.543 29.998 155.454 29.6107 155.454 29.1641C155.454 28.763 155.557 28.3825 155.762 28.0225C155.967 27.6624 156.265 27.3457 156.657 27.0723C157.049 26.7988 157.532 26.5824 158.106 26.4229C158.685 26.2633 159.346 26.1836 160.089 26.1836C160.403 26.1836 160.711 26.195 161.012 26.2178C161.317 26.236 161.595 26.2679 161.846 26.3135C162.023 26.3499 162.153 26.416 162.235 26.5117C162.317 26.6029 162.358 26.7373 162.358 26.915C162.358 26.9925 162.352 27.127 162.338 27.3184C162.324 27.5098 162.306 27.7399 162.283 28.0088C162.26 28.2731 162.235 28.5716 162.208 28.9043C162.185 29.2324 162.162 29.5765 162.14 29.9365C162.117 30.2965 162.099 30.6657 162.085 31.0439C162.071 31.4176 162.064 31.7845 162.064 32.1445C162.064 32.6003 162.071 32.9922 162.085 33.3203C162.099 33.6484 162.121 33.9242 162.153 34.1475C162.185 34.3708 162.226 34.5508 162.276 34.6875C162.326 34.8197 162.386 34.9222 162.454 34.9951C162.527 35.068 162.609 35.1159 162.7 35.1387C162.796 35.1615 162.903 35.1729 163.021 35.1729C163.24 35.1729 163.464 35.1432 163.691 35.084C163.919 35.0202 164.163 34.929 164.423 34.8105L164.553 35.166C164.384 35.2982 164.177 35.4326 163.931 35.5693C163.689 35.7015 163.436 35.8223 163.172 35.9316C162.908 36.041 162.65 36.1299 162.399 36.1982C162.149 36.2666 161.932 36.3008 161.75 36.3008C161.622 36.3008 161.506 36.2894 161.401 36.2666C161.297 36.2484 161.201 36.2005 161.114 36.123C161.032 36.0456 160.957 35.9316 160.889 35.7812C160.825 35.6263 160.77 35.4167 160.725 35.1523C160.684 34.888 160.652 34.5599 160.629 34.168C160.606 33.776 160.595 33.2998 160.595 32.7393C160.595 32.083 160.602 31.4928 160.615 30.9688C160.629 30.4447 160.643 29.9798 160.656 29.5742C160.674 29.1686 160.69 28.8177 160.704 28.5215C160.718 28.2207 160.725 27.9655 160.725 27.7559C160.725 27.5781 160.711 27.4323 160.684 27.3184C160.661 27.2044 160.615 27.1133 160.547 27.0449C160.483 26.9766 160.392 26.9287 160.273 26.9014C160.16 26.874 160.011 26.8604 159.829 26.8604C159.474 26.8604 159.132 26.9036 158.804 26.9902C158.48 27.0768 158.193 27.2113 157.942 27.3936C157.696 27.5758 157.498 27.806 157.348 28.084C157.202 28.362 157.129 28.6924 157.129 29.0752C157.129 29.417 157.179 29.7314 157.279 30.0186C157.384 30.3011 157.541 30.5472 157.751 30.7568C157.961 30.9665 158.225 31.1305 158.544 31.249C158.868 31.363 159.248 31.4199 159.686 31.4199C159.749 31.4199 159.815 31.4199 159.884 31.4199C159.952 31.4154 160.021 31.4108 160.089 31.4062L160.109 31.5635Z" fill="#6E707F"/>
<defs>
<radialGradient id="paint0_radial_138_5853" cx="0" cy="0" r="1" gradientUnits="userSpaceOnUse" gradientTransform="translate(36.5 50.5) rotate(-115.71) scale(29.9666 31.7985)">
<stop offset="0.49737" stop-color="#989AA7"/>
<stop offset="1" stop-color="#D2D9E9"/>
</radialGradient>
<radialGradient id="paint1_radial_138_5853" cx="0" cy="0" r="1" gradientUnits="userSpaceOnUse" gradientTransform="translate(59.5693 50.5) rotate(-62.9539) scale(30.3152 33.3299)">
<stop offset="0.49737" stop-color="#989AA7"/>
<stop offset="1" stop-color="#D2D9E9"/>
</radialGradient>
<radialGradient id="paint2_radial_138_5853" cx="0" cy="0" r="1" gradientUnits="userSpaceOnUse" gradientTransform="translate(49.5 68) rotate(2.04541) scale(56.0357 55.9683)">
<stop stop-color="#989AA7"/>
<stop offset="1" stop-color="#D2D9E9"/>
</radialGradient>
<linearGradient id="paint3_linear_138_5853" x1="48.5156" y1="54.8914" x2="0.998153" y2="54.8914" gradientUnits="userSpaceOnUse">
<stop stop-color="#EDE6D8"/>
<stop offset="1" stop-color="#FFFAF1"/>
</linearGradient>
<radialGradient id="paint4_radial_138_5853" cx="0" cy="0" r="1" gradientUnits="userSpaceOnUse" gradientTransform="translate(11.5 41.5) rotate(58.9027) scale(36.7865 55.6041)">
<stop stop-color="#D2D9E9"/>
<stop offset="1" stop-color="#989AA7"/>
</radialGradient>
<linearGradient id="paint5_linear_138_5853" x1="48.2725" y1="54.8914" x2="95.7899" y2="54.8914" gradientUnits="userSpaceOnUse">
<stop stop-color="#EDE6D8"/>
<stop offset="1" stop-color="#FFFAF1"/>
</linearGradient>
<radialGradient id="paint6_radial_138_5853" cx="0" cy="0" r="1" gradientUnits="userSpaceOnUse" gradientTransform="translate(84.8081 41.5) rotate(121.097) scale(36.7865 55.6041)">
<stop stop-color="#D2D9E9"/>
<stop offset="1" stop-color="#989AA7"/>
</radialGradient>
<linearGradient id="paint7_linear_138_5853" x1="34.2665" y1="12.4351" x2="34.2665" y2="18.2149" gradientUnits="userSpaceOnUse">
<stop stop-color="#FFFAF1"/>
<stop offset="1" stop-color="#EDE6D8"/>
</linearGradient>
<linearGradient id="paint8_linear_138_5853" x1="34.2644" y1="18.6292" x2="34.2644" y2="11.8163" gradientUnits="userSpaceOnUse">
<stop stop-color="#989AA7"/>
<stop offset="1" stop-color="#D2D9E9"/>
</linearGradient>
<linearGradient id="paint9_linear_138_5853" x1="62.3719" y1="12.0234" x2="62.3719" y2="17.8029" gradientUnits="userSpaceOnUse">
<stop stop-color="#FFFAF1"/>
<stop offset="1" stop-color="#EDE6D8"/>
</linearGradient>
<linearGradient id="paint10_linear_138_5853" x1="62.3712" y1="11.5601" x2="62.3712" y2="18.2664" gradientUnits="userSpaceOnUse">
<stop stop-color="#D2D9E9"/>
<stop offset="1" stop-color="#989AA7"/>
</linearGradient>
<linearGradient id="paint11_linear_138_5853" x1="48.318" y1="0.466309" x2="48.318" y2="6.24423" gradientUnits="userSpaceOnUse">
<stop stop-color="#FFFAF1"/>
<stop offset="1" stop-color="#EDE6D8"/>
</linearGradient>
<linearGradient id="paint12_linear_138_5853" x1="48.3182" y1="0" x2="48.3182" y2="6.70774" gradientUnits="userSpaceOnUse">
<stop stop-color="#D2D9E9"/>
<stop offset="1" stop-color="#989AA7"/>
</linearGradient>
</defs>
</svg>
