<svg width="378" height="560" viewBox="0 0 378 560" fill="none" xmlns="http://www.w3.org/2000/svg">
<path d="M277.726 36.2624C299.756 27.693 325.989 19.484 345.702 32.4825C359.973 41.9069 366.114 60.6006 364.269 77.627C362.424 94.6535 353.81 110.23 343.782 124.135C303.127 180.565 227.714 174.436 197.378 237.013C193.694 244.631 190.542 252.752 190.562 261.177C190.582 269.602 194.348 278.47 201.677 282.6C213.141 289.07 227.857 281.821 236.621 271.984C247.55 259.68 253.59 242.776 251.537 226.462C249.485 210.147 238.822 194.846 223.669 188.454C209.968 182.681 193.948 184.406 180.296 190.377C166.643 196.348 155.079 206.161 144.489 216.652C130.317 230.674 117.006 247.393 114.811 267.179C111.917 293.261 130.457 318.648 154.613 328.896C178.77 339.144 206.923 336.233 231.381 326.634C255.819 317.012 277.266 301.215 298.241 285.391C312.171 274.89 329.907 263.757 345.766 270.985C354.672 275.052 360.433 284.46 361.911 294.151C363.389 303.841 361.083 313.775 357.381 322.879C351.884 336.279 342.774 348.791 329.785 355.229C316.795 361.667 299.634 360.702 289.372 350.507C279.11 340.312 279.205 320.69 291.192 312.538C337.911 280.744 340.422 403.427 336.057 425.033C328.869 460.747 310.717 493.746 287.068 521.465C277.216 533.01 264.718 544.473 249.558 544.695C230.604 544.967 216.478 528.031 205.364 512.684" stroke="#F7F4ED" stroke-linecap="round" stroke-linejoin="round"/>
<path opacity="0.4" d="M245.669 254.219C221.565 295.361 163.865 307 163.865 307C163.865 307 145.246 251.922 169.335 210.775C193.433 169.622 251.127 158 251.127 158C251.127 158 269.759 213.072 245.669 254.219Z" fill="url(#paint0_linear_100_3727)"/>
<path opacity="0.6" fill-rule="evenodd" clip-rule="evenodd" d="M240.461 287.527C197.48 308.147 159.154 317.636 159.154 317.636C159.154 317.636 215.913 346.474 258.889 325.861C301.87 305.242 314.819 242.981 314.819 242.981C314.819 242.981 283.449 266.908 240.461 287.527Z" fill="url(#paint1_linear_100_3727)"/>
<path fill-rule="evenodd" clip-rule="evenodd" d="M271.251 167.356C271.251 168.95 269.955 170.244 268.359 170.244C266.761 170.244 265.467 168.95 265.467 167.356C265.467 165.759 266.761 164.466 268.359 164.466C269.955 164.466 271.251 165.759 271.251 167.356Z" fill="url(#paint2_linear_100_3727)"/>
<path fill-rule="evenodd" clip-rule="evenodd" d="M270.787 167.355C270.787 168.002 270.534 168.612 270.076 169.069C269.616 169.529 269.007 169.781 268.359 169.781C267.713 169.781 267.1 169.529 266.641 169.069C266.184 168.612 265.93 168.002 265.93 167.355C265.93 166.017 267.019 164.93 268.357 164.93C269.697 164.928 270.787 166.017 270.787 167.355ZM268.359 164C266.508 164 265 165.502 265 167.353C265 168.25 265.349 169.092 265.985 169.728C266.62 170.359 267.463 170.708 268.359 170.708C269.258 170.708 270.1 170.359 270.735 169.728C271.367 169.092 271.718 168.25 271.718 167.353C271.716 165.504 270.21 164 268.359 164Z" fill="url(#paint3_linear_100_3727)"/>
<path fill-rule="evenodd" clip-rule="evenodd" d="M236.251 151.356C236.251 152.95 234.955 154.244 233.359 154.244C231.761 154.244 230.467 152.95 230.467 151.356C230.467 149.759 231.761 148.466 233.359 148.466C234.955 148.466 236.251 149.759 236.251 151.356Z" fill="url(#paint4_linear_100_3727)"/>
<path fill-rule="evenodd" clip-rule="evenodd" d="M235.787 151.355C235.787 152.002 235.534 152.612 235.076 153.069C234.616 153.529 234.007 153.781 233.359 153.781C232.713 153.781 232.1 153.529 231.641 153.069C231.184 152.612 230.93 152.002 230.93 151.355C230.93 150.017 232.019 148.93 233.357 148.93C234.697 148.928 235.787 150.017 235.787 151.355ZM233.359 148C231.508 148 230 149.502 230 151.353C230 152.25 230.349 153.092 230.985 153.728C231.62 154.359 232.463 154.708 233.359 154.708C234.258 154.708 235.1 154.359 235.735 153.728C236.367 153.092 236.718 152.25 236.718 151.353C236.716 149.504 235.21 148 233.359 148Z" fill="url(#paint5_linear_100_3727)"/>
<path fill-rule="evenodd" clip-rule="evenodd" d="M197.251 192.356C197.251 193.95 195.955 195.244 194.359 195.244C192.761 195.244 191.467 193.95 191.467 192.356C191.467 190.759 192.761 189.466 194.359 189.466C195.955 189.466 197.251 190.759 197.251 192.356Z" fill="url(#paint6_linear_100_3727)"/>
<path fill-rule="evenodd" clip-rule="evenodd" d="M196.787 192.355C196.787 193.002 196.534 193.612 196.076 194.069C195.616 194.529 195.007 194.781 194.359 194.781C193.713 194.781 193.1 194.529 192.641 194.069C192.184 193.612 191.93 193.002 191.93 192.355C191.93 191.017 193.019 189.93 194.357 189.93C195.697 189.928 196.787 191.017 196.787 192.355ZM194.359 189C192.508 189 191 190.502 191 192.353C191 193.25 191.349 194.092 191.985 194.728C192.62 195.359 193.463 195.708 194.359 195.708C195.258 195.708 196.1 195.359 196.735 194.728C197.367 194.092 197.718 193.25 197.718 192.353C197.716 190.504 196.21 189 194.359 189Z" fill="url(#paint7_linear_100_3727)"/>
<defs>
<linearGradient id="paint0_linear_100_3727" x1="171" y1="307" x2="247" y2="158" gradientUnits="userSpaceOnUse">
<stop stop-color="#D2D9E9"/>
<stop offset="1" stop-color="#D2D9E9" stop-opacity="0.2"/>
</linearGradient>
<linearGradient id="paint1_linear_100_3727" x1="172.562" y1="323.739" x2="316.667" y2="256.245" gradientUnits="userSpaceOnUse">
<stop stop-color="#EDE6D8" stop-opacity="0.6"/>
<stop offset="1" stop-color="#EDE6D8" stop-opacity="0.2"/>
</linearGradient>
<linearGradient id="paint2_linear_100_3727" x1="268.359" y1="164.466" x2="268.359" y2="170.244" gradientUnits="userSpaceOnUse">
<stop stop-color="#FFFAF1"/>
<stop offset="1" stop-color="#EDE6D8"/>
</linearGradient>
<linearGradient id="paint3_linear_100_3727" x1="268.359" y1="164" x2="268.359" y2="170.708" gradientUnits="userSpaceOnUse">
<stop stop-color="#D2D9E9"/>
<stop offset="1" stop-color="#989AA7"/>
</linearGradient>
<linearGradient id="paint4_linear_100_3727" x1="233.359" y1="148.466" x2="233.359" y2="154.244" gradientUnits="userSpaceOnUse">
<stop stop-color="#FFFAF1"/>
<stop offset="1" stop-color="#EDE6D8"/>
</linearGradient>
<linearGradient id="paint5_linear_100_3727" x1="233.359" y1="148" x2="233.359" y2="154.708" gradientUnits="userSpaceOnUse">
<stop stop-color="#D2D9E9"/>
<stop offset="1" stop-color="#989AA7"/>
</linearGradient>
<linearGradient id="paint6_linear_100_3727" x1="194.359" y1="189.466" x2="194.359" y2="195.244" gradientUnits="userSpaceOnUse">
<stop stop-color="#FFFAF1"/>
<stop offset="1" stop-color="#EDE6D8"/>
</linearGradient>
<linearGradient id="paint7_linear_100_3727" x1="194.359" y1="189" x2="194.359" y2="195.708" gradientUnits="userSpaceOnUse">
<stop stop-color="#D2D9E9"/>
<stop offset="1" stop-color="#989AA7"/>
</linearGradient>
</defs>
</svg>
