<svg width="714" height="132" viewBox="0 0 714 132" fill="none" xmlns="http://www.w3.org/2000/svg">
<path opacity="0.7" d="M135.899 89.643C124.146 109.011 96.6495 114.117 96.6495 114.117C96.6495 114.117 88.2083 87.815 99.9542 68.4442C111.704 49.0707 139.198 43.9728 139.198 43.9728C139.198 43.9728 147.645 70.2724 135.899 89.643Z" fill="url(#paint0_linear_144_10672)"/>
<path opacity="0.7" d="M101.104 64.9613C107.498 90.1013 89.6106 116.662 89.6106 116.662C89.6106 116.662 61.3501 102.458 54.9475 77.321C48.5461 52.1791 66.4378 25.6274 66.4378 25.6274C66.4378 25.6274 94.7013 39.8248 101.104 64.9613Z" fill="url(#paint1_linear_144_10672)"/>
<path opacity="0.2" fill-rule="evenodd" clip-rule="evenodd" d="M47.2085 91.4418C64.6213 106.089 81.2071 115.037 81.2071 115.037C81.2071 115.037 51.5389 121.611 34.1277 106.967C16.7147 92.32 18.1407 61.9999 18.1407 61.9999C18.1407 61.9999 29.7929 76.7938 47.2085 91.4418Z" fill="url(#paint2_linear_144_10672)"/>
<path d="M1.95249 114.331C21.9852 117.767 43.6781 116.842 61.0219 106.237C78.3657 95.632 89.5462 73.5027 82.9318 54.3029C79.7317 45.0364 71.8202 36.8011 62.0698 35.8161C52.3193 34.831 41.9154 43.3886 43.1443 53.096C44.0578 60.3935 50.4347 65.6386 56.6514 69.5446C93.2747 92.6915 139.646 95.985 182.244 88.1442C224.843 80.3033 264.793 62.2794 304.559 45.0643C344.324 27.8827 385.039 11.186 428.097 6.28915C444.169 4.46688 460.878 4.3772 475.989 10.1237C491.101 15.9038 504.365 28.4646 507.358 44.3456C510.351 60.2266 500.405 78.5402 484.526 81.6339C468.647 84.7276 451.541 67.8455 456.949 52.6066C461.596 39.5972 477.309 34.8625 490.998 33.0195C533.169 27.3681 578.343 32.9331 613.44 57.0157C648.538 81.0983 671 131.5 712.999 115" stroke="#F7F4ED" stroke-linecap="round" stroke-linejoin="round"/>
<path fill-rule="evenodd" clip-rule="evenodd" d="M109.251 46.3555C109.251 47.9499 107.955 49.2442 106.359 49.2442C104.761 49.2442 103.467 47.9499 103.467 46.3555C103.467 44.7585 104.761 43.4663 106.359 43.4663C107.955 43.4663 109.251 44.7585 109.251 46.3555Z" fill="url(#paint3_linear_144_10672)"/>
<path fill-rule="evenodd" clip-rule="evenodd" d="M108.787 46.3552C108.787 47.002 108.534 47.6123 108.076 48.0689C107.616 48.5294 107.007 48.7814 106.359 48.7814C105.713 48.7814 105.1 48.5294 104.641 48.0689C104.184 47.6123 103.93 47.002 103.93 46.3552C103.93 45.0166 105.019 43.9304 106.357 43.9304C107.697 43.9284 108.787 45.0166 108.787 46.3552ZM106.359 43C104.508 43 103 44.5023 103 46.3531C103 47.2505 103.349 48.0921 103.985 48.7276C104.62 49.3592 105.463 49.7077 106.359 49.7077C107.258 49.7077 108.1 49.3592 108.735 48.7276C109.367 48.0921 109.718 47.2505 109.718 46.3531C109.716 44.5042 108.21 43 106.359 43Z" fill="url(#paint4_linear_144_10672)"/>
<path fill-rule="evenodd" clip-rule="evenodd" d="M132.251 82.3551C132.251 83.9494 130.955 85.2437 129.359 85.2437C127.761 85.2437 126.467 83.9494 126.467 82.3551C126.467 80.758 127.761 79.4658 129.359 79.4658C130.955 79.4658 132.251 80.758 132.251 82.3551Z" fill="url(#paint5_linear_144_10672)"/>
<path fill-rule="evenodd" clip-rule="evenodd" d="M131.787 82.3547C131.787 83.0015 131.534 83.6118 131.076 84.0684C130.616 84.5289 130.007 84.7809 129.359 84.7809C128.713 84.7809 128.1 84.5289 127.641 84.0684C127.184 83.6118 126.93 83.0015 126.93 82.3547C126.93 81.0161 128.019 79.9299 129.357 79.9299C130.697 79.9279 131.787 81.0161 131.787 82.3547ZM129.359 78.9995C127.508 78.9995 126 80.5018 126 82.3526C126 83.25 126.349 84.0916 126.985 84.7271C127.62 85.3587 128.463 85.7072 129.359 85.7072C130.258 85.7072 131.1 85.3587 131.735 84.7271C132.367 84.0916 132.718 83.25 132.718 82.3526C132.716 80.5037 131.21 78.9995 129.359 78.9995Z" fill="url(#paint6_linear_144_10672)"/>
<path fill-rule="evenodd" clip-rule="evenodd" d="M193.251 75.3551C193.251 76.9494 191.955 78.2437 190.359 78.2437C188.761 78.2437 187.467 76.9494 187.467 75.3551C187.467 73.758 188.761 72.4658 190.359 72.4658C191.955 72.4658 193.251 73.758 193.251 75.3551Z" fill="url(#paint7_linear_144_10672)"/>
<path fill-rule="evenodd" clip-rule="evenodd" d="M192.787 75.3547C192.787 76.0015 192.534 76.6118 192.076 77.0684C191.616 77.5289 191.007 77.7809 190.359 77.7809C189.713 77.7809 189.1 77.5289 188.641 77.0684C188.184 76.6118 187.93 76.0015 187.93 75.3547C187.93 74.0161 189.019 72.9299 190.357 72.9299C191.697 72.9279 192.787 74.0161 192.787 75.3547ZM190.359 71.9995C188.508 71.9995 187 73.5018 187 75.3526C187 76.25 187.349 77.0916 187.985 77.7271C188.62 78.3587 189.463 78.7072 190.359 78.7072C191.258 78.7072 192.1 78.3587 192.735 77.7271C193.367 77.0916 193.718 76.25 193.718 75.3526C193.716 73.5037 192.21 71.9995 190.359 71.9995Z" fill="url(#paint8_linear_144_10672)"/>
<defs>
<linearGradient id="paint0_linear_144_10672" x1="117.379" y1="114.437" x2="137.95" y2="43.9371" gradientUnits="userSpaceOnUse">
<stop stop-color="#EDE6D8" stop-opacity="0.6"/>
<stop offset="1" stop-color="#EDE6D8" stop-opacity="0.1"/>
</linearGradient>
<linearGradient id="paint1_linear_144_10672" x1="92.3727" y1="113.935" x2="64.8404" y2="27.2047" gradientUnits="userSpaceOnUse">
<stop stop-color="#F0F0F2"/>
<stop offset="1" stop-color="#F0F0F2" stop-opacity="0.4"/>
</linearGradient>
<linearGradient id="paint2_linear_144_10672" x1="56.2994" y1="113.485" x2="16.7207" y2="62.3829" gradientUnits="userSpaceOnUse">
<stop stop-color="#A5CDB9"/>
<stop offset="1" stop-color="#A5CDB9" stop-opacity="0.3"/>
</linearGradient>
<linearGradient id="paint3_linear_144_10672" x1="106.359" y1="43.4663" x2="106.359" y2="49.2442" gradientUnits="userSpaceOnUse">
<stop stop-color="#FFFAF1"/>
<stop offset="1" stop-color="#EDE6D8"/>
</linearGradient>
<linearGradient id="paint4_linear_144_10672" x1="106.359" y1="43" x2="106.359" y2="49.7077" gradientUnits="userSpaceOnUse">
<stop stop-color="#D2D9E9"/>
<stop offset="1" stop-color="#989AA7"/>
</linearGradient>
<linearGradient id="paint5_linear_144_10672" x1="129.359" y1="79.4658" x2="129.359" y2="85.2437" gradientUnits="userSpaceOnUse">
<stop stop-color="#FFFAF1"/>
<stop offset="1" stop-color="#EDE6D8"/>
</linearGradient>
<linearGradient id="paint6_linear_144_10672" x1="129.359" y1="78.9995" x2="129.359" y2="85.7072" gradientUnits="userSpaceOnUse">
<stop stop-color="#D2D9E9"/>
<stop offset="1" stop-color="#989AA7"/>
</linearGradient>
<linearGradient id="paint7_linear_144_10672" x1="190.359" y1="72.4658" x2="190.359" y2="78.2437" gradientUnits="userSpaceOnUse">
<stop stop-color="#FFFAF1"/>
<stop offset="1" stop-color="#EDE6D8"/>
</linearGradient>
<linearGradient id="paint8_linear_144_10672" x1="190.359" y1="71.9995" x2="190.359" y2="78.7072" gradientUnits="userSpaceOnUse">
<stop stop-color="#D2D9E9"/>
<stop offset="1" stop-color="#989AA7"/>
</linearGradient>
</defs>
</svg>
