<svg width="663" height="274" viewBox="0 0 663 274" fill="none" xmlns="http://www.w3.org/2000/svg">
<path d="M647.527 176.122C566.985 242.328 467.188 194.161 406.835 137.968C371.398 100.46 343.781 56.1179 324.456 81.7155C304.579 108.046 362.112 239.3 381.412 191.462C400.711 143.625 308.807 119.387 277.22 115.98C205.659 110.917 194.129 64.6151 217.027 51.8344C252.534 32.0158 253.376 142.202 235.068 160.22C216.76 178.238 206.35 128.199 183.535 121.116C147.66 118.239 169.854 191.633 99.3939 158.654C12.3431 99.3772 99.3939 35.4995 122.5 63.4995C139.678 84.3161 -8 128 23 63.4995" stroke="#F7F4ED" stroke-linecap="round" stroke-linejoin="round"/>
<path opacity="0.3" d="M204.909 120.487C229.589 151.022 220.998 199.5 220.998 199.5C220.998 199.5 173.927 197.175 149.239 166.65C124.549 136.116 132.379 88.2939 132.379 88.2939C132.379 88.2939 180.221 89.9612 204.909 120.487Z" fill="url(#paint0_linear_150_5766)"/>
<path opacity="0.2" d="M286.966 132.337C272.941 176.231 220.995 199.413 220.995 199.413C220.995 199.413 191.786 151.416 205.796 107.521C219.813 63.6176 271.756 40.4534 271.756 40.4534C271.756 40.4534 300.976 88.4419 286.966 132.337Z" fill="url(#paint1_linear_150_5766)"/>
<path opacity="0.3" fill-rule="evenodd" clip-rule="evenodd" d="M263.588 184.287C236.548 201.415 211.609 211.018 211.609 211.018C211.609 211.018 252.54 224.129 279.576 207.006C306.616 189.878 309.539 149 309.539 149C309.539 149 290.631 167.158 263.588 184.287Z" fill="url(#paint2_linear_150_5766)"/>
<path fill-rule="evenodd" clip-rule="evenodd" d="M239.467 32.356C239.467 33.9504 240.763 35.2447 242.36 35.2447C243.958 35.2447 245.252 33.9504 245.252 32.356C245.252 30.759 243.958 29.4668 242.36 29.4668C240.763 29.4668 239.467 30.759 239.467 32.356Z" fill="url(#paint3_linear_150_5766)"/>
<path fill-rule="evenodd" clip-rule="evenodd" d="M239.932 32.3552C239.932 33.002 240.185 33.6123 240.643 34.0689C241.102 34.5294 241.712 34.7814 242.36 34.7814C243.006 34.7814 243.619 34.5294 244.077 34.0689C244.534 33.6123 244.789 33.002 244.789 32.3552C244.789 31.0166 243.7 29.9304 242.361 29.9304C241.021 29.9284 239.932 31.0166 239.932 32.3552ZM242.36 29C244.211 29 245.719 30.5023 245.719 32.3531C245.719 33.2505 245.37 34.0921 244.734 34.7276C244.099 35.3592 243.256 35.7077 242.36 35.7077C241.461 35.7077 240.619 35.3592 239.984 34.7276C239.351 34.0921 239 33.2505 239 32.3531C239.002 30.5042 240.508 29 242.36 29Z" fill="url(#paint4_linear_150_5766)"/>
<path fill-rule="evenodd" clip-rule="evenodd" d="M176.467 76.356C176.467 77.9504 177.763 79.2447 179.36 79.2447C180.958 79.2447 182.252 77.9504 182.252 76.356C182.252 74.759 180.958 73.4668 179.36 73.4668C177.763 73.4668 176.467 74.759 176.467 76.356Z" fill="url(#paint5_linear_150_5766)"/>
<path fill-rule="evenodd" clip-rule="evenodd" d="M176.932 76.3552C176.932 77.002 177.185 77.6123 177.643 78.0689C178.102 78.5294 178.712 78.7814 179.36 78.7814C180.006 78.7814 180.619 78.5294 181.077 78.0689C181.534 77.6123 181.789 77.002 181.789 76.3552C181.789 75.0166 180.7 73.9304 179.361 73.9304C178.021 73.9284 176.932 75.0166 176.932 76.3552ZM179.36 73C181.211 73 182.719 74.5023 182.719 76.3531C182.719 77.2505 182.37 78.0921 181.734 78.7276C181.099 79.3592 180.256 79.7077 179.36 79.7077C178.461 79.7077 177.619 79.3592 176.984 78.7276C176.351 78.0921 176 77.2505 176 76.3531C176.002 74.5042 177.508 73 179.36 73Z" fill="url(#paint6_linear_150_5766)"/>
<path fill-rule="evenodd" clip-rule="evenodd" d="M220.467 86.356C220.467 87.9504 221.763 89.2447 223.36 89.2447C224.958 89.2447 226.252 87.9504 226.252 86.356C226.252 84.759 224.958 83.4668 223.36 83.4668C221.763 83.4668 220.467 84.759 220.467 86.356Z" fill="url(#paint7_linear_150_5766)"/>
<path fill-rule="evenodd" clip-rule="evenodd" d="M220.932 86.3552C220.932 87.002 221.185 87.6123 221.643 88.0689C222.102 88.5294 222.712 88.7814 223.36 88.7814C224.006 88.7814 224.619 88.5294 225.077 88.0689C225.534 87.6123 225.789 87.002 225.789 86.3552C225.789 85.0166 224.7 83.9304 223.361 83.9304C222.021 83.9284 220.932 85.0166 220.932 86.3552ZM223.36 83C225.211 83 226.719 84.5023 226.719 86.3531C226.719 87.2505 226.37 88.0921 225.734 88.7276C225.099 89.3592 224.256 89.7077 223.36 89.7077C222.461 89.7077 221.619 89.3592 220.984 88.7276C220.351 88.0921 220 87.2505 220 86.3531C220.002 84.5042 221.508 83 223.36 83Z" fill="url(#paint8_linear_150_5766)"/>
<defs>
<linearGradient id="paint0_linear_150_5766" x1="119.677" y1="113.103" x2="213.618" y2="197.954" gradientUnits="userSpaceOnUse">
<stop stop-color="#EDE6D8" stop-opacity="0.3"/>
<stop offset="1" stop-color="#EDE6D8"/>
</linearGradient>
<linearGradient id="paint1_linear_150_5766" x1="266.054" y1="45.0618" x2="221.786" y2="193.452" gradientUnits="userSpaceOnUse">
<stop stop-color="#A5CDB9" stop-opacity="0.2"/>
<stop offset="1" stop-color="#A5CDB9"/>
</linearGradient>
<linearGradient id="paint2_linear_150_5766" x1="302.158" y1="158.408" x2="215.443" y2="210.764" gradientUnits="userSpaceOnUse">
<stop stop-color="#D2D9E9" stop-opacity="0.3"/>
<stop offset="1" stop-color="#D2D9E9"/>
</linearGradient>
<linearGradient id="paint3_linear_150_5766" x1="242.36" y1="29.4668" x2="242.36" y2="35.2447" gradientUnits="userSpaceOnUse">
<stop stop-color="#FFFAF1"/>
<stop offset="1" stop-color="#EDE6D8"/>
</linearGradient>
<linearGradient id="paint4_linear_150_5766" x1="242.36" y1="29" x2="242.36" y2="35.7077" gradientUnits="userSpaceOnUse">
<stop stop-color="#D2D9E9"/>
<stop offset="1" stop-color="#989AA7"/>
</linearGradient>
<linearGradient id="paint5_linear_150_5766" x1="179.36" y1="73.4668" x2="179.36" y2="79.2447" gradientUnits="userSpaceOnUse">
<stop stop-color="#FFFAF1"/>
<stop offset="1" stop-color="#EDE6D8"/>
</linearGradient>
<linearGradient id="paint6_linear_150_5766" x1="179.36" y1="73" x2="179.36" y2="79.7077" gradientUnits="userSpaceOnUse">
<stop stop-color="#D2D9E9"/>
<stop offset="1" stop-color="#989AA7"/>
</linearGradient>
<linearGradient id="paint7_linear_150_5766" x1="223.36" y1="83.4668" x2="223.36" y2="89.2447" gradientUnits="userSpaceOnUse">
<stop stop-color="#FFFAF1"/>
<stop offset="1" stop-color="#EDE6D8"/>
</linearGradient>
<linearGradient id="paint8_linear_150_5766" x1="223.36" y1="83" x2="223.36" y2="89.7077" gradientUnits="userSpaceOnUse">
<stop stop-color="#D2D9E9"/>
<stop offset="1" stop-color="#989AA7"/>
</linearGradient>
</defs>
</svg>
