<svg width="478" height="257" viewBox="0 0 478 257" fill="none" xmlns="http://www.w3.org/2000/svg">
<path d="M64.4693 141.167C8.97941 94.9723 -4.63483 189.315 72.9996 204.667C130.825 205.98 91.5552 158.887 116.347 149.246C133.87 147.008 133.13 171.597 141.224 181.383C172.451 202.833 155.004 147.67 155.602 133.515C154.211 114.37 148.417 88.7224 126.414 84.8806C84.2711 87.5963 105.698 137.061 154.926 117.33C177.047 109.489 199.585 120.341 203.886 144.112C208.775 164.032 208.001 191.97 229.907 201.331C240.115 205.346 254.119 199.85 255.765 189.016C254.072 166.684 231.336 150.272 220.505 131.338C186.711 88.9001 234.236 72.2981 270.31 88.4588C329.18 110.287 411.568 113.226 442.945 37.747" stroke="#F7F4ED" stroke-linecap="round" stroke-linejoin="round"/>
<path opacity="0.2" d="M163.476 148.172C185.91 186.552 239.611 197.41 239.611 197.41C239.611 197.41 256.94 146.029 234.52 107.643C212.092 69.2522 158.397 58.4102 158.397 58.4102C158.397 58.4102 141.056 109.786 163.476 148.172Z" fill="url(#paint0_linear_151_7006)"/>
<path opacity="0.3" fill-rule="evenodd" clip-rule="evenodd" d="M271.228 137.575C258.922 172.61 243.117 199.283 243.117 199.283C243.117 199.283 289.812 181.795 302.119 146.767C314.426 111.732 287.7 72.41 287.7 72.41C287.7 72.41 283.538 102.537 271.228 137.575Z" fill="url(#paint1_linear_151_7006)"/>
<path fill-rule="evenodd" clip-rule="evenodd" d="M224.251 101.766C224.251 103.361 222.955 104.655 221.359 104.655C219.761 104.655 218.467 103.361 218.467 101.766C218.467 100.169 219.761 98.877 221.359 98.877C222.955 98.877 224.251 100.169 224.251 101.766Z" fill="url(#paint2_linear_151_7006)"/>
<path fill-rule="evenodd" clip-rule="evenodd" d="M223.787 101.765C223.787 102.412 223.534 103.022 223.076 103.479C222.616 103.94 222.007 104.192 221.359 104.192C220.713 104.192 220.1 103.94 219.641 103.479C219.184 103.022 218.93 102.412 218.93 101.765C218.93 100.427 220.019 99.3405 221.357 99.3405C222.697 99.3386 223.787 100.427 223.787 101.765ZM221.359 98.4102C219.508 98.4102 218 99.9124 218 101.763C218 102.661 218.349 103.502 218.985 104.138C219.62 104.769 220.463 105.118 221.359 105.118C222.258 105.118 223.1 104.769 223.735 104.138C224.367 103.502 224.718 102.661 224.718 101.763C224.716 99.9144 223.21 98.4102 221.359 98.4102Z" fill="url(#paint3_linear_151_7006)"/>
<path fill-rule="evenodd" clip-rule="evenodd" d="M271.251 68.7662C271.251 70.3606 269.955 71.6549 268.359 71.6549C266.761 71.6549 265.467 70.3606 265.467 68.7662C265.467 67.1692 266.761 65.877 268.359 65.877C269.955 65.877 271.251 67.1692 271.251 68.7662Z" fill="url(#paint4_linear_151_7006)"/>
<path fill-rule="evenodd" clip-rule="evenodd" d="M270.787 68.7654C270.787 69.4122 270.534 70.0225 270.076 70.4791C269.616 70.9396 269.007 71.1916 268.359 71.1916C267.713 71.1916 267.1 70.9396 266.641 70.4791C266.184 70.0225 265.93 69.4122 265.93 68.7654C265.93 67.4267 267.019 66.3405 268.357 66.3405C269.697 66.3386 270.787 67.4267 270.787 68.7654ZM268.359 65.4102C266.508 65.4102 265 66.9124 265 68.7633C265 69.6606 265.349 70.5023 265.985 71.1378C266.62 71.7693 267.463 72.1179 268.359 72.1179C269.258 72.1179 270.1 71.7693 270.735 71.1378C271.367 70.5023 271.718 69.6606 271.718 68.7633C271.716 66.9144 270.21 65.4102 268.359 65.4102Z" fill="url(#paint5_linear_151_7006)"/>
<path fill-rule="evenodd" clip-rule="evenodd" d="M242.251 48.7662C242.251 50.3606 240.955 51.6549 239.359 51.6549C237.761 51.6549 236.467 50.3606 236.467 48.7662C236.467 47.1692 237.761 45.877 239.359 45.877C240.955 45.877 242.251 47.1692 242.251 48.7662Z" fill="url(#paint6_linear_151_7006)"/>
<path fill-rule="evenodd" clip-rule="evenodd" d="M241.787 48.7654C241.787 49.4122 241.534 50.0225 241.076 50.4791C240.616 50.9396 240.007 51.1916 239.359 51.1916C238.713 51.1916 238.1 50.9396 237.641 50.4791C237.184 50.0225 236.93 49.4122 236.93 48.7654C236.93 47.4267 238.019 46.3405 239.357 46.3405C240.697 46.3386 241.787 47.4267 241.787 48.7654ZM239.359 45.4102C237.508 45.4102 236 46.9124 236 48.7633C236 49.6606 236.349 50.5023 236.985 51.1378C237.62 51.7693 238.463 52.1179 239.359 52.1179C240.258 52.1179 241.1 51.7693 241.735 51.1378C242.367 50.5023 242.718 49.6606 242.718 48.7633C242.716 46.9144 241.21 45.4102 239.359 45.4102Z" fill="url(#paint7_linear_151_7006)"/>
<defs>
<linearGradient id="paint0_linear_151_7006" x1="164.727" y1="61.5458" x2="237.872" y2="191.816" gradientUnits="userSpaceOnUse">
<stop stop-color="#A5CDB9" stop-opacity="0.2"/>
<stop offset="1" stop-color="#A5CDB9"/>
</linearGradient>
<linearGradient id="paint1_linear_151_7006" x1="288.8" y1="82.3324" x2="253.899" y2="190.327" gradientUnits="userSpaceOnUse">
<stop offset="0.0477274" stop-color="#D2D9E9" stop-opacity="0.2"/>
<stop offset="1" stop-color="#D2D9E9"/>
</linearGradient>
<linearGradient id="paint2_linear_151_7006" x1="221.359" y1="98.877" x2="221.359" y2="104.655" gradientUnits="userSpaceOnUse">
<stop stop-color="#FFFAF1"/>
<stop offset="1" stop-color="#EDE6D8"/>
</linearGradient>
<linearGradient id="paint3_linear_151_7006" x1="221.359" y1="98.4102" x2="221.359" y2="105.118" gradientUnits="userSpaceOnUse">
<stop stop-color="#D2D9E9"/>
<stop offset="1" stop-color="#989AA7"/>
</linearGradient>
<linearGradient id="paint4_linear_151_7006" x1="268.359" y1="65.877" x2="268.359" y2="71.6549" gradientUnits="userSpaceOnUse">
<stop stop-color="#FFFAF1"/>
<stop offset="1" stop-color="#EDE6D8"/>
</linearGradient>
<linearGradient id="paint5_linear_151_7006" x1="268.359" y1="65.4102" x2="268.359" y2="72.1179" gradientUnits="userSpaceOnUse">
<stop stop-color="#D2D9E9"/>
<stop offset="1" stop-color="#989AA7"/>
</linearGradient>
<linearGradient id="paint6_linear_151_7006" x1="239.359" y1="45.877" x2="239.359" y2="51.6549" gradientUnits="userSpaceOnUse">
<stop stop-color="#FFFAF1"/>
<stop offset="1" stop-color="#EDE6D8"/>
</linearGradient>
<linearGradient id="paint7_linear_151_7006" x1="239.359" y1="45.4102" x2="239.359" y2="52.1179" gradientUnits="userSpaceOnUse">
<stop stop-color="#D2D9E9"/>
<stop offset="1" stop-color="#989AA7"/>
</linearGradient>
</defs>
</svg>
