<svg width="501" height="759" viewBox="0 0 501 759" fill="none" xmlns="http://www.w3.org/2000/svg">
<path d="M353.807 229.078C326.163 195.864 490.806 41.078 408.806 41.0782C326.806 41.0784 474.002 137.078 479.904 200.078C485.806 263.078 367.806 285.578 367.806 322.578C367.806 359.578 438.44 348.078 421.806 311.578C405.172 275.078 276.806 318.435 288.306 364.078C299.806 409.722 396.056 357.578 435.306 370.078C474.556 382.578 483.474 419.582 474.056 452.8C468.21 473.419 455.205 486.243 438.44 494.552C421.675 502.862 399.526 501.615 386.281 488.457C373.036 475.299 373.159 449.975 388.631 439.453C448.928 398.419 452.169 556.759 446.535 584.645C437.258 630.738 417.806 676.579 383.307 709.104C348.809 741.629 264.306 740.079 291.806 682.579" stroke="#F7F4ED" stroke-linecap="round" stroke-linejoin="round"/>
<path opacity="0.4" d="M345.874 124.184C314.764 177.284 240.294 192.306 240.294 192.306C240.294 192.306 216.263 121.22 247.354 68.1135C278.455 14.9999 352.917 0 352.917 0C352.917 0 376.965 71.0787 345.874 124.184Z" fill="url(#paint0_linear_2092_17477)"/>
<path opacity="0.6" fill-rule="evenodd" clip-rule="evenodd" d="M339.153 167.174C283.679 193.786 234.215 206.033 234.215 206.033C234.215 206.033 307.47 243.252 362.936 216.649C418.41 190.036 435.123 109.68 435.123 109.68C435.123 109.68 394.634 140.561 339.153 167.174Z" fill="url(#paint1_linear_2092_17477)"/>
<path fill-rule="evenodd" clip-rule="evenodd" d="M406.875 144.409C406.875 146.467 405.202 148.137 403.142 148.137C401.079 148.137 399.409 146.467 399.409 144.409C399.409 142.348 401.079 140.68 403.142 140.68C405.202 140.68 406.875 142.348 406.875 144.409Z" fill="url(#paint2_linear_2092_17477)"/>
<path fill-rule="evenodd" clip-rule="evenodd" d="M406.275 144.408C406.275 145.243 405.949 146.031 405.357 146.62C404.765 147.215 403.979 147.54 403.142 147.54C402.308 147.54 401.517 147.215 400.925 146.62C400.335 146.031 400.006 145.243 400.006 144.408C400.006 142.681 401.412 141.279 403.14 141.279C404.869 141.276 406.275 142.681 406.275 144.408ZM403.142 140.078C400.753 140.078 398.807 142.017 398.807 144.406C398.807 145.564 399.257 146.65 400.078 147.47C400.898 148.286 401.985 148.735 403.142 148.735C404.302 148.735 405.389 148.286 406.209 147.47C407.025 146.65 407.478 145.564 407.478 144.406C407.475 142.02 405.531 140.078 403.142 140.078Z" fill="url(#paint3_linear_2092_17477)"/>
<path fill-rule="evenodd" clip-rule="evenodd" d="M461.875 63.4092C461.875 65.4669 460.202 67.1374 458.142 67.1374C456.079 67.1374 454.409 65.4669 454.409 63.4092C454.409 61.348 456.079 59.6802 458.142 59.6802C460.202 59.6802 461.875 61.348 461.875 63.4092Z" fill="url(#paint4_linear_2092_17477)"/>
<path fill-rule="evenodd" clip-rule="evenodd" d="M461.275 63.4085C461.275 64.2433 460.949 65.031 460.357 65.6203C459.765 66.2146 458.979 66.5399 458.142 66.5399C457.308 66.5399 456.517 66.2146 455.925 65.6203C455.335 65.031 455.006 64.2433 455.006 63.4085C455.006 61.6808 456.412 60.2789 458.14 60.2789C459.869 60.2764 461.275 61.6808 461.275 63.4085ZM458.142 59.0781C455.753 59.0781 453.807 61.017 453.807 63.4058C453.807 64.564 454.257 65.6502 455.078 66.4704C455.898 67.2856 456.985 67.7354 458.142 67.7354C459.302 67.7354 460.389 67.2856 461.209 66.4704C462.025 65.6502 462.478 64.564 462.478 63.4058C462.475 61.0195 460.531 59.0781 458.142 59.0781Z" fill="url(#paint5_linear_2092_17477)"/>
<path fill-rule="evenodd" clip-rule="evenodd" d="M415.875 14.4092C415.875 16.4669 414.202 18.1374 412.142 18.1374C410.079 18.1374 408.409 16.4669 408.409 14.4092C408.409 12.348 410.079 10.6802 412.142 10.6802C414.202 10.6802 415.875 12.348 415.875 14.4092Z" fill="url(#paint6_linear_2092_17477)"/>
<path fill-rule="evenodd" clip-rule="evenodd" d="M415.275 14.4085C415.275 15.2433 414.949 16.031 414.357 16.6203C413.765 17.2146 412.979 17.5399 412.142 17.5399C411.308 17.5399 410.517 17.2146 409.925 16.6203C409.335 16.031 409.006 15.2433 409.006 14.4085C409.006 12.6808 410.412 11.2789 412.14 11.2789C413.869 11.2764 415.275 12.6808 415.275 14.4085ZM412.142 10.0781C409.753 10.0781 407.807 12.017 407.807 14.4058C407.807 15.564 408.257 16.6502 409.078 17.4704C409.898 18.2856 410.985 18.7354 412.142 18.7354C413.302 18.7354 414.389 18.2856 415.209 17.4704C416.025 16.6502 416.478 15.564 416.478 14.4058C416.475 12.0195 414.531 10.0781 412.142 10.0781Z" fill="url(#paint7_linear_2092_17477)"/>
<defs>
<linearGradient id="paint0_linear_2092_17477" x1="249.503" y1="192.306" x2="347.591" y2="-3.46131e-07" gradientUnits="userSpaceOnUse">
<stop stop-color="#D2D9E9"/>
<stop offset="1" stop-color="#D2D9E9" stop-opacity="0.2"/>
</linearGradient>
<linearGradient id="paint1_linear_2092_17477" x1="251.519" y1="213.91" x2="437.507" y2="126.799" gradientUnits="userSpaceOnUse">
<stop stop-color="#EDE6D8" stop-opacity="0.6"/>
<stop offset="1" stop-color="#EDE6D8" stop-opacity="0.2"/>
</linearGradient>
<linearGradient id="paint2_linear_2092_17477" x1="403.142" y1="140.68" x2="403.142" y2="148.137" gradientUnits="userSpaceOnUse">
<stop stop-color="#FFFAF1"/>
<stop offset="1" stop-color="#EDE6D8"/>
</linearGradient>
<linearGradient id="paint3_linear_2092_17477" x1="403.142" y1="140.078" x2="403.142" y2="148.735" gradientUnits="userSpaceOnUse">
<stop stop-color="#D2D9E9"/>
<stop offset="1" stop-color="#989AA7"/>
</linearGradient>
<linearGradient id="paint4_linear_2092_17477" x1="458.142" y1="59.6802" x2="458.142" y2="67.1374" gradientUnits="userSpaceOnUse">
<stop stop-color="#FFFAF1"/>
<stop offset="1" stop-color="#EDE6D8"/>
</linearGradient>
<linearGradient id="paint5_linear_2092_17477" x1="458.142" y1="59.0781" x2="458.142" y2="67.7354" gradientUnits="userSpaceOnUse">
<stop stop-color="#D2D9E9"/>
<stop offset="1" stop-color="#989AA7"/>
</linearGradient>
<linearGradient id="paint6_linear_2092_17477" x1="412.142" y1="10.6802" x2="412.142" y2="18.1374" gradientUnits="userSpaceOnUse">
<stop stop-color="#FFFAF1"/>
<stop offset="1" stop-color="#EDE6D8"/>
</linearGradient>
<linearGradient id="paint7_linear_2092_17477" x1="412.142" y1="10.0781" x2="412.142" y2="18.7354" gradientUnits="userSpaceOnUse">
<stop stop-color="#D2D9E9"/>
<stop offset="1" stop-color="#989AA7"/>
</linearGradient>
</defs>
</svg>
