<svg width="520" height="271" viewBox="0 0 520 271" fill="none" xmlns="http://www.w3.org/2000/svg">
<path d="M81.0648 178.061C13.9383 124.972 0.611376 237.167 93.0608 253.051C161.62 252.887 113.687 198.252 142.778 186.091C163.475 182.918 163.33 212.076 173.211 223.432C210.851 247.921 188.538 183.074 188.825 166.283C186.608 143.639 178.979 113.42 152.793 109.522C102.936 113.993 129.797 171.968 187.543 147.125C213.522 137.176 240.551 149.364 246.355 177.404C252.74 200.863 252.654 233.991 278.89 244.432C291.105 248.886 307.536 241.957 309.164 229.071C306.494 202.658 279.064 183.887 265.667 161.773C224.361 112.491 280.182 91.4058 323.409 109.483C393.815 133.598 498.795 88.6557 468.373 3.539" stroke="#F7F4ED" stroke-linecap="round" stroke-linejoin="round"/>
<path opacity="0.2" d="M281.311 125.363C302.03 168.309 279.529 222.7 279.529 222.7C279.529 222.7 223.423 207.455 202.69 164.519C181.958 121.572 204.47 67.1952 204.47 67.1952C204.47 67.1952 260.579 82.4261 281.311 125.363Z" fill="url(#paint0_linear_100_6199)"/>
<path opacity="0.4" fill-rule="evenodd" clip-rule="evenodd" d="M188.541 192.771C226.859 209.657 260.774 216.902 260.774 216.902C260.774 216.902 211.761 243.826 173.449 226.947C135.131 210.061 122 155.768 122 155.768C122 155.768 150.218 175.886 188.541 192.771Z" fill="url(#paint1_linear_100_6199)"/>
<path fill-rule="evenodd" clip-rule="evenodd" d="M292.251 95.8443C292.251 97.4387 290.955 98.733 289.359 98.733C287.761 98.733 286.467 97.4387 286.467 95.8443C286.467 94.2473 287.761 92.9551 289.359 92.9551C290.955 92.9551 292.251 94.2473 292.251 95.8443Z" fill="url(#paint2_linear_100_6199)"/>
<path fill-rule="evenodd" clip-rule="evenodd" d="M291.787 95.844C291.787 96.4908 291.534 97.1011 291.076 97.5577C290.616 98.0182 290.007 98.2702 289.359 98.2702C288.713 98.2702 288.1 98.0182 287.641 97.5577C287.184 97.1011 286.93 96.4908 286.93 95.844C286.93 94.5054 288.019 93.4191 289.357 93.4191C290.697 93.4172 291.787 94.5054 291.787 95.844ZM289.359 92.4888C287.508 92.4888 286 93.991 286 95.8419C286 96.7393 286.349 97.5809 286.985 98.2164C287.62 98.8479 288.463 99.1965 289.359 99.1965C290.258 99.1965 291.1 98.8479 291.735 98.2164C292.367 97.5809 292.718 96.7393 292.718 95.8419C292.716 93.993 291.21 92.4888 289.359 92.4888Z" fill="url(#paint3_linear_100_6199)"/>
<path fill-rule="evenodd" clip-rule="evenodd" d="M350.251 124.844C350.251 126.439 348.955 127.733 347.359 127.733C345.761 127.733 344.467 126.439 344.467 124.844C344.467 123.247 345.761 121.955 347.359 121.955C348.955 121.955 350.251 123.247 350.251 124.844Z" fill="url(#paint4_linear_100_6199)"/>
<path fill-rule="evenodd" clip-rule="evenodd" d="M349.787 124.844C349.787 125.491 349.534 126.101 349.076 126.558C348.616 127.018 348.007 127.27 347.359 127.27C346.713 127.27 346.1 127.018 345.641 126.558C345.184 126.101 344.93 125.491 344.93 124.844C344.93 123.505 346.019 122.419 347.357 122.419C348.697 122.417 349.787 123.505 349.787 124.844ZM347.359 121.489C345.508 121.489 344 122.991 344 124.842C344 125.739 344.349 126.581 344.985 127.216C345.62 127.848 346.463 128.197 347.359 128.197C348.258 128.197 349.1 127.848 349.735 127.216C350.367 126.581 350.718 125.739 350.718 124.842C350.716 122.993 349.21 121.489 347.359 121.489Z" fill="url(#paint5_linear_100_6199)"/>
<path fill-rule="evenodd" clip-rule="evenodd" d="M248.251 112.844C248.251 114.439 246.955 115.733 245.359 115.733C243.761 115.733 242.467 114.439 242.467 112.844C242.467 111.247 243.761 109.955 245.359 109.955C246.955 109.955 248.251 111.247 248.251 112.844Z" fill="url(#paint6_linear_100_6199)"/>
<path fill-rule="evenodd" clip-rule="evenodd" d="M247.787 112.844C247.787 113.491 247.534 114.101 247.076 114.558C246.616 115.018 246.007 115.27 245.359 115.27C244.713 115.27 244.1 115.018 243.641 114.558C243.184 114.101 242.93 113.491 242.93 112.844C242.93 111.505 244.019 110.419 245.357 110.419C246.697 110.417 247.787 111.505 247.787 112.844ZM245.359 109.489C243.508 109.489 242 110.991 242 112.842C242 113.739 242.349 114.581 242.985 115.216C243.62 115.848 244.463 116.197 245.359 116.197C246.258 116.197 247.1 115.848 247.735 115.216C248.367 114.581 248.718 113.739 248.718 112.842C248.716 110.993 247.21 109.489 245.359 109.489Z" fill="url(#paint7_linear_100_6199)"/>
<defs>
<linearGradient id="paint0_linear_100_6199" x1="203.469" y1="74.7157" x2="275.879" y2="217.661" gradientUnits="userSpaceOnUse">
<stop stop-color="#A5CDB9" stop-opacity="0.2"/>
<stop offset="1" stop-color="#A5CDB9"/>
</linearGradient>
<linearGradient id="paint1_linear_100_6199" x1="252.631" y1="221.259" x2="136.193" y2="182.875" gradientUnits="userSpaceOnUse">
<stop stop-color="#EDE6D8"/>
<stop offset="1" stop-color="#EDE6D8" stop-opacity="0.2"/>
</linearGradient>
<linearGradient id="paint2_linear_100_6199" x1="289.359" y1="92.9551" x2="289.359" y2="98.733" gradientUnits="userSpaceOnUse">
<stop stop-color="#FFFAF1"/>
<stop offset="1" stop-color="#EDE6D8"/>
</linearGradient>
<linearGradient id="paint3_linear_100_6199" x1="289.359" y1="92.4888" x2="289.359" y2="99.1965" gradientUnits="userSpaceOnUse">
<stop stop-color="#D2D9E9"/>
<stop offset="1" stop-color="#989AA7"/>
</linearGradient>
<linearGradient id="paint4_linear_100_6199" x1="347.359" y1="121.955" x2="347.359" y2="127.733" gradientUnits="userSpaceOnUse">
<stop stop-color="#FFFAF1"/>
<stop offset="1" stop-color="#EDE6D8"/>
</linearGradient>
<linearGradient id="paint5_linear_100_6199" x1="347.359" y1="121.489" x2="347.359" y2="128.197" gradientUnits="userSpaceOnUse">
<stop stop-color="#D2D9E9"/>
<stop offset="1" stop-color="#989AA7"/>
</linearGradient>
<linearGradient id="paint6_linear_100_6199" x1="245.359" y1="109.955" x2="245.359" y2="115.733" gradientUnits="userSpaceOnUse">
<stop stop-color="#FFFAF1"/>
<stop offset="1" stop-color="#EDE6D8"/>
</linearGradient>
<linearGradient id="paint7_linear_100_6199" x1="245.359" y1="109.489" x2="245.359" y2="116.197" gradientUnits="userSpaceOnUse">
<stop stop-color="#D2D9E9"/>
<stop offset="1" stop-color="#989AA7"/>
</linearGradient>
</defs>
</svg>
