<svg width="396" height="571" viewBox="0 0 396 571" fill="none" xmlns="http://www.w3.org/2000/svg">
<path d="M266.516 171.902C245.692 146.883 369.715 30.2844 307.946 30.2846C246.176 30.2847 357.057 102.6 361.503 150.057C365.949 197.514 277.061 214.463 277.061 242.335C277.061 270.206 330.269 261.543 317.738 234.048C305.208 206.554 208.512 239.213 217.175 273.596C225.838 307.979 298.341 268.7 327.908 278.116C357.474 287.532 364.192 315.406 357.098 340.429C352.694 355.961 342.897 365.621 330.269 371.88C317.64 378.139 300.955 377.201 290.978 367.289C281.001 357.377 281.094 338.3 292.748 330.375C338.169 299.464 340.611 418.74 336.366 439.746C329.379 474.467 314.725 508.998 288.738 533.499C262.751 558 199.096 556.832 219.811 513.518" stroke="#F7F4ED" stroke-linecap="round" stroke-linejoin="round"/>
<path opacity="0.4" d="M250.328 106.551C223.599 152.111 159.614 165 159.614 165C159.614 165 138.967 104.008 165.68 58.4419C192.403 12.87 256.38 0 256.38 0C256.38 0 277.042 60.9861 250.328 106.551Z" fill="url(#paint0_linear_226_32691)"/>
<path opacity="0.6" fill-rule="evenodd" clip-rule="evenodd" d="M244.595 143.76C196.89 166.646 154.353 177.178 154.353 177.178C154.353 177.178 217.349 209.184 265.047 186.307C312.752 163.421 327.124 94.319 327.124 94.319C327.124 94.319 292.306 120.875 244.595 143.76Z" fill="url(#paint1_linear_226_32691)"/>
<path fill-rule="evenodd" clip-rule="evenodd" d="M291.874 144.409C291.874 146.467 290.201 148.137 288.141 148.137C286.078 148.137 284.408 146.467 284.408 144.409C284.408 142.348 286.078 140.68 288.141 140.68C290.201 140.68 291.874 142.348 291.874 144.409Z" fill="url(#paint2_linear_226_32691)"/>
<path fill-rule="evenodd" clip-rule="evenodd" d="M291.275 144.408C291.275 145.243 290.949 146.031 290.357 146.62C289.765 147.215 288.979 147.54 288.142 147.54C287.308 147.54 286.517 147.215 285.925 146.62C285.335 146.031 285.006 145.243 285.006 144.408C285.006 142.681 286.412 141.279 288.14 141.279C289.869 141.276 291.275 142.681 291.275 144.408ZM288.142 140.078C285.753 140.078 283.807 142.017 283.807 144.406C283.807 145.564 284.257 146.65 285.078 147.47C285.898 148.286 286.985 148.735 288.142 148.735C289.302 148.735 290.389 148.286 291.209 147.47C292.025 146.65 292.478 145.564 292.478 144.406C292.475 142.02 290.531 140.078 288.142 140.078Z" fill="url(#paint3_linear_226_32691)"/>
<path fill-rule="evenodd" clip-rule="evenodd" d="M346.874 63.4092C346.874 65.4669 345.201 67.1374 343.141 67.1374C341.078 67.1374 339.408 65.4669 339.408 63.4092C339.408 61.348 341.078 59.6802 343.141 59.6802C345.201 59.6802 346.874 61.348 346.874 63.4092Z" fill="url(#paint4_linear_226_32691)"/>
<path fill-rule="evenodd" clip-rule="evenodd" d="M346.275 63.4085C346.275 64.2433 345.949 65.031 345.357 65.6203C344.765 66.2146 343.979 66.5399 343.142 66.5399C342.308 66.5399 341.517 66.2146 340.925 65.6203C340.335 65.031 340.006 64.2433 340.006 63.4085C340.006 61.6808 341.412 60.2789 343.14 60.2789C344.869 60.2764 346.275 61.6808 346.275 63.4085ZM343.142 59.0781C340.753 59.0781 338.807 61.017 338.807 63.4058C338.807 64.564 339.257 65.6502 340.078 66.4704C340.898 67.2856 341.985 67.7354 343.142 67.7354C344.302 67.7354 345.389 67.2856 346.209 66.4704C347.025 65.6502 347.478 64.564 347.478 63.4058C347.475 61.0195 345.531 59.0781 343.142 59.0781Z" fill="url(#paint5_linear_226_32691)"/>
<path fill-rule="evenodd" clip-rule="evenodd" d="M300.874 14.4092C300.874 16.4669 299.201 18.1374 297.141 18.1374C295.078 18.1374 293.408 16.4669 293.408 14.4092C293.408 12.348 295.078 10.6802 297.141 10.6802C299.201 10.6802 300.874 12.348 300.874 14.4092Z" fill="url(#paint6_linear_226_32691)"/>
<path fill-rule="evenodd" clip-rule="evenodd" d="M300.275 14.4085C300.275 15.2433 299.949 16.031 299.357 16.6203C298.765 17.2146 297.979 17.5399 297.142 17.5399C296.308 17.5399 295.517 17.2146 294.925 16.6203C294.335 16.031 294.006 15.2433 294.006 14.4085C294.006 12.6808 295.412 11.2789 297.14 11.2789C298.869 11.2764 300.275 12.6808 300.275 14.4085ZM297.142 10.0781C294.753 10.0781 292.807 12.017 292.807 14.4058C292.807 15.564 293.257 16.6502 294.078 17.4704C294.898 18.2856 295.985 18.7354 297.142 18.7354C298.302 18.7354 299.389 18.2856 300.209 17.4704C301.025 16.6502 301.478 15.564 301.478 14.4058C301.475 12.0195 299.531 10.0781 297.142 10.0781Z" fill="url(#paint7_linear_226_32691)"/>
<defs>
<linearGradient id="paint0_linear_226_32691" x1="167.527" y1="165" x2="251.62" y2="-0.093886" gradientUnits="userSpaceOnUse">
<stop stop-color="#D2D9E9"/>
<stop offset="1" stop-color="#D2D9E9" stop-opacity="0.2"/>
</linearGradient>
<linearGradient id="paint1_linear_226_32691" x1="169.234" y1="183.951" x2="329.175" y2="109.04" gradientUnits="userSpaceOnUse">
<stop stop-color="#EDE6D8" stop-opacity="0.6"/>
<stop offset="1" stop-color="#EDE6D8" stop-opacity="0.2"/>
</linearGradient>
<linearGradient id="paint2_linear_226_32691" x1="288.141" y1="140.68" x2="288.141" y2="148.137" gradientUnits="userSpaceOnUse">
<stop stop-color="#FFFAF1"/>
<stop offset="1" stop-color="#EDE6D8"/>
</linearGradient>
<linearGradient id="paint3_linear_226_32691" x1="288.142" y1="140.078" x2="288.142" y2="148.735" gradientUnits="userSpaceOnUse">
<stop stop-color="#D2D9E9"/>
<stop offset="1" stop-color="#989AA7"/>
</linearGradient>
<linearGradient id="paint4_linear_226_32691" x1="343.141" y1="59.6802" x2="343.141" y2="67.1374" gradientUnits="userSpaceOnUse">
<stop stop-color="#FFFAF1"/>
<stop offset="1" stop-color="#EDE6D8"/>
</linearGradient>
<linearGradient id="paint5_linear_226_32691" x1="343.142" y1="59.0781" x2="343.142" y2="67.7354" gradientUnits="userSpaceOnUse">
<stop stop-color="#D2D9E9"/>
<stop offset="1" stop-color="#989AA7"/>
</linearGradient>
<linearGradient id="paint6_linear_226_32691" x1="297.141" y1="10.6802" x2="297.141" y2="18.1374" gradientUnits="userSpaceOnUse">
<stop stop-color="#FFFAF1"/>
<stop offset="1" stop-color="#EDE6D8"/>
</linearGradient>
<linearGradient id="paint7_linear_226_32691" x1="297.142" y1="10.0781" x2="297.142" y2="18.7354" gradientUnits="userSpaceOnUse">
<stop stop-color="#D2D9E9"/>
<stop offset="1" stop-color="#989AA7"/>
</linearGradient>
</defs>
</svg>
