<svg width="497" height="489" viewBox="0 0 497 489" fill="none" xmlns="http://www.w3.org/2000/svg">
<path d="M441.999 282C398.999 294.5 348.499 259.5 333.999 253C319.499 246.5 305.35 249.043 299.378 249.786C275.148 252.788 252.561 266.811 228.187 265.613C225.221 265.465 222.191 265.068 219.604 263.647C217.017 262.226 214.927 259.581 214.898 256.638C214.849 252.033 219.568 248.733 224.076 247.695C229.708 246.407 235.928 247.392 240.596 250.762C245.265 254.131 248.165 259.974 247.567 265.698C247.023 270.873 243.781 275.5 239.635 278.688C235.489 281.876 230.515 283.777 225.497 285.266C218.787 287.261 211.394 288.539 204.939 285.89C196.43 282.398 191.762 272.444 192.699 263.309C193.636 254.173 199.295 246.021 206.386 240.126C213.48 234.241 221.966 230.311 230.381 226.53C235.967 224.018 242.392 220.444 242.853 214.362C243.11 210.946 241.192 207.598 238.463 205.517C235.733 203.435 232.289 202.475 228.863 202.083C223.813 201.519 218.424 202.214 214.246 205.12C210.068 208.026 207.461 213.455 208.859 218.317C210.257 223.179 217.192 230.388 220.842 224.135C224.491 217.882 211.737 194.885 190.251 185.391C168.765 175.897 134.5 174.5 120 186.5C105.5 198.5 127 243.03 136 226.53C144.999 210.03 66.5006 196.38 57.4994 212" stroke="#F7F4ED" stroke-linecap="round" stroke-linejoin="round"/>
<path opacity="0.2" d="M257.559 249.213C234.398 268.47 197.622 262.981 197.622 262.981C197.622 262.981 198.402 226.263 221.555 207C244.715 187.735 281.483 193.233 281.483 193.233C281.483 193.233 280.713 229.95 257.559 249.213Z" fill="url(#paint0_linear_151_6412)"/>
<path opacity="0.2" d="M203.304 220.576C204.06 244.085 183.036 264.112 183.036 264.112C183.036 264.112 160.785 246.018 160.023 222.511C159.262 198.999 180.287 178.981 180.287 178.981C180.287 178.981 202.542 197.069 203.304 220.576Z" fill="url(#paint1_linear_151_6412)"/>
<path opacity="0.15" fill-rule="evenodd" clip-rule="evenodd" d="M235.963 263.417C209.59 270.561 187.002 271.916 187.002 271.916C187.002 271.916 215.987 294.082 242.355 286.941C268.727 279.797 282.511 246.056 282.511 246.056C282.511 246.056 262.338 256.273 235.963 263.417Z" fill="url(#paint2_linear_151_6412)"/>
<path fill-rule="evenodd" clip-rule="evenodd" d="M223.816 185.297C223.368 186.03 222.409 186.261 221.675 185.813C220.941 185.364 220.71 184.406 221.157 183.673C221.606 182.939 222.563 182.709 223.298 183.157C224.032 183.606 224.264 184.564 223.816 185.297Z" fill="url(#paint3_linear_151_6412)"/>
<path fill-rule="evenodd" clip-rule="evenodd" d="M223.602 185.167C223.42 185.464 223.133 185.674 222.794 185.755C222.453 185.838 222.103 185.782 221.805 185.6C221.508 185.419 221.297 185.131 221.216 184.79C221.134 184.452 221.188 184.1 221.37 183.803C221.746 183.188 222.551 182.995 223.166 183.37C223.783 183.746 223.978 184.552 223.602 185.167ZM223.428 182.943C222.578 182.424 221.463 182.69 220.943 183.541C220.691 183.953 220.615 184.438 220.729 184.909C220.843 185.377 221.133 185.774 221.545 186.026C221.958 186.278 222.443 186.355 222.912 186.243C223.381 186.128 223.779 185.84 224.031 185.428C224.549 184.578 224.279 183.463 223.428 182.943Z" fill="url(#paint4_linear_151_6412)"/>
<path fill-rule="evenodd" clip-rule="evenodd" d="M169.816 165.297C169.368 166.03 168.409 166.261 167.675 165.813C166.941 165.364 166.71 164.406 167.157 163.673C167.606 162.939 168.563 162.709 169.298 163.157C170.032 163.606 170.264 164.564 169.816 165.297Z" fill="url(#paint5_linear_151_6412)"/>
<path fill-rule="evenodd" clip-rule="evenodd" d="M169.602 165.167C169.42 165.464 169.133 165.674 168.794 165.755C168.453 165.838 168.103 165.782 167.805 165.6C167.508 165.419 167.297 165.131 167.216 164.79C167.134 164.452 167.188 164.1 167.37 163.803C167.746 163.188 168.551 162.995 169.166 163.37C169.783 163.746 169.978 164.552 169.602 165.167ZM169.428 162.943C168.578 162.424 167.463 162.69 166.943 163.541C166.691 163.953 166.615 164.438 166.729 164.909C166.843 165.377 167.133 165.774 167.545 166.026C167.958 166.278 168.443 166.355 168.912 166.243C169.381 166.128 169.779 165.84 170.031 165.428C170.549 164.578 170.279 163.463 169.428 162.943Z" fill="url(#paint6_linear_151_6412)"/>
<path fill-rule="evenodd" clip-rule="evenodd" d="M183.816 201.298C183.368 202.031 182.409 202.262 181.675 201.813C180.941 201.364 180.71 200.406 181.157 199.673C181.606 198.94 182.563 198.709 183.298 199.158C184.032 199.606 184.264 200.564 183.816 201.298Z" fill="url(#paint7_linear_151_6412)"/>
<path fill-rule="evenodd" clip-rule="evenodd" d="M183.602 201.167C183.42 201.464 183.133 201.674 182.794 201.755C182.453 201.838 182.103 201.782 181.805 201.6C181.508 201.419 181.297 201.131 181.216 200.79C181.134 200.452 181.188 200.1 181.37 199.803C181.746 199.188 182.551 198.995 183.166 199.37C183.783 199.746 183.978 200.552 183.602 201.167ZM183.428 198.943C182.578 198.424 181.463 198.69 180.943 199.541C180.691 199.953 180.615 200.438 180.729 200.909C180.843 201.377 181.133 201.774 181.545 202.026C181.958 202.278 182.443 202.355 182.912 202.243C183.381 202.128 183.779 201.84 184.031 201.428C184.549 200.578 184.279 199.463 183.428 198.943Z" fill="url(#paint8_linear_151_6412)"/>
<defs>
<linearGradient id="paint0_linear_151_6412" x1="255.569" y1="183.855" x2="223.542" y2="272.361" gradientUnits="userSpaceOnUse">
<stop stop-color="#EDE6D8" stop-opacity="0.2"/>
<stop offset="1" stop-color="#EDE6D8"/>
</linearGradient>
<linearGradient id="paint1_linear_151_6412" x1="178.332" y1="182.172" x2="182.398" y2="261.11" gradientUnits="userSpaceOnUse">
<stop stop-color="#A5CDB9" stop-opacity="0.2"/>
<stop offset="1" stop-color="#A5CDB9"/>
</linearGradient>
<linearGradient id="paint2_linear_151_6412" x1="196.724" y1="277.675" x2="273.858" y2="261.821" gradientUnits="userSpaceOnUse">
<stop stop-color="#989AA7"/>
<stop offset="1" stop-color="#989AA7" stop-opacity="0.2"/>
</linearGradient>
<linearGradient id="paint3_linear_151_6412" x1="223.298" y1="183.157" x2="221.675" y2="185.813" gradientUnits="userSpaceOnUse">
<stop stop-color="#FFFAF1"/>
<stop offset="1" stop-color="#EDE6D8"/>
</linearGradient>
<linearGradient id="paint4_linear_151_6412" x1="223.428" y1="182.943" x2="221.545" y2="186.026" gradientUnits="userSpaceOnUse">
<stop stop-color="#D2D9E9"/>
<stop offset="1" stop-color="#989AA7"/>
</linearGradient>
<linearGradient id="paint5_linear_151_6412" x1="169.298" y1="163.157" x2="167.675" y2="165.813" gradientUnits="userSpaceOnUse">
<stop stop-color="#FFFAF1"/>
<stop offset="1" stop-color="#EDE6D8"/>
</linearGradient>
<linearGradient id="paint6_linear_151_6412" x1="169.428" y1="162.943" x2="167.545" y2="166.026" gradientUnits="userSpaceOnUse">
<stop stop-color="#D2D9E9"/>
<stop offset="1" stop-color="#989AA7"/>
</linearGradient>
<linearGradient id="paint7_linear_151_6412" x1="183.298" y1="199.158" x2="181.675" y2="201.813" gradientUnits="userSpaceOnUse">
<stop stop-color="#FFFAF1"/>
<stop offset="1" stop-color="#EDE6D8"/>
</linearGradient>
<linearGradient id="paint8_linear_151_6412" x1="183.428" y1="198.943" x2="181.545" y2="202.026" gradientUnits="userSpaceOnUse">
<stop stop-color="#D2D9E9"/>
<stop offset="1" stop-color="#989AA7"/>
</linearGradient>
</defs>
</svg>
