<svg width="605" height="256" viewBox="0 0 605 256" fill="none" xmlns="http://www.w3.org/2000/svg">
<path d="M523.066 66.3658C565.009 -19.1215 632.183 87.1362 546.977 147.409C478.063 180.117 499.993 102.279 464.955 104.018C442.654 110.755 432.312 164 414.5 144C396.688 124 397.901 5.92487 432.499 28.4997C454.811 43.0579 443.39 92.2557 373.5 94.9995C342.647 97.466 252.826 120 271.5 172C290.174 224 346.815 85.4689 327.5 56.5C308.723 28.3376 281.6 74.8313 246.866 113.706C187.739 171.676 90.1269 219.563 11.7207 145.577" stroke="#F7F4ED" stroke-linecap="round" stroke-linejoin="round"/>
<path opacity="0.3" d="M370.978 131.344C383.65 168.505 428.284 187.396 428.284 187.396C428.284 187.396 452.374 146.027 439.715 108.864C427.05 71.6959 382.419 52.8198 382.419 52.8198C382.419 52.8198 358.318 94.182 370.978 131.344Z" fill="url(#paint0_linear_132_7009)"/>
<path opacity="0.2" d="M450.639 94.0217C423.015 130.904 434.256 186.666 434.256 186.666C434.256 186.666 490.297 182.625 517.931 145.754C545.567 108.873 534.312 53.1231 534.312 53.1231C534.312 53.1231 478.272 57.1504 450.639 94.0217Z" fill="url(#paint1_linear_132_7009)"/>
<path opacity="0.3" fill-rule="evenodd" clip-rule="evenodd" d="M371.148 161.135C404.201 182.072 434.687 193.811 434.687 193.811C434.687 193.811 384.654 209.838 351.604 188.907C318.551 167.969 314.977 118 314.977 118C314.977 118 338.09 140.197 371.148 161.135Z" fill="url(#paint2_linear_132_7009)"/>
<path fill-rule="evenodd" clip-rule="evenodd" d="M491.251 73.3555C491.251 74.9499 489.955 76.2442 488.359 76.2442C486.761 76.2442 485.467 74.9499 485.467 73.3555C485.467 71.7585 486.761 70.4663 488.359 70.4663C489.955 70.4663 491.251 71.7585 491.251 73.3555Z" fill="url(#paint3_linear_132_7009)"/>
<path fill-rule="evenodd" clip-rule="evenodd" d="M490.787 73.3552C490.787 74.002 490.534 74.6123 490.076 75.0689C489.616 75.5294 489.007 75.7814 488.359 75.7814C487.713 75.7814 487.1 75.5294 486.641 75.0689C486.184 74.6123 485.93 74.002 485.93 73.3552C485.93 72.0166 487.019 70.9304 488.357 70.9304C489.697 70.9284 490.787 72.0166 490.787 73.3552ZM488.359 70C486.508 70 485 71.5023 485 73.3531C485 74.2505 485.349 75.0921 485.985 75.7276C486.62 76.3592 487.463 76.7077 488.359 76.7077C489.258 76.7077 490.1 76.3592 490.735 75.7276C491.367 75.0921 491.718 74.2505 491.718 73.3531C491.716 71.5042 490.21 70 488.359 70Z" fill="url(#paint4_linear_132_7009)"/>
<path fill-rule="evenodd" clip-rule="evenodd" d="M483.251 41.3555C483.251 42.9499 481.955 44.2442 480.359 44.2442C478.761 44.2442 477.467 42.9499 477.467 41.3555C477.467 39.7585 478.761 38.4663 480.359 38.4663C481.955 38.4663 483.251 39.7585 483.251 41.3555Z" fill="url(#paint5_linear_132_7009)"/>
<path fill-rule="evenodd" clip-rule="evenodd" d="M482.787 41.3552C482.787 42.002 482.534 42.6123 482.076 43.0689C481.616 43.5294 481.007 43.7814 480.359 43.7814C479.713 43.7814 479.1 43.5294 478.641 43.0689C478.184 42.6123 477.93 42.002 477.93 41.3552C477.93 40.0166 479.019 38.9304 480.357 38.9304C481.697 38.9284 482.787 40.0166 482.787 41.3552ZM480.359 38C478.508 38 477 39.5023 477 41.3531C477 42.2505 477.349 43.0921 477.985 43.7276C478.62 44.3592 479.463 44.7077 480.359 44.7077C481.258 44.7077 482.1 44.3592 482.735 43.7276C483.367 43.0921 483.718 42.2505 483.718 41.3531C483.716 39.5042 482.21 38 480.359 38Z" fill="url(#paint6_linear_132_7009)"/>
<path fill-rule="evenodd" clip-rule="evenodd" d="M433.251 58.3555C433.251 59.9499 431.955 61.2442 430.359 61.2442C428.761 61.2442 427.467 59.9499 427.467 58.3555C427.467 56.7585 428.761 55.4663 430.359 55.4663C431.955 55.4663 433.251 56.7585 433.251 58.3555Z" fill="url(#paint7_linear_132_7009)"/>
<path fill-rule="evenodd" clip-rule="evenodd" d="M432.787 58.3552C432.787 59.002 432.534 59.6123 432.076 60.0689C431.616 60.5294 431.007 60.7814 430.359 60.7814C429.713 60.7814 429.1 60.5294 428.641 60.0689C428.184 59.6123 427.93 59.002 427.93 58.3552C427.93 57.0166 429.019 55.9304 430.357 55.9304C431.697 55.9284 432.787 57.0166 432.787 58.3552ZM430.359 55C428.508 55 427 56.5023 427 58.3531C427 59.2505 427.349 60.0921 427.985 60.7276C428.62 61.3592 429.463 61.7077 430.359 61.7077C431.258 61.7077 432.1 61.3592 432.735 60.7276C433.367 60.0921 433.718 59.2505 433.718 58.3531C433.716 56.5042 432.21 55 430.359 55Z" fill="url(#paint8_linear_132_7009)"/>
<defs>
<linearGradient id="paint0_linear_132_7009" x1="410.179" y1="55.3032" x2="431.869" y2="180.02" gradientUnits="userSpaceOnUse">
<stop stop-color="#EDE6D8" stop-opacity="0.3"/>
<stop offset="1" stop-color="#EDE6D8"/>
</linearGradient>
<linearGradient id="paint1_linear_132_7009" x1="533.865" y1="60.4413" x2="438.653" y2="182.564" gradientUnits="userSpaceOnUse">
<stop stop-color="#A5CDB9" stop-opacity="0.2"/>
<stop offset="1" stop-color="#A5CDB9"/>
</linearGradient>
<linearGradient id="paint2_linear_132_7009" x1="324" y1="129.5" x2="430" y2="193.5" gradientUnits="userSpaceOnUse">
<stop stop-color="#D2D9E9" stop-opacity="0.3"/>
<stop offset="1" stop-color="#D2D9E9"/>
</linearGradient>
<linearGradient id="paint3_linear_132_7009" x1="488.359" y1="70.4663" x2="488.359" y2="76.2442" gradientUnits="userSpaceOnUse">
<stop stop-color="#FFFAF1"/>
<stop offset="1" stop-color="#EDE6D8"/>
</linearGradient>
<linearGradient id="paint4_linear_132_7009" x1="488.359" y1="70" x2="488.359" y2="76.7077" gradientUnits="userSpaceOnUse">
<stop stop-color="#D2D9E9"/>
<stop offset="1" stop-color="#989AA7"/>
</linearGradient>
<linearGradient id="paint5_linear_132_7009" x1="480.359" y1="38.4663" x2="480.359" y2="44.2442" gradientUnits="userSpaceOnUse">
<stop stop-color="#FFFAF1"/>
<stop offset="1" stop-color="#EDE6D8"/>
</linearGradient>
<linearGradient id="paint6_linear_132_7009" x1="480.359" y1="38" x2="480.359" y2="44.7077" gradientUnits="userSpaceOnUse">
<stop stop-color="#D2D9E9"/>
<stop offset="1" stop-color="#989AA7"/>
</linearGradient>
<linearGradient id="paint7_linear_132_7009" x1="430.359" y1="55.4663" x2="430.359" y2="61.2442" gradientUnits="userSpaceOnUse">
<stop stop-color="#FFFAF1"/>
<stop offset="1" stop-color="#EDE6D8"/>
</linearGradient>
<linearGradient id="paint8_linear_132_7009" x1="430.359" y1="55" x2="430.359" y2="61.7077" gradientUnits="userSpaceOnUse">
<stop stop-color="#D2D9E9"/>
<stop offset="1" stop-color="#989AA7"/>
</linearGradient>
</defs>
</svg>
