<svg width="56" height="56" viewBox="0 0 56 56" fill="none" xmlns="http://www.w3.org/2000/svg">
<circle cx="28" cy="28" r="28" fill="#989AA7"/>
<path d="M16.7539 20.4255C16.7539 17.9257 17.7414 15.5283 19.4992 13.7607C21.257 11.993 23.6411 11 26.1269 11C28.6128 11 30.9969 11.993 32.7547 13.7607C34.5125 15.5283 35.5 17.9257 35.5 20.4255C35.5 20.7588 35.3683 21.0785 35.134 21.3141C34.8996 21.5498 34.5817 21.6822 34.2503 21.6822C33.9188 21.6822 33.6009 21.5498 33.3666 21.3141C33.1322 21.0785 33.0005 20.7588 33.0005 20.4255C33.0005 18.5923 32.2763 16.8342 30.9873 15.538C29.6982 14.2417 27.9499 13.5135 26.1269 13.5135C24.304 13.5135 22.5556 14.2417 21.2666 15.538C19.9775 16.8342 19.2534 18.5923 19.2534 20.4255C19.2534 20.7588 19.1217 21.0785 18.8873 21.3141C18.653 21.5498 18.3351 21.6822 18.0036 21.6822C17.6722 21.6822 17.3543 21.5498 17.1199 21.3141C16.8856 21.0785 16.7539 20.7588 16.7539 20.4255ZM38.6243 27.3375C37.8953 27.3367 37.1777 27.5198 36.5373 27.8701C36.3459 27.2745 36.0303 26.7269 35.6117 26.2638C35.193 25.8007 34.6809 25.4328 34.1096 25.1846C33.5382 24.9365 32.9208 24.8138 32.2985 24.8247C31.6762 24.8357 31.0634 24.9801 30.501 25.2482V20.4255C30.501 19.2589 30.0402 18.1401 29.2199 17.3152C28.3996 16.4904 27.287 16.0269 26.1269 16.0269C24.9669 16.0269 23.8543 16.4904 23.034 17.3152C22.2137 18.1401 21.7529 19.2589 21.7529 20.4255V32.9928L21.1561 32.0299C20.5725 31.0214 19.6145 30.2874 18.4927 29.9892C17.371 29.6911 16.1774 29.8533 15.1745 30.4401C14.1717 31.0269 13.4417 31.9903 13.1452 33.1184C12.8488 34.2464 13.01 35.4467 13.5936 36.4551L18.1739 44.3097C18.2507 44.4627 18.3578 44.5983 18.4887 44.7081C18.6195 44.8179 18.7713 44.8997 18.9347 44.9483C19.0981 44.9969 19.2697 45.0115 19.4389 44.991C19.6081 44.9705 19.7714 44.9154 19.9186 44.8291C20.0659 44.7429 20.194 44.6272 20.2952 44.4893C20.3964 44.3514 20.4684 44.1941 20.5069 44.0272C20.5454 43.8603 20.5496 43.6872 20.5191 43.5185C20.4886 43.3499 20.4242 43.1894 20.3297 43.0467L15.7541 35.1921C15.6256 34.9776 15.541 34.7394 15.5051 34.4916C15.4692 34.2438 15.4827 33.9912 15.545 33.7487C15.6072 33.5062 15.7169 33.2786 15.8676 33.0792C16.0183 32.8798 16.207 32.7126 16.4226 32.5874C16.6383 32.4621 16.8766 32.3813 17.1237 32.3498C17.3708 32.3182 17.6216 32.3364 17.8616 32.4034C18.1016 32.4704 18.3259 32.5848 18.5214 32.74C18.7169 32.8951 18.8797 33.0879 19.0003 33.307L19.0222 33.3432L21.9403 38.0559C22.0836 38.2884 22.2984 38.4675 22.5521 38.5661C22.8058 38.6647 23.0845 38.6774 23.346 38.6022C23.6075 38.5271 23.8375 38.3682 24.0011 38.1497C24.1647 37.9311 24.2529 37.6649 24.2523 37.3914V20.4255C24.2523 19.9255 24.4498 19.4461 24.8014 19.0925C25.153 18.739 25.6298 18.5404 26.1269 18.5404C26.6241 18.5404 27.1009 18.739 27.4525 19.0925C27.8041 19.4461 28.0016 19.9255 28.0016 20.4255V31.1077C28.0016 31.4411 28.1332 31.7607 28.3676 31.9964C28.602 32.2321 28.9198 32.3645 29.2513 32.3645C29.5827 32.3645 29.9006 32.2321 30.135 31.9964C30.3694 31.7607 30.501 31.4411 30.501 31.1077V29.2226C30.501 28.7227 30.6985 28.2432 31.0501 27.8897C31.4017 27.5361 31.8785 27.3375 32.3756 27.3375C32.8728 27.3375 33.3496 27.5361 33.7012 27.8897C34.0528 28.2432 34.2503 28.7227 34.2503 29.2226V32.3645C34.2503 32.6978 34.3819 33.0174 34.6163 33.2531C34.8507 33.4888 35.1685 33.6212 35.5 33.6212C35.8314 33.6212 36.1493 33.4888 36.3837 33.2531C36.6181 33.0174 36.7497 32.6978 36.7497 32.3645V31.7361C36.7497 31.2362 36.9472 30.7567 37.2988 30.4031C37.6504 30.0496 38.1272 29.851 38.6243 29.851C39.1215 29.851 39.5983 30.0496 39.9499 30.4031C40.3015 30.7567 40.499 31.2362 40.499 31.7361V37.3914C40.499 40.7862 39.3898 43.0938 39.3804 43.1127C39.2324 43.4108 39.2081 43.7558 39.313 44.0719C39.4179 44.388 39.6433 44.6493 39.9397 44.7983C40.1131 44.8864 40.3047 44.9322 40.499 44.9318C40.7311 44.932 40.9588 44.8671 41.1563 44.7445C41.3539 44.6218 41.5136 44.4463 41.6175 44.2375C41.6753 44.1228 43 41.4098 43 37.3914V31.7361C43 31.1583 42.8868 30.5862 42.6669 30.0525C42.447 29.5187 42.1246 29.0338 41.7183 28.6253C41.312 28.2168 40.8296 27.8929 40.2987 27.6719C39.7678 27.451 39.1989 27.3373 38.6243 27.3375Z" fill="white"/>
</svg>
