<svg width="56" height="56" viewBox="0 0 56 56" fill="none" xmlns="http://www.w3.org/2000/svg">
<circle cx="28" cy="28" r="28" fill="#F7F4ED"/>
<path d="M39.6484 16.3519C39.1792 15.8827 38.4208 15.8827 37.9516 16.3519L28.0002 26.3034L18.0487 16.3519C17.5795 15.8827 16.8211 15.8827 16.3519 16.3519C15.8827 16.8211 15.8827 17.5795 16.3519 18.0487L26.3034 28.0002L16.3519 37.9516C15.8827 38.4208 15.8827 39.1792 16.3519 39.6484C16.5859 39.8824 16.8931 40 17.2003 40C17.5075 40 17.8147 39.8824 18.0487 39.6484L28.0002 29.6969L37.9516 39.6484C38.1856 39.8824 38.4928 40 38.8 40C39.1072 40 39.4144 39.8824 39.6484 39.6484C40.1176 39.1792 40.1176 38.4208 39.6484 37.9516L29.6969 28.0002L39.6484 18.0487C40.1176 17.5795 40.1176 16.8211 39.6484 16.3519Z" fill="#989AA7"/>
</svg>
