<svg width="24" height="24" viewBox="0 0 24 24" fill="none" xmlns="http://www.w3.org/2000/svg">
<rect width="24" height="24" rx="12" fill="#675DA9"/>
<path d="M17.8765 6.09227C17.4796 5.72734 15.8726 4.55891 12.2905 4.54291C12.2905 4.54291 8.06812 4.28681 6.00977 6.1755C4.86375 7.32152 4.4604 8.99573 4.41878 11.0765C4.37717 13.1541 4.32275 17.0499 8.07772 18.1063H8.08092L8.07772 19.7165C8.07772 19.7165 8.05531 20.3695 8.48427 20.5007C9.00286 20.6608 9.31017 20.1646 9.80635 19.63C10.0785 19.3355 10.453 18.9066 10.7379 18.5768C13.3052 18.7913 15.2804 18.2983 15.5044 18.2247C16.023 18.055 18.9585 17.6805 19.4355 13.7847C19.9285 9.77682 19.1954 7.23829 17.8765 6.09227ZM18.3119 13.503C17.9085 16.7554 15.53 16.9602 15.0915 17.1011C14.9058 17.1619 13.1708 17.5941 10.9876 17.45C10.9876 17.45 9.36139 19.4123 8.85561 19.9213C8.77558 20.0014 8.68274 20.0334 8.62192 20.0174C8.53549 19.995 8.50988 19.8925 8.51308 19.7421C8.51308 19.5244 8.52589 17.0627 8.52589 17.0627C8.52269 17.0627 8.52269 17.0627 8.52589 17.0627C5.34712 16.1824 5.53279 12.8659 5.568 11.1309C5.60322 9.39588 5.92974 7.97136 6.89969 7.01421C8.63793 5.43923 12.2264 5.67292 12.2264 5.67292C15.2547 5.68572 16.7049 6.59806 17.041 6.90217C18.1582 7.86252 18.728 10.1514 18.3119 13.503Z" fill="white"/>
<path d="M13.7665 11.1917C13.6609 11.1917 13.5713 11.1085 13.5649 10.9997C13.5297 10.3114 13.2063 9.9753 12.5469 9.94009C12.4349 9.93368 12.3484 9.83765 12.3548 9.72561C12.3612 9.61357 12.4573 9.52713 12.5693 9.53354C13.44 9.58155 13.9266 10.0809 13.9714 10.9773C13.9778 11.0893 13.8914 11.1853 13.7793 11.1885C13.7729 11.1917 13.7697 11.1917 13.7665 11.1917Z" fill="white"/>
<path d="M14.8033 11.5376H14.8001C14.6881 11.5344 14.5985 11.4416 14.6017 11.3296C14.6177 10.6381 14.4192 10.0779 13.9967 9.61694C13.5773 9.15597 12.9979 8.90628 12.2328 8.85186C12.1208 8.84225 12.0375 8.74622 12.0471 8.63418C12.0567 8.52214 12.1528 8.4389 12.2648 8.44851C13.1291 8.51253 13.811 8.81344 14.2976 9.34484C14.7873 9.87943 15.0242 10.5485 15.0082 11.3392C15.005 11.4512 14.9122 11.5376 14.8033 11.5376Z" fill="white"/>
<path d="M15.866 11.9533C15.754 11.9533 15.6643 11.8636 15.6643 11.7516C15.6547 10.5127 15.2994 9.5684 14.5759 8.86094C13.8621 8.16308 12.9561 7.80775 11.8902 7.79815C11.7781 7.79815 11.6885 7.70532 11.6885 7.59328C11.6885 7.48123 11.7813 7.3916 11.8902 7.3916C13.065 7.40121 14.0637 7.79495 14.8544 8.56963C15.6483 9.34432 16.0549 10.4135 16.0677 11.7452C16.0709 11.8604 15.9812 11.9533 15.866 11.9533C15.8692 11.9533 15.8692 11.9533 15.866 11.9533Z" fill="white"/>
<path d="M12.5943 13.6983C12.5943 13.6983 12.8793 13.724 13.0329 13.5351L13.3306 13.1605C13.4747 12.9749 13.8236 12.8564 14.1629 13.0453C14.3518 13.1509 14.6943 13.3622 14.9056 13.5191C15.1329 13.6855 15.5938 14.0697 15.597 14.0729C15.8179 14.2586 15.8691 14.5306 15.7187 14.822C15.7187 14.822 15.7187 14.8252 15.7187 14.8284C15.565 15.1005 15.357 15.3566 15.0977 15.5934C15.0945 15.5934 15.0945 15.5966 15.0913 15.5966C14.8768 15.7759 14.6655 15.8783 14.4606 15.9008C14.435 15.9072 14.4062 15.9072 14.3678 15.9072C14.2782 15.9072 14.1885 15.8943 14.0989 15.8655L14.0925 15.8559C13.7724 15.7663 13.241 15.5422 12.3575 15.0524C11.7813 14.7355 11.3043 14.4122 10.8977 14.0889C10.6832 13.9192 10.4656 13.7304 10.2415 13.5063C10.2351 13.4999 10.2255 13.4903 10.2191 13.4839C10.2127 13.4775 10.2031 13.4679 10.1967 13.4615C10.1903 13.4551 10.1807 13.4455 10.1743 13.4391C10.1679 13.4326 10.1583 13.423 10.1519 13.4166C9.93097 13.1926 9.7389 12.9749 9.56924 12.7604C9.24592 12.3571 8.92261 11.8769 8.60569 11.3007C8.11591 10.4139 7.89183 9.88255 7.8022 9.56563L7.79259 9.55923C7.76378 9.4696 7.75098 9.37997 7.75098 9.29033C7.75098 9.25192 7.75098 9.22311 7.75738 9.1975C7.78299 8.98942 7.88543 8.78135 8.06149 8.56687C8.06149 8.56367 8.06469 8.56367 8.06469 8.56047C8.30158 8.29797 8.55767 8.0931 8.82977 7.93944C8.82977 7.93944 8.83297 7.93944 8.83617 7.93944C9.12428 7.78898 9.39638 7.8402 9.58525 8.06108C9.58525 8.06108 9.97259 8.52525 10.1391 8.75254C10.2959 8.96701 10.5072 9.30634 10.6128 9.49521C10.8017 9.83453 10.6832 10.1835 10.4976 10.3275L10.123 10.6252C9.93418 10.7789 9.95978 11.0638 9.95978 11.0638C9.95978 11.0638 10.5136 13.1702 12.5943 13.6983Z" fill="white"/>
</svg>
