<svg width="617" height="333" viewBox="0 0 617 333" fill="none" xmlns="http://www.w3.org/2000/svg">
<path d="M82.8462 182.863C11.2626 123.27 -6.30022 244.975 93.8505 264.78C168.447 266.473 117.788 205.722 149.771 193.285C172.375 190.398 171.421 222.118 181.862 234.742C222.146 262.414 199.639 191.252 200.41 172.992C198.616 148.294 191.141 115.208 162.757 110.252C108.391 113.755 136.033 177.565 199.539 152.113C228.074 141.997 257.15 155.996 262.698 186.662C269.005 212.36 268.007 248.4 296.266 260.476C309.434 265.655 327.501 258.565 329.624 244.59C327.44 215.78 298.109 194.609 284.136 170.183C240.541 115.437 301.85 94.0198 348.387 114.868C424.33 143.027 530.614 146.818 571.091 49.4479" stroke="#F7F4ED" stroke-linecap="round" stroke-linejoin="round"/>
<path opacity="0.2" d="M210.632 191.592C239.51 241.017 308.636 255 308.636 255C308.636 255 330.942 188.832 302.082 139.401C273.213 89.962 204.094 76 204.094 76C204.094 76 181.772 142.161 210.632 191.592Z" fill="url(#paint0_linear_166_10927)"/>
<path opacity="0.3" fill-rule="evenodd" clip-rule="evenodd" d="M349.572 178.229C333.696 223.425 313.308 257.834 313.308 257.834C313.308 257.834 373.545 235.274 389.422 190.087C405.298 144.891 370.821 94.1638 370.821 94.1638C370.821 94.1638 365.452 133.028 349.572 178.229Z" fill="url(#paint1_linear_166_10927)"/>
<path fill-rule="evenodd" clip-rule="evenodd" d="M264.249 108.356C264.249 109.95 262.953 111.245 261.357 111.245C259.759 111.245 258.465 109.95 258.465 108.356C258.465 106.759 259.759 105.467 261.357 105.467C262.953 105.467 264.249 106.759 264.249 108.356Z" fill="url(#paint2_linear_166_10927)"/>
<path fill-rule="evenodd" clip-rule="evenodd" d="M263.787 108.355C263.787 109.002 263.534 109.612 263.076 110.069C262.616 110.529 262.007 110.781 261.359 110.781C260.713 110.781 260.1 110.529 259.641 110.069C259.184 109.612 258.93 109.002 258.93 108.355C258.93 107.017 260.019 105.93 261.357 105.93C262.697 105.928 263.787 107.017 263.787 108.355ZM261.359 105C259.508 105 258 106.502 258 108.353C258 109.25 258.349 110.092 258.985 110.728C259.62 111.359 260.463 111.708 261.359 111.708C262.258 111.708 263.1 111.359 263.735 110.728C264.367 110.092 264.718 109.25 264.718 108.353C264.716 106.504 263.21 105 261.359 105Z" fill="url(#paint3_linear_166_10927)"/>
<path fill-rule="evenodd" clip-rule="evenodd" d="M334.249 97.356C334.249 98.9504 332.953 100.245 331.357 100.245C329.759 100.245 328.465 98.9504 328.465 97.356C328.465 95.759 329.759 94.4668 331.357 94.4668C332.953 94.4668 334.249 95.759 334.249 97.356Z" fill="url(#paint4_linear_166_10927)"/>
<path fill-rule="evenodd" clip-rule="evenodd" d="M333.787 97.3552C333.787 98.002 333.534 98.6123 333.076 99.0689C332.616 99.5294 332.007 99.7814 331.359 99.7814C330.713 99.7814 330.1 99.5294 329.641 99.0689C329.184 98.6123 328.93 98.002 328.93 97.3552C328.93 96.0166 330.019 94.9304 331.357 94.9304C332.697 94.9284 333.787 96.0166 333.787 97.3552ZM331.359 94C329.508 94 328 95.5023 328 97.3531C328 98.2505 328.349 99.0921 328.985 99.7276C329.62 100.359 330.463 100.708 331.359 100.708C332.258 100.708 333.1 100.359 333.735 99.7276C334.367 99.0921 334.718 98.2505 334.718 97.3531C334.716 95.5042 333.21 94 331.359 94Z" fill="url(#paint5_linear_166_10927)"/>
<path fill-rule="evenodd" clip-rule="evenodd" d="M278.249 72.356C278.249 73.9504 276.953 75.2447 275.357 75.2447C273.759 75.2447 272.465 73.9504 272.465 72.356C272.465 70.759 273.759 69.4668 275.357 69.4668C276.953 69.4668 278.249 70.759 278.249 72.356Z" fill="url(#paint6_linear_166_10927)"/>
<path fill-rule="evenodd" clip-rule="evenodd" d="M277.787 72.3552C277.787 73.002 277.534 73.6123 277.076 74.0689C276.616 74.5294 276.007 74.7814 275.359 74.7814C274.713 74.7814 274.1 74.5294 273.641 74.0689C273.184 73.6123 272.93 73.002 272.93 72.3552C272.93 71.0166 274.019 69.9304 275.357 69.9304C276.697 69.9284 277.787 71.0166 277.787 72.3552ZM275.359 69C273.508 69 272 70.5023 272 72.3531C272 73.2505 272.349 74.0921 272.985 74.7276C273.62 75.3592 274.463 75.7077 275.359 75.7077C276.258 75.7077 277.1 75.3592 277.735 74.7276C278.367 74.0921 278.718 73.2505 278.718 72.3531C278.716 70.5042 277.21 69 275.359 69Z" fill="url(#paint7_linear_166_10927)"/>
<defs>
<linearGradient id="paint0_linear_166_10927" x1="212.243" y1="80.038" x2="306.457" y2="247.763" gradientUnits="userSpaceOnUse">
<stop stop-color="#A5CDB9" stop-opacity="0.2"/>
<stop offset="1" stop-color="#A5CDB9"/>
</linearGradient>
<linearGradient id="paint1_linear_166_10927" x1="372.24" y1="106.964" x2="327.217" y2="246.281" gradientUnits="userSpaceOnUse">
<stop offset="0.0477274" stop-color="#D2D9E9" stop-opacity="0.2"/>
<stop offset="1" stop-color="#D2D9E9"/>
</linearGradient>
<linearGradient id="paint2_linear_166_10927" x1="261.357" y1="105.467" x2="261.357" y2="111.245" gradientUnits="userSpaceOnUse">
<stop stop-color="#FFFAF1"/>
<stop offset="1" stop-color="#EDE6D8"/>
</linearGradient>
<linearGradient id="paint3_linear_166_10927" x1="261.359" y1="105" x2="261.359" y2="111.708" gradientUnits="userSpaceOnUse">
<stop stop-color="#D2D9E9"/>
<stop offset="1" stop-color="#989AA7"/>
</linearGradient>
<linearGradient id="paint4_linear_166_10927" x1="331.357" y1="94.4668" x2="331.357" y2="100.245" gradientUnits="userSpaceOnUse">
<stop stop-color="#FFFAF1"/>
<stop offset="1" stop-color="#EDE6D8"/>
</linearGradient>
<linearGradient id="paint5_linear_166_10927" x1="331.359" y1="94" x2="331.359" y2="100.708" gradientUnits="userSpaceOnUse">
<stop stop-color="#D2D9E9"/>
<stop offset="1" stop-color="#989AA7"/>
</linearGradient>
<linearGradient id="paint6_linear_166_10927" x1="275.357" y1="69.4668" x2="275.357" y2="75.2447" gradientUnits="userSpaceOnUse">
<stop stop-color="#FFFAF1"/>
<stop offset="1" stop-color="#EDE6D8"/>
</linearGradient>
<linearGradient id="paint7_linear_166_10927" x1="275.359" y1="69" x2="275.359" y2="75.7077" gradientUnits="userSpaceOnUse">
<stop stop-color="#D2D9E9"/>
<stop offset="1" stop-color="#989AA7"/>
</linearGradient>
</defs>
</svg>
